SplineFontDB: 3.0
FontName: BetecknaLowerCaseBoldCondensed
FullName: BetecknaLowerCase
FamilyName: BetecknaLowerCase
Weight: Medium
Copyright: Drawn by Johan Mattsson
Version: 
ItalicAngle: 0
UnderlinePosition: -200
UnderlineWidth: 50
Ascent: 800
Descent: 200
LayerCount: 2
Layer: 0 1 "Back" 
Layer: 1 1 "Fore" 
NeedsXUIDChange: 1
XUID: [1021 880 1988980000 3066022]
FSType: 0
OS2Version: 3
OS2_WeightWidthSlopeOnly: 0
OS2_UseTypoMetrics: 1
CreationTime: 1176121501
ModificationTime: 1239205379
PfmFamily: 17
TTFWeight: 500
TTFWidth: 5
LineGap: 90
VLineGap: 0
Panose: 2 0 6 3 0 0 0 0 0 0
OS2TypoAscent: 0
OS2TypoAOffset: 1
OS2TypoDescent: 0
OS2TypoDOffset: 1
OS2TypoLinegap: 0
OS2WinAscent: 0
OS2WinAOffset: 1
OS2WinDescent: 0
OS2WinDOffset: 1
HheadAscent: 0
HheadAOffset: 1
HheadDescent: 0
HheadDOffset: 1
OS2SubXSize: 650
OS2SubYSize: 699
OS2SubXOff: 0
OS2SubYOff: 479
OS2SupXSize: 650
OS2SupYSize: 699
OS2SupXOff: 0
OS2SupYOff: 0
OS2StrikeYSize: 49
OS2StrikeYPos: 258
OS2Vendor: 'PfEd'
OS2CodePages: 00000010.01140000
OS2UnicodeRanges: 800000cf.40000000.00000000.00000000
Lookup: 4 0 1 "'liga' Standard Ligatures in Latin lookup 0"  {"'liga' Standard Ligatures in Latin lookup 0 subtable"  } ['liga' ('latn' <'dflt' > ) ]
Lookup: 258 0 0 "'kern' Horizontal Kerning in Latin lookup 0"  {"'kern' Horizontal Kerning in Latin lookup 0 subtable"  } ['kern' ('latn' <'dflt' > ) ]
DEI: 0
ShortTable: maxp 16
  1
  0
  182
  92
  5
  70
  4
  2
  0
  1
  1
  0
  64
  0
  2
  1
EndShort
LangName: 1033 "" "" "" "FontForge 2.0 : BetecknaLowerCase : 4-10-2008" 
GaspTable: 1 65535 2
Encoding: UnicodeBmp
UnicodeInterp: none
NameList: Adobe Glyph List
DisplaySize: -72
AntiAlias: 1
FitToEm: 1
Grid
-1000 142 m 0
 2000 142 l 0
EndSplineSet
BeginChars: 65539 190

StartChar: .notdef
Encoding: 65536 -1 0
Width: 450
Flags: HW
LayerCount: 2
Fore
SplineSet
74 -20 m 1,0,-1
 74 553 l 1,1,-1
 426 553 l 1,2,-1
 426 -20 l 1,3,-1
 74 -20 l 1,0,-1
146 70 m 1,0,0
 354 70 l 1,0,0
 354 463 l 1,0,0
 146 463 l 1,0,0
 146 70 l 1,0,0
EndSplineSet
EndChar

StartChar: exclam
Encoding: 33 33 4
Width: 212
GlyphClass: 2
Flags: HW
LayerCount: 2
Fore
SplineSet
65.8164 713 m 1,0,-1
 169.783 713 l 1,1,-1
 165.419 232 l 1,2,-1
 60.5801 232 l 1,3,-1
 65.8164 713 l 1,0,-1
68.9521 117.001 m 128,-1,6
 88.3047 137.832 88.3047 137.832 100.345 138.174 c 128,-1,7
 112.385 138.517 112.385 138.517 113.132 138.517 c 0,0,0
 135.856 138.517 135.856 138.517 155.129 118.442 c 128,-1,8
 174.4 98.3672 174.4 98.3672 174.4 62 c 0,9,10
 174.4 24.2021 174.4 24.2021 155.112 2.10059 c 128,-1,11
 135.823 -20 135.823 -20 112.07 -20 c 128,-1,12
 88.3174 -20 88.3174 -20 68.959 1.50977 c 128,-1,13
 49.5996 23.0186 49.5996 23.0186 49.5996 60 c 0,4,5
 49.5996 96.1709 49.5996 96.1709 68.9521 117.001 c 128,-1,6
EndSplineSet
EndChar

StartChar: quotedbl
Encoding: 34 34 5
Width: 305
GlyphClass: 2
Flags: HW
LayerCount: 2
Fore
SplineSet
196.33 620.816 m 128,-1,2
 177.962 676.72 177.962 676.72 177.962 697.598 c 0,0,0
 177.962 697.865 177.962 697.865 177.986 698.613 c 0,1,2
 178.012 699.361 178.012 699.361 178.012 699.624 c 0,3,4
 178.051 734.258 178.051 734.258 196.983 754.543 c 128,-1,5
 215.917 774.829 215.917 774.829 227.731 775.172 c 128,-1,6
 239.546 775.516 239.546 775.516 240.268 775.516 c 0,0,0
 262.785 775.516 262.785 775.516 281.991 754.843 c 128,-1,7
 301.195 734.171 301.195 734.171 301.195 696 c 2,8,9
 301.195 694.345 l 1,10,-1
 300.979 692.712 l 2,8,9
 297.504 666.654 297.504 666.654 289.793 642.023 c 128,-1,10
 282.082 617.393 282.082 617.393 276.413 604.856 c 128,-1,11
 270.745 592.319 270.745 592.319 259.485 572.213 c 128,-1,12
 248.227 552.107 248.227 552.107 246.115 547.71 c 2,0,1
 225.719 505.219 l 1,2,-1
 216.806 553.503 l 2,0,1
 214.699 564.912 214.699 564.912 196.33 620.816 c 128,-1,2
57.1309 620.816 m 128,-1,15
 38.7617 676.72 38.7617 676.72 38.7617 697.598 c 0,0,0
 38.7617 697.864 38.7617 697.864 38.7861 698.613 c 0,1,2
 38.8115 699.361 38.8115 699.361 38.8115 699.624 c 0,16,17
 38.8516 734.258 38.8516 734.258 57.7842 754.543 c 128,-1,18
 76.7168 774.829 76.7168 774.829 88.5312 775.172 c 128,-1,19
 100.346 775.516 100.346 775.516 101.067 775.516 c 0,0,0
 123.585 775.516 123.585 775.516 142.791 754.843 c 128,-1,20
 161.996 734.171 161.996 734.171 161.996 696 c 2,21,22
 161.996 694.345 l 1,23,-1
 161.778 692.712 l 2,21,22
 158.304 666.654 158.304 666.654 150.594 642.023 c 128,-1,23
 142.882 617.393 142.882 617.393 137.214 604.856 c 128,-1,24
 131.546 592.32 131.546 592.32 120.286 572.214 c 128,-1,25
 109.026 552.107 109.026 552.107 106.915 547.71 c 2,13,14
 86.5195 505.219 l 1,15,-1
 77.6055 553.503 l 2,13,14
 75.499 564.912 75.499 564.912 57.1309 620.816 c 128,-1,15
EndSplineSet
EndChar

StartChar: numbersign
Encoding: 35 35 6
Width: 409
GlyphClass: 2
Flags: HW
LayerCount: 2
Fore
SplineSet
113.5 640 m 1,0,-1
 207.1 640 l 1,1,-1
 207.1 500 l 1,0,0
 247.1 500 l 1,0,0
 247.1 640 l 1,1,-1
 341.5 640 l 1,2,-1
 341.5 500 l 1,0,0
 387.9 500 l 1,1,-1
 387.9 369 l 1,2,-1
 341.5 369 l 1,0,0
 341.5 326 l 1,0,0
 387.9 326 l 1,1,-1
 387.9 199 l 1,2,-1
 341.5 199 l 1,0,0
 341.5 50 l 1,1,-1
 247.1 50 l 1,2,-1
 247.1 199 l 1,0,0
 207.1 199 l 1,0,0
 207.1 50 l 1,1,-1
 113.5 50 l 1,2,-1
 113.5 199.342 l 1,0,0
 67.0996 200.342 l 1,1,-1
 67.0996 326 l 1,2,-1
 113.5 326 l 1,0,0
 113.5 370 l 1,0,0
 67.0996 370 l 1,1,-1
 67.0996 501.348 l 1,2,-1
 113.5 500.348 l 1,0,0
 113.5 640 l 1,0,-1
207.1 369.776 m 1,0,0
 207.1 326 l 1,0,0
 247.1 326 l 1,0,0
 247.1 369.221 l 1,0,0
 207.1 369.776 l 1,0,0
EndSplineSet
EndChar

StartChar: dollar
Encoding: 36 36 7
Width: 659
GlyphClass: 2
Flags: HW
LayerCount: 2
Fore
SplineSet
330.727 9.50977 m 1,0,1
 305.725 13.7676 305.725 13.7676 279.043 29.3877 c 0,2,3
 245.858 48.8154 245.858 48.8154 228.873 65.1475 c 0,4,5
 212.846 80.5576 212.846 80.5576 198.843 96.0029 c 2,6,-1
 189.009 106.849 l 1,7,-1
 237.798 212.05 l 1,8,-1
 252.499 194.439 l 2,9,10
 271.029 172.242 271.029 172.242 283.49 160.441 c 0,11,12
 295.088 149.458 295.088 149.458 316.037 138.433 c 0,13,14
 335.859 128 335.859 128 358.229 128 c 0,15,16
 390.901 128 390.901 128 402.489 136.005 c 0,17,18
 416.418 145.627 416.418 145.627 434.99 183.46 c 0,19,20
 445.171 204.195 445.171 204.195 445.171 223.928 c 0,21,22
 445.171 237.98 445.171 237.98 440.028 252.319 c 0,23,24
 428.259 285.137 428.259 285.137 394.533 302.508 c 0,25,26
 341.271 329.941 341.271 329.941 338.592 331.102 c 0,27,28
 288.341 352.86 288.341 352.86 261.704 381.936 c 0,29,30
 230.294 416.222 230.294 416.222 218.073 456.391 c 0,31,32
 208.191 488.871 208.191 488.871 208.191 523.265 c 0,33,34
 208.191 530.879 208.191 530.879 208.678 538.574 c 0,35,36
 211.38 581.359 211.38 581.359 228.587 616.451 c 0,37,38
 245.836 651.629 245.836 651.629 277.196 675.149 c 0,39,40
 301.229 693.174 301.229 693.174 330.485 699.35 c 1,41,-1
 319.68 770 l 1,42,-1
 418.1 770 l 1,43,-1
 408.175 699.698 l 1,44,45
 455.571 691.043 455.571 691.043 490.688 655.553 c 2,46,-1
 501.994 644.127 l 1,47,-1
 451.008 547.752 l 1,48,-1
 437.216 563.033 l 2,49,50
 411.479 591.548 411.479 591.548 374.235 591.548 c 0,51,52
 365.929 591.548 365.929 591.548 357.013 590.154 c 0,53,54
 336.962 587.021 336.962 587.021 323.672 570.021 c 0,55,56
 310.223 552.819 310.223 552.819 308.101 531.975 c 0,57,58
 307.845 529.458 307.845 529.458 307.845 526.904 c 0,59,60
 307.845 509.43 307.845 509.43 319.931 488.827 c 0,61,62
 336.053 461.346 336.053 461.346 367.411 447.921 c 2,63,-1
 425.812 422.921 l 2,64,65
 450.722 412.258 450.722 412.258 478.143 385.197 c 0,66,67
 502.956 360.71 502.956 360.71 522.371 324.037 c 0,68,69
 542.745 285.555 542.745 285.555 545 238.188 c 0,70,71
 545.273 232.436 545.273 232.436 545.273 226.647 c 0,72,73
 545.273 181.804 545.273 181.804 528.887 134.983 c 0,74,75
 494.99 38.1396 494.99 38.1396 414.454 14.9014 c 1,76,-1
 421.264 -50 l 1,77,-1
 324.981 -50 l 1,78,-1
 330.727 9.50977 l 1,0,1
EndSplineSet
EndChar

StartChar: percent
Encoding: 37 37 8
Width: 502
GlyphClass: 2
Flags: HW
LayerCount: 2
Fore
SplineSet
156.4 473 m 0,0,1
 156.302 469.413 156.302 469.413 156.963 465.416 c 0,2,3
 158.388 456.805 158.388 456.805 164.885 452.042 c 0,4,5
 169.375 448.75 169.375 448.75 173.9 448.75 c 0,6,7
 174.72 448.771 174.72 448.771 175.188 448.824 c 0,8,9
 176.021 448.941 176.021 448.941 176.504 449.054 c 0,10,11
 177.365 449.274 177.365 449.274 177.879 449.453 c 0,12,13
 179.759 450.108 179.759 450.108 182.572 451.943 c 0,14,15
 188.029 455.503 188.029 455.503 189.821 463.638 c 0,16,17
 190.584 467.105 190.584 467.105 190.8 474 c 0,18,19
 190.863 476.021 190.863 476.021 190.547 478.776 c 0,20,21
 189.799 485.282 189.799 485.282 186.348 488.941 c 0,22,23
 180.631 495 180.631 495 173.6 495 c 0,24,25
 170.164 495 170.164 495 167.039 493.231 c 0,26,27
 164.954 492.052 164.954 492.052 161.401 488.521 c 0,28,29
 157.509 484.652 157.509 484.652 156.643 477.36 c 0,30,31
 156.492 476.363 156.492 476.363 156.4 473 c 0,0,1
86.3477 541.208 m 128,-1,11
 101.896 570.359 101.896 570.359 124.317 581.229 c 128,-1,12
 146.74 592.096 146.74 592.096 170.086 592.096 c 0,0,0
 172.509 592.096 172.509 592.096 186.841 591.467 c 128,-1,13
 201.173 590.838 201.173 590.838 224.245 576.712 c 128,-1,14
 247.316 562.586 247.316 562.586 262.658 533.821 c 128,-1,15
 278 505.056 278 505.056 278 469 c 0,16,17
 278 431.148 278 431.148 262.692 401.25 c 128,-1,18
 247.384 371.351 247.384 371.351 224.144 357.714 c 128,-1,19
 200.901 344.078 200.901 344.078 187.225 343.778 c 128,-1,20
 173.548 343.479 173.548 343.479 172.423 343.479 c 0,0,0
 147.321 343.479 147.321 343.479 124.372 356.357 c 128,-1,21
 101.424 369.236 101.424 369.236 86.1113 399.741 c 128,-1,22
 70.7998 430.245 70.7998 430.245 70.7998 472 c 0,9,10
 70.7998 512.056 70.7998 512.056 86.3477 541.208 c 128,-1,11
367.6 161 m 0,11,12
 367.489 157.488 367.489 157.488 368.159 153.462 c 0,13,14
 369.525 145.248 369.525 145.248 375.824 140.717 c 0,15,16
 380.125 137.622 380.125 137.622 384.731 137.622 c 0,17,18
 385.592 137.644 385.592 137.644 386.083 137.7 c 0,19,20
 389.341 138.077 389.341 138.077 393.772 140.943 c 0,21,22
 399.283 144.507 399.283 144.507 401.055 152.312 c 0,23,24
 401.818 155.678 401.818 155.678 402 162 c 0,25,26
 402.066 164.314 402.066 164.314 401.712 167.349 c 0,27,28
 400.691 176.092 400.691 176.092 394.307 180.699 c 0,29,30
 390.246 183.628 390.246 183.628 385.485 183.628 c 0,31,32
 380.932 183.628 380.932 183.628 375.824 180.283 c 0,33,34
 368.923 175.765 368.923 175.765 367.851 165.942 c 1,35,36
 367.741 165.49 367.741 165.49 367.6 161 c 0,11,12
297.989 230.283 m 128,-1,33
 313.978 259.354 313.978 259.354 335.554 270.029 c 128,-1,34
 357.131 280.704 357.131 280.704 379.449 280.704 c 0,0,0
 382.912 280.704 382.912 280.704 397.708 279.731 c 128,-1,35
 412.504 278.758 412.504 278.758 435.418 264.729 c 128,-1,36
 458.331 250.7 458.331 250.7 474.166 222.51 c 128,-1,37
 490 194.32 490 194.32 490 157 c 0,38,39
 490 118.894 490 118.894 474.24 89.6426 c 128,-1,40
 458.48 60.3916 458.48 60.3916 435.361 46.2363 c 128,-1,41
 412.241 32.0811 412.241 32.0811 398.495 31.7803 c 128,-1,42
 384.75 31.4785 384.75 31.4785 383.624 31.4785 c 0,0,0
 358.474 31.4785 358.474 31.4785 335.985 44.3613 c 128,-1,43
 313.498 57.2451 313.498 57.2451 297.749 87.6689 c 128,-1,44
 282 118.094 282 118.094 282 160 c 0,31,32
 282 201.212 282 201.212 297.989 230.283 c 128,-1,33
424.402 587.781 m 1,33,-1
 492.25 499.997 l 1,34,-1
 123.598 23.2188 l 1,35,-1
 55.751 111.003 l 1,36,-1
 424.402 587.781 l 1,33,-1
EndSplineSet
EndChar

StartChar: ampersand
Encoding: 38 38 9
Width: 681
GlyphClass: 2
Flags: HW
LayerCount: 2
Fore
SplineSet
484.942 223.629 m 1,0,0
 500.903 275.686 500.903 275.686 500.903 327.628 c 0,0,0
 500.903 336.182 500.903 336.182 500.471 344.736 c 2,3,-1
 499.394 366 l 1,4,-1
 599.206 366 l 1,5,-1
 598.834 345.546 l 2,4,5
 596.513 217.846 596.513 217.846 557.781 127.992 c 1,0,0
 669.546 -20 l 1,1,-1
 531.243 -20 l 1,2,-1
 492.993 29.5498 l 1,0,0
 432.806 -30.6748 432.806 -30.6748 341.048 -41.9209 c 0,11,12
 334.331 -42.7441 334.331 -42.7441 324.131 -42.7441 c 0,0,0
 287.577 -42.7441 287.577 -42.7441 246.142 -25.6426 c 128,-1,13
 204.706 -8.54102 204.706 -8.54102 166.22 38.4482 c 128,-1,14
 127.733 85.4375 127.733 85.4375 116.058 145.56 c 0,15,16
 110.839 172.436 110.839 172.436 110.839 208.45 c 128,-1,17
 110.839 244.464 110.839 244.464 119.552 274.962 c 128,-1,18
 128.266 305.461 128.266 305.461 139.027 328.598 c 128,-1,19
 149.788 351.734 149.788 351.734 165.007 373.4 c 128,-1,20
 180.227 395.066 180.227 395.066 190.722 406.916 c 128,-1,21
 201.218 418.766 201.218 418.766 209.267 426.9 c 1,0,0
 196.287 463.652 196.287 463.652 194.923 485.537 c 128,-1,24
 193.559 507.422 193.559 507.422 193.559 515.52 c 0,0,0
 193.559 548.774 193.559 548.774 203.211 577.935 c 128,-1,25
 212.864 607.095 212.864 607.095 226.586 629.392 c 128,-1,26
 240.308 651.689 240.308 651.689 254.467 665.637 c 0,27,28
 285.536 696.243 285.536 696.243 316.342 700.059 c 128,-1,29
 347.147 703.875 347.147 703.875 358.663 703.875 c 0,0,0
 393.512 703.875 393.512 703.875 431.525 687.541 c 128,-1,30
 469.539 671.207 469.539 671.207 484.44 632.711 c 2,31,-1
 489.544 619.528 l 1,32,-1
 423.445 541.412 l 1,33,-1
 412.854 560.67 l 2,32,33
 399.663 584.652 399.663 584.652 379.471 586.244 c 128,-1,34
 359.277 587.836 359.277 587.836 355.703 587.836 c 0,0,0
 323.227 587.836 323.227 587.836 306.808 564.741 c 0,35,36
 291.509 543.221 291.509 543.221 291.509 516.717 c 0,0,0
 291.509 475.529 291.509 475.529 331.94 423.901 c 2,0,-1
 484.942 223.629 l 1,0,0
265.896 327.321 m 1,0,0
 238.948 295.781 238.948 295.781 225.995 264.048 c 128,-1,39
 213.043 232.314 213.043 232.314 213.043 207.615 c 0,0,0
 213.043 191.978 213.043 191.978 217.218 176.324 c 0,40,41
 226.091 143.05 226.091 143.05 252.207 117.559 c 128,-1,42
 278.323 92.0684 278.323 92.0684 301.832 83.2129 c 128,-1,43
 325.34 74.3574 325.34 74.3574 340.738 74.3574 c 0,0,0
 344.039 74.3574 344.039 74.3574 348.348 74.8867 c 0,44,45
 392.831 80.3594 392.831 80.3594 427.265 116.802 c 1,0,0
 265.896 327.321 l 1,0,0
EndSplineSet
EndChar

StartChar: quotesingle
Encoding: 39 39 10
Width: 138
GlyphClass: 2
Flags: HW
LayerCount: 2
Fore
SplineSet
15.2002 699 m 0,2,3
 15.2002 734.003 15.2002 734.003 34.0049 754.823 c 128,-1,4
 52.8105 775.643 52.8105 775.643 64.7393 776.354 c 128,-1,5
 76.6689 777.062 76.6689 777.062 78.0889 777.062 c 0,0,0
 99.5938 777.062 99.5938 777.062 118.197 757.13 c 128,-1,6
 136.8 737.198 136.8 737.198 136.8 699 c 0,7,8
 136.8 660.491 136.8 660.491 120.492 617.576 c 128,-1,9
 104.184 574.66 104.184 574.66 87.2568 546.096 c 2,0,1
 73.7109 523.236 l 1,2,-1
 61.0879 546.906 l 2,0,1
 15.2002 632.944 15.2002 632.944 15.2002 699 c 0,2,3
EndSplineSet
EndChar

StartChar: parenleft
Encoding: 40 40 11
Width: 241
GlyphClass: 2
Flags: HW
LayerCount: 2
Fore
SplineSet
42 324.095 m 128,-1,2
 42 489.785 42 489.785 42.8818 503.945 c 0,3,4
 49.4434 609.328 49.4434 609.328 92.5439 682.748 c 128,-1,5
 135.646 756.168 135.646 756.168 203.586 793.323 c 2,6,-1
 226 805.58 l 1,7,-1
 226 661.679 l 1,8,-1
 219.271 655.699 l 2,7,8
 158.718 601.895 158.718 601.895 149.889 502.655 c 0,9,10
 149.2 494.906 149.2 494.906 149.2 326.049 c 128,-1,11
 149.2 157.191 149.2 157.191 149.903 150.168 c 0,12,13
 160.038 48.9287 160.038 48.9287 219.001 -8.19141 c 2,14,-1
 225.2 -14.1973 l 1,15,-1
 225.2 -167.991 l 1,16,-1
 202.192 -153.979 l 2,15,16
 136.075 -113.716 136.075 -113.716 93.2744 -37.4365 c 128,-1,17
 50.4736 38.8418 50.4736 38.8418 42.8643 146.216 c 0,0,1
 42 158.404 42 158.404 42 324.095 c 128,-1,2
EndSplineSet
EndChar

StartChar: parenright
Encoding: 41 41 12
Width: 265
GlyphClass: 2
Flags: HW
LayerCount: 2
Fore
SplineSet
187.805 -34.9688 m 128,-1,2
 145.047 -111.701 145.047 -111.701 78.9043 -151.979 c 2,3,-1
 55.8965 -165.991 l 1,4,-1
 55.8965 -12.293 l 1,5,-1
 61.998 -6.28711 l 2,4,5
 121.067 51.8594 121.067 51.8594 131.194 152.18 c 0,6,7
 131.896 159.133 131.896 159.133 131.896 327.69 c 128,-1,8
 131.896 496.248 131.896 496.248 131.2 504.746 c 0,9,10
 123.051 604.098 123.051 604.098 62.5234 658.792 c 2,11,-1
 55.8965 664.779 l 1,12,-1
 55.8965 808.932 l 1,13,-1
 78.4629 796.238 l 2,12,13
 146.313 758.072 146.313 758.072 189.282 684.685 c 128,-1,14
 232.25 611.298 232.25 611.298 239.071 505.806 c 2,15,16
 239.058 149.015 l 2,0,1
 230.562 41.7627 230.562 41.7627 187.805 -34.9688 c 128,-1,2
EndSplineSet
EndChar

StartChar: asterisk
Encoding: 42 42 13
Width: 190
GlyphClass: 2
Flags: HW
LayerCount: 2
Fore
SplineSet
137.02 737.587 m 1,0,1
 137.015 737.604 137.015 737.604 137.015 737.607 c 1,2,3
 137.009 737.608 137.009 737.608 137.02 737.587 c 1,0,1
138.128 736.662 m 1,4,-1
 161.027 735.99 l 1,5,-1
 172.178 735.555 l 1,6,-1
 182.108 698.317 l 1,7,-1
 172.433 658 l 1,8,-1
 167.155 658 l 1,9,-1
 183.796 637.199 l 1,10,-1
 167.893 603.405 l 1,11,-1
 141.564 578.722 l 1,12,-1
 106.622 621.334 l 1,13,-1
 72.9668 579.264 l 1,14,-1
 44.2822 603.168 l 1,15,-1
 29.4805 638.115 l 1,16,-1
 46.3936 658 l 1,17,-1
 38.4355 658 l 1,18,-1
 30.3818 698.269 l 1,19,-1
 38.8633 736.439 l 1,20,-1
 74.0859 735.178 l 1,21,-1
 74.1279 755 l 1,22,-1
 74.1279 771.396 l 1,23,-1
 106.128 779.396 l 1,24,-1
 138.128 771.396 l 1,25,-1
 138.128 736.662 l 1,4,-1
72.9199 658 m 1,26,-1
 74.1123 658 l 1,27,-1
 72.9199 658 l 1,26,-1
EndSplineSet
EndChar

StartChar: plus
Encoding: 43 43 14
Width: 445
GlyphClass: 2
Flags: HW
LayerCount: 2
Fore
SplineSet
301.5 295.146 m 1,0,0
 301.5 140 l 1,1,-1
 197.604 140 l 1,2,-1
 196.804 294.857 l 1,0,0
 84.7002 293.856 l 1,1,-1
 84.7002 425.281 l 1,2,-1
 198.764 423.287 l 1,0,0
 196.368 569 l 1,1,-1
 300.7 569 l 1,2,-1
 300.7 425.146 l 1,0,0
 410.3 426.146 l 1,1,-1
 410.3 296.146 l 1,2,-1
 301.5 295.146 l 1,0,0
EndSplineSet
EndChar

StartChar: comma
Encoding: 44 44 15
Width: 138
GlyphClass: 2
Flags: HW
LayerCount: 2
Fore
SplineSet
34.9805 125.186 m 0,0,1
 53.3145 144.829 53.3145 144.829 76.2217 145.494 c 0,2,3
 76.9453 145.516 76.9453 145.516 77.665 145.516 c 0,4,5
 100.183 145.516 100.183 145.516 118.634 125.655 c 0,6,7
 138.594 104.171 138.594 104.171 138.594 66 c 0,8,9
 138.594 41.3936 138.594 41.3936 129.78 18.751 c 0,10,11
 121.964 -1.33594 121.964 -1.33594 114.733 -13.7637 c 0,12,13
 106.938 -27.1602 106.938 -27.1602 90.249 -42.9482 c 0,14,15
 74.2695 -58.0625 74.2695 -58.0625 69.749 -60.8887 c 0,16,17
 67.2285 -62.4639 67.2285 -62.4639 55.0732 -71.96 c 0,18,19
 43.5039 -80.998 43.5039 -80.998 34.5361 -68.1475 c 0,20,21
 25.5684 -55.2969 25.5684 -55.2969 34.3018 -42.1963 c 0,22,23
 37.4004 -37.5488 37.4004 -37.5488 41.501 -28.5771 c 0,24,25
 45.8857 -18.9863 45.8857 -18.9863 49.9482 -7.44531 c 0,26,27
 52.625 0.157227 52.625 0.157227 54.4688 6.88574 c 1,28,29
 41.1084 8.71777 41.1084 8.71777 30.9062 21.3438 c 0,30,31
 18.3232 36.917 18.3232 36.917 15.9434 56.2793 c 0,32,33
 15.3398 61.1914 15.3398 61.1914 15.3398 66.3643 c 0,34,35
 15.3398 66.8018 15.3398 66.8018 15.3711 67.9297 c 0,36,37
 15.4023 69.0576 15.4023 69.0576 15.4033 69.499 c 0,38,39
 15.457 104.266 15.457 104.266 34.9805 125.186 c 0,0,1
EndSplineSet
EndChar

StartChar: hyphen
Encoding: 45 45 16
Width: 424
GlyphClass: 2
Flags: HW
LayerCount: 2
Fore
SplineSet
415.1 197 m 1,0,-1
 71.9004 197 l 1,1,-1
 71.9004 326.948 l 1,2,-1
 415.1 328.052 l 1,3,-1
 415.1 197 l 1,0,-1
EndSplineSet
EndChar

StartChar: period
Encoding: 46 46 17
Width: 166
GlyphClass: 2
Flags: HW
LayerCount: 2
Fore
SplineSet
29.9521 117.001 m 128,-1,1
 49.3047 137.832 49.3047 137.832 61.3447 138.174 c 128,-1,2
 73.3848 138.517 73.3848 138.517 74.1318 138.517 c 0,3,4
 96.8564 138.517 96.8564 138.517 116.129 118.442 c 128,-1,5
 135.4 98.3672 135.4 98.3672 135.4 62 c 0,6,7
 135.4 24.2021 135.4 24.2021 116.112 2.10059 c 128,-1,8
 96.8232 -20 96.8232 -20 73.0703 -20 c 128,-1,9
 49.3174 -20 49.3174 -20 29.959 1.50977 c 128,-1,10
 10.5996 23.0186 10.5996 23.0186 10.5996 60 c 0,11,0
 10.5996 96.1709 10.5996 96.1709 29.9521 117.001 c 128,-1,1
EndSplineSet
EndChar

StartChar: slash
Encoding: 47 47 18
Width: 449
GlyphClass: 2
Flags: HW
LayerCount: 2
Fore
SplineSet
197.036 -20 m 1,0,-1
 76.9717 -20 l 1,1,-1
 308.576 721.729 l 1,2,-1
 422.95 724.588 l 1,3,-1
 197.036 -20 l 1,0,-1
EndSplineSet
EndChar

StartChar: zero
Encoding: 48 48 19
Width: 512
GlyphClass: 2
Flags: HW
LayerCount: 2
Fore
SplineSet
171.312 367 m 0,0,1
 171.312 240.073 171.312 240.073 203.616 182.478 c 0,2,3
 235.177 126.205 235.177 126.205 261.331 123.618 c 128,-1,4
 287.486 121.031 287.486 121.031 291.453 121.031 c 0,0,0
 333.044 121.031 333.044 121.031 360.963 167.084 c 0,5,6
 396.913 226.382 396.913 226.382 396.913 360 c 0,7,8
 396.913 494.465 396.913 494.465 355.476 551.543 c 0,9,10
 333.493 581.825 333.493 581.825 313.139 587.607 c 128,-1,11
 292.785 593.39 292.785 593.39 282.832 593.39 c 0,0,0
 263.457 593.39 263.457 593.39 239.41 579.435 c 128,-1,12
 215.363 565.479 215.363 565.479 196.313 524.881 c 0,13,14
 171.312 471.601 171.312 471.601 171.312 367 c 0,0,1
111.434 598.776 m 0,17,18
 147.995 670.158 147.995 670.158 196.529 695.774 c 128,-1,19
 245.063 721.39 245.063 721.39 284.797 721.39 c 0,0,0
 305.015 721.39 305.015 721.39 345.34 710.874 c 128,-1,20
 385.664 700.357 385.664 700.357 430.029 642.883 c 0,21,22
 503.21 548.082 503.21 548.082 503.312 358.169 c 0,23,24
 503.312 355.631 503.312 355.631 503.363 350.64 c 0,25,26
 503.414 345.648 503.414 345.648 503.414 343.111 c 0,0,0
 503.414 169.996 503.414 169.996 448.207 76.1592 c 0,25,26
 407.796 7.4707 407.796 7.4707 364.114 -7.74023 c 128,-1,27
 320.433 -22.9502 320.433 -22.9502 293.979 -22.9502 c 0,0,0
 259.423 -22.9502 259.423 -22.9502 211.934 -1.3252 c 128,-1,28
 164.444 20.2988 164.444 20.2988 123.304 89.0137 c 0,29,30
 65.7129 185.208 65.7129 185.208 65.7129 361 c 0,15,16
 65.7129 509.509 65.7129 509.509 111.434 598.776 c 0,17,18
EndSplineSet
EndChar

StartChar: one
Encoding: 49 49 20
Width: 346
GlyphClass: 2
Flags: HW
LayerCount: 2
Fore
SplineSet
153.514 580 m 1,0,-1
 62.416 580 l 1,1,-1
 61.3496 740 l 1,2,-1
 262.945 740 l 1,3,-1
 263.883 605.105 l 1,4,-1
 264.653 98 l 1,5,-1
 265.483 98 l 1,6,-1
 265.483 -20 l 1,7,-1
 156.087 -20 l 1,8,-1
 155.287 58 l 1,9,-1
 154.313 58 l 1,10,-1
 153.514 580 l 1,0,-1
EndSplineSet
EndChar

StartChar: two
Encoding: 50 50 21
Width: 482
GlyphClass: 2
Flags: HW
LayerCount: 2
Fore
SplineSet
309.891 407.539 m 2,0,1
 341.834 468.97 341.834 468.97 341.834 517.531 c 0,2,3
 341.834 526.396 341.834 526.396 340.747 534.815 c 0,4,5
 334.468 583.479 334.468 583.479 292.188 595.5 c 0,6,7
 285.289 597.462 285.289 597.462 277.869 597.462 c 0,8,9
 260.215 597.462 260.215 597.462 239.061 586.52 c 0,10,11
 210.946 571.979 210.946 571.979 202.085 539.537 c 2,12,-1
 195.49 515.396 l 1,13,-1
 103.935 588.757 l 1,14,-1
 110.154 604.746 l 2,15,16
 155.796 722.08 155.796 722.08 272.235 722.08 c 0,17,18
 275.061 722.08 275.061 722.08 278.475 721.996 c 0,19,20
 366.021 719.824 366.021 719.824 410.633 660.156 c 0,21,22
 447.729 610.538 447.729 610.538 447.729 535.616 c 0,23,24
 447.729 519.624 447.729 519.624 446.021 502.52 c 0,25,26
 436.711 409.427 436.711 409.427 377.418 307.127 c 2,27,-1
 259.061 110.146 l 1,28,-1
 462.144 111.073 l 1,29,-1
 462.144 -19.9443 l 1,30,-1
 143.743 -21.0557 l 1,31,-1
 143.743 -20 l 1,32,-1
 47.2891 -20 l 1,33,-1
 309.891 407.539 l 2,0,1
EndSplineSet
EndChar

StartChar: three
Encoding: 51 51 22
Width: 457
GlyphClass: 2
Flags: HW
LayerCount: 2
Fore
SplineSet
312.395 470.905 m 128,-1,2
 323.37 502.002 323.37 502.002 323.37 522.039 c 0,0,0
 323.37 541.407 323.37 541.407 316.326 559.136 c 0,3,4
 303.693 590.933 303.693 590.933 268.246 600.412 c 0,5,6
 259.011 602.883 259.011 602.883 246.347 602.883 c 0,0,0
 229.726 602.883 229.726 602.883 207.017 596.204 c 128,-1,7
 184.309 589.524 184.309 589.524 171.761 562.077 c 2,8,-1
 163.464 543.928 l 1,9,-1
 74.0615 614.51 l 1,10,-1
 84.1426 631.786 l 2,9,10
 136.845 722.104 136.845 722.104 252.598 722.104 c 0,0,0
 255.197 722.104 255.197 722.104 260.561 721.996 c 0,11,12
 317.176 720.88 317.176 720.88 359.122 686.661 c 128,-1,13
 401.068 652.441 401.068 652.441 415.539 610.236 c 128,-1,14
 430.009 568.03 430.009 568.03 430.009 530.336 c 0,0,0
 430.009 510.358 430.009 510.358 424.402 473.652 c 128,-1,15
 418.797 436.945 418.797 436.945 389.621 391.426 c 1,0,0
 417.979 350.825 417.979 350.825 434.343 303.587 c 128,-1,18
 450.706 256.349 450.706 256.349 450.706 210.465 c 1,0,0
 450.706 210.954 450.706 210.954 450.69 208.828 c 0,1,2
 450.677 206.702 450.677 206.702 450.233 182.595 c 128,-1,19
 449.79 158.488 449.79 158.488 434.024 114.695 c 128,-1,20
 418.259 70.9023 418.259 70.9023 390.301 39.7773 c 128,-1,21
 362.344 8.65137 362.344 8.65137 324.661 -9.54688 c 128,-1,22
 286.979 -27.7461 286.979 -27.7461 244.562 -27.9932 c 0,23,24
 242.632 -28.0049 242.632 -28.0049 238.703 -28.1357 c 0,25,26
 234.775 -28.2666 234.775 -28.2666 232.656 -28.2666 c 0,0,0
 147.469 -28.2666 147.469 -28.2666 65.5391 26.3525 c 2,25,-1
 47.9834 38.0566 l 1,26,-1
 115.236 136.616 l 1,27,-1
 126.301 130.085 l 2,26,27
 153.791 113.858 153.791 113.858 176.078 106.429 c 128,-1,28
 198.366 99 198.366 99 208.203 99 c 128,-1,29
 218.042 99 218.042 99 230.053 99.4453 c 0,30,31
 242.064 99.8896 242.064 99.8896 247.136 99.9912 c 0,30,31
 277.786 100.604 277.786 100.604 299.26 118.362 c 128,-1,32
 320.735 136.12 320.735 136.12 328.933 163.168 c 128,-1,33
 337.128 190.217 337.128 190.217 337.128 219.255 c 0,0,0
 337.128 221.589 337.128 221.589 336.773 237.322 c 128,-1,34
 336.419 253.056 336.419 253.056 321.384 277.978 c 128,-1,35
 306.35 302.899 306.35 302.899 281.584 314 c 1,0,0
 196.073 314 l 1,1,-1
 192.456 431.517 l 1,2,-1
 275.539 433.961 l 1,0,0
 301.419 439.809 301.419 439.809 312.395 470.905 c 128,-1,2
EndSplineSet
EndChar

StartChar: four
Encoding: 52 52 23
Width: 429
GlyphClass: 2
Flags: HW
LayerCount: 2
Fore
SplineSet
286.924 263 m 1,0,0
 286.924 445.047 l 1,0,0
 189.65 263 l 1,0,0
 286.924 263 l 1,0,0
394.924 264 m 1,0,0
 431.912 264 l 1,1,-1
 430.736 139 l 1,2,-1
 397.323 139 l 1,0,0
 397.323 -20 l 1,1,-1
 285.323 -20 l 1,2,-1
 285.323 142 l 1,0,0
 45.3232 142 l 1,1,-1
 45.3232 211.205 l 1,2,-1
 336.901 742 l 1,3,-1
 394.924 742 l 1,4,-1
 394.924 264 l 1,0,0
EndSplineSet
EndChar

StartChar: five
Encoding: 53 53 24
Width: 457
GlyphClass: 2
Flags: HW
LayerCount: 2
Fore
SplineSet
122.857 720 m 1,0,-1
 388.017 720 l 1,1,-1
 390.417 600 l 1,2,-1
 228.972 600 l 1,0,0
 227.061 442.369 l 1,0,0
 230.149 442.4 230.149 442.4 233.164 442.4 c 0,0,0
 277.38 442.4 277.38 442.4 309.073 434.763 c 128,-1,6
 340.767 427.126 340.767 427.126 378.151 395.586 c 0,7,8
 409.874 368.822 409.874 368.822 427.354 327.856 c 128,-1,9
 444.832 286.891 444.832 286.891 446.998 258.794 c 128,-1,10
 449.165 230.697 449.165 230.697 449.165 219.943 c 0,0,0
 449.165 185.094 449.165 185.094 439.188 144.797 c 128,-1,11
 429.209 104.501 429.209 104.501 405.459 67.1182 c 128,-1,12
 381.71 29.7344 381.71 29.7344 341.105 7.05664 c 128,-1,13
 300.502 -15.6211 300.502 -15.6211 249.632 -15.9863 c 0,14,15
 247.68 -16 247.68 -16 243.796 -16.1875 c 0,16,17
 239.912 -16.375 239.912 -16.375 237.787 -16.375 c 0,0,0
 194.949 -16.375 194.949 -16.375 148.427 4.32324 c 128,-1,16
 101.903 25.0225 101.903 25.0225 64.999 56.4756 c 2,17,-1
 50.9561 68.4443 l 1,18,-1
 108.383 161.166 l 1,19,-1
 120.524 152.238 l 2,18,19
 159.998 123.213 159.998 123.213 184.487 112.381 c 128,-1,20
 208.977 101.55 208.977 101.55 245.846 101.998 c 0,21,22
 278.273 102.392 278.273 102.392 302.144 125.742 c 128,-1,23
 326.013 149.093 326.013 149.093 332.938 174.368 c 128,-1,24
 339.861 199.643 339.861 199.643 339.861 219.906 c 0,0,0
 339.861 232.133 339.861 232.133 336.374 254.511 c 128,-1,25
 332.888 276.89 332.888 276.89 315.231 294.37 c 0,26,27
 280.877 328.387 280.877 328.387 231.416 332.023 c 2,28,-1
 121.965 327.303 l 1,29,-1
 122.857 720 l 1,0,-1
EndSplineSet
EndChar

StartChar: six
Encoding: 54 54 25
Width: 529
GlyphClass: 2
Flags: HW
LayerCount: 2
Fore
SplineSet
75.1621 307.655 m 0,0,1
 73.9531 343.448 73.9531 343.448 73.5498 380.227 c 0,2,3
 73.5322 381.823 73.5322 381.823 73.5322 383.439 c 0,4,5
 73.5322 421.373 73.5322 421.373 83.207 470.758 c 0,6,7
 93.2461 521.993 93.2461 521.993 113.425 569.396 c 0,8,9
 142.703 638.18 142.703 638.18 196.277 679.968 c 0,10,11
 250.117 721.963 250.117 721.963 309.855 721.999 c 0,12,13
 310.698 722 310.698 722 312.428 722.019 c 0,14,15
 314.157 722.037 314.157 722.037 314.998 722.037 c 0,16,17
 384.483 722.037 384.483 722.037 421.428 694.114 c 2,18,-1
 433.995 684.615 l 1,19,-1
 388.021 568.126 l 1,20,-1
 372.233 587.857 l 2,21,22
 368.115 593.007 368.115 593.007 350.732 598.64 c 0,23,24
 340.108 602.083 340.108 602.083 325.737 602.083 c 0,25,26
 315.989 602.083 315.989 602.083 302.181 600.132 c 0,27,28
 269.267 595.481 269.267 595.481 245.336 573.805 c 0,29,30
 220.834 551.61 220.834 551.61 207.381 518.864 c 0,31,32
 193.146 484.212 193.146 484.212 186.79 447.293 c 0,33,34
 182.641 423.192 182.641 423.192 181.165 398.099 c 1,35,36
 201.542 419.252 201.542 419.252 223.863 432.554 c 0,37,38
 260.968 454.666 260.968 454.666 290.758 457.444 c 0,39,40
 297.732 458.096 297.732 458.096 304.823 458.096 c 0,41,42
 327.361 458.096 327.361 458.096 351.02 451.523 c 0,43,44
 381.449 443.071 381.449 443.071 396.169 434.707 c 0,45,46
 408.094 427.932 408.094 427.932 422.833 417.258 c 0,47,48
 455.044 393.93 455.044 393.93 476.63 340.518 c 0,49,50
 497.948 287.765 497.948 287.765 497.948 224 c 0,51,52
 497.948 136.432 497.948 136.432 460.932 77.6465 c 0,53,54
 401.023 -17.4902 401.023 -17.4902 301.218 -18 c 0,55,56
 191.033 -18.5625 191.033 -18.5625 130.394 92.6172 c 0,57,58
 115.02 120.804 115.02 120.804 98.625 173.785 c 0,59,60
 83.3867 223.032 83.3867 223.032 79.7275 252.76 c 0,61,62
 75.9922 283.111 75.9922 283.111 75.1621 307.655 c 0,0,1
196.348 226 m 0,39,40
 196.348 188.212 196.348 188.212 211.247 161.124 c 128,-1,41
 226.146 134.035 226.146 134.035 247.68 122.259 c 128,-1,42
 269.212 110.482 269.212 110.482 294.684 110.482 c 1,0,0
 294.456 110.482 294.456 110.482 295.318 110.487 c 0,1,2
 296.182 110.492 296.182 110.492 309.604 110.716 c 128,-1,43
 323.027 110.939 323.027 110.939 345.413 124.285 c 128,-1,44
 367.799 137.631 367.799 137.631 382.474 165.786 c 128,-1,45
 397.148 193.94 397.148 193.94 397.148 233 c 0,46,47
 397.148 274 397.148 274 376.29 301.375 c 128,-1,48
 355.433 328.75 355.433 328.75 325.645 338.443 c 0,0,0
 319.44 340.462 319.44 340.462 307.41 340.462 c 0,0,0
 302.799 340.462 302.799 340.462 294.769 338.843 c 128,-1,51
 286.737 337.224 286.737 337.224 269.741 330.842 c 0,52,53
 243.349 320.934 243.349 320.934 219.848 286.297 c 128,-1,54
 196.348 251.661 196.348 251.661 196.348 226 c 0,39,40
EndSplineSet
EndChar

StartChar: seven
Encoding: 55 55 26
Width: 431
GlyphClass: 2
Flags: HW
LayerCount: 2
Fore
SplineSet
88.6865 711.055 m 1,0,-1
 413.486 709.945 l 1,1,-1
 413.486 609.245 l 1,2,-1
 415.452 601.875 l 1,3,-1
 189.391 -20 l 1,4,-1
 55.4131 -20 l 1,5,-1
 281.812 578 l 1,6,-1
 88.6865 578 l 1,7,-1
 88.6865 711.055 l 1,0,-1
EndSplineSet
EndChar

StartChar: eight
Encoding: 56 56 27
Width: 499
GlyphClass: 2
Flags: HW
LayerCount: 2
Fore
SplineSet
108.49 601.536 m 128,-1,2
 125.808 649.957 125.808 649.957 153.73 676.839 c 0,3,4
 202.675 723.958 202.675 723.958 237.25 724.229 c 130,-1,5
 273.481 724.506 l 2,0,0
 340.795 724.508 340.795 724.508 387.998 682.276 c 0,6,7
 418.702 654.805 418.702 654.805 438.015 605.402 c 128,-1,8
 457.326 555.999 457.326 555.999 456.282 504.335 c 0,9,10
 455.404 460.889 455.404 460.889 414.644 387.606 c 1,0,0
 487.5 317.752 487.5 317.752 487.5 207 c 0,13,14
 487.5 113.753 487.5 113.753 452.883 58.6475 c 0,15,16
 423.385 11.6904 423.385 11.6904 376.643 -12.6553 c 128,-1,17
 329.9 -37 329.9 -37 278.7 -37 c 0,18,19
 223.195 -37 223.195 -37 174.402 -8.93359 c 128,-1,20
 125.61 19.1328 125.61 19.1328 96.7158 71.6689 c 0,21,22
 67.5 124.788 67.5 124.788 67.5 206 c 0,23,24
 67.5 311.012 67.5 311.012 136.217 381.855 c 1,0,0
 93.6797 445.948 93.6797 445.948 92.3105 504.501 c 0,0,1
 91.1729 553.115 91.1729 553.115 108.49 601.536 c 128,-1,2
180.3 212 m 0,27,28
 180.3 174.017 180.3 174.017 194.9 146.428 c 128,-1,29
 209.502 118.84 209.502 118.84 231.479 106.391 c 128,-1,30
 253.457 93.9424 253.457 93.9424 266.678 93.7227 c 129,-1,31
 279.897 93.502 279.897 93.502 280.729 93.4922 c 0,32,33
 281.56 93.4834 281.56 93.4834 281.896 93.4834 c 0,0,0
 307.359 93.4834 307.359 93.4834 329.2 105.664 c 128,-1,32
 351.041 117.844 351.041 117.844 365.271 145.372 c 128,-1,33
 379.5 172.899 379.5 172.899 379.5 212 c 0,34,35
 379.5 253.674 379.5 253.674 360.442 281.827 c 128,-1,36
 341.385 309.98 341.385 309.98 312.805 318.505 c 0,37,38
 300.917 322.05 300.917 322.05 280.715 322.05 c 0,0,0
 260.195 322.05 260.195 322.05 244.438 316.684 c 0,39,40
 216.271 307.09 216.271 307.09 198.285 279.942 c 128,-1,41
 180.3 252.794 180.3 252.794 180.3 212 c 0,27,28
295.013 438.702 m 0,0,0
 318.786 444.801 318.786 444.801 334.343 467.143 c 128,-1,44
 349.9 489.484 349.9 489.484 349.9 525 c 0,45,46
 349.9 551.635 349.9 551.635 339.087 570.716 c 128,-1,47
 328.274 589.797 328.274 589.797 311.517 598.659 c 128,-1,48
 294.759 607.521 294.759 607.521 275.547 607.521 c 1,0,0
 275.775 607.521 275.775 607.521 274.936 607.516 c 0,1,2
 274.095 607.51 274.095 607.51 263.715 607.29 c 128,-1,49
 253.334 607.07 253.334 607.07 236.393 597.936 c 128,-1,50
 219.452 588.801 219.452 588.801 208.276 569.642 c 128,-1,51
 197.1 550.482 197.1 550.482 197.1 524 c 0,52,53
 197.1 487.604 197.1 487.604 212.815 465.505 c 128,-1,54
 228.529 443.406 228.529 443.406 252.387 437.788 c 0,0,0
 256.946 436.714 256.946 436.714 270.08 436.714 c 0,0,0
 287.263 436.714 287.263 436.714 295.013 438.702 c 0,0,0
EndSplineSet
EndChar

StartChar: nine
Encoding: 57 57 28
Width: 463
GlyphClass: 2
Flags: HW
LayerCount: 2
Fore
SplineSet
173.104 501 m 0,0,1
 173.104 456.883 173.104 456.883 191.322 432.484 c 128,-1,2
 209.541 408.085 209.541 408.085 224.242 406.098 c 128,-1,3
 238.943 404.111 238.943 404.111 244.679 404.111 c 0,0,0
 264.882 404.111 264.882 404.111 287.483 414.659 c 128,-1,4
 310.085 425.206 310.085 425.206 323.447 447.895 c 0,5,6
 339.032 474.359 339.032 474.359 340.282 508.613 c 0,0,0
 341.301 536.56 341.301 536.56 328.319 560.682 c 128,-1,9
 315.337 584.804 315.337 584.804 297.934 593.738 c 128,-1,10
 280.53 602.673 280.53 602.673 261.368 602.673 c 0,0,0
 258.831 602.673 258.831 602.673 246.34 601.941 c 128,-1,11
 233.85 601.209 233.85 601.209 215.398 590.306 c 128,-1,12
 196.948 579.403 196.948 579.403 185.025 555.808 c 128,-1,13
 173.104 532.213 173.104 532.213 173.104 501 c 0,0,1
95.249 625.323 m 0,1,2
 123.797 680.771 123.797 680.771 167.683 705.707 c 0,3,4
 210.438 730 210.438 730 259.504 730 c 0,5,6
 308.634 730 308.634 730 350.638 705.643 c 0,7,8
 393.758 680.637 393.758 680.637 421.479 625.085 c 0,9,10
 447.917 572.104 447.917 572.104 448.328 500.168 c 0,11,12
 448.351 496.439 448.351 496.439 448.286 495.202 c 0,13,14
 443.391 399.982 443.391 399.982 399.677 254.948 c 0,15,16
 356.215 110.754 356.215 110.754 290.365 -11.1895 c 2,17,-1
 285.562 -20.083 l 1,18,-1
 142.403 -18.6855 l 1,19,-1
 217.963 104.097 l 2,20,21
 234.154 131.083 234.154 131.083 259.696 185.606 c 0,22,23
 284.386 238.309 284.386 238.309 299.12 286.366 c 1,24,25
 273.713 276 273.713 276 241.903 276 c 0,26,27
 197.481 276 197.481 276 159.013 298.95 c 0,28,29
 119.719 322.393 119.719 322.393 93.2588 373.657 c 0,30,31
 66.7041 425.108 66.7041 425.108 66.7041 495 c 0,32,33
 66.7041 569.88 66.7041 569.88 95.249 625.323 c 0,1,2
EndSplineSet
EndChar

StartChar: colon
Encoding: 58 58 29
Width: 144
GlyphClass: 2
Flags: HW
LayerCount: 2
Fore
SplineSet
37.4834 463.684 m 128,-1,2
 57.3662 483.836 57.3662 483.836 69.0762 484.176 c 128,-1,3
 80.7861 484.517 80.7861 484.517 81.5439 484.517 c 0,0,0
 103.617 484.517 103.617 484.517 123.408 465.126 c 128,-1,4
 143.2 445.735 143.2 445.735 143.2 410 c 0,5,6
 143.2 373.665 143.2 373.665 123.309 352.833 c 128,-1,7
 103.417 332 103.417 332 80.4727 332 c 128,-1,8
 57.5283 332 57.5283 332 37.5645 352.234 c 128,-1,9
 17.5996 372.468 17.5996 372.468 17.5996 409 c 0,0,1
 17.5996 443.532 17.5996 443.532 37.4834 463.684 c 128,-1,2
36.1523 132.001 m 128,-1,12
 55.5049 152.832 55.5049 152.832 67.5449 153.174 c 128,-1,13
 79.585 153.517 79.585 153.517 80.332 153.517 c 0,0,0
 103.057 153.517 103.057 153.517 122.329 133.442 c 128,-1,14
 141.6 113.367 141.6 113.367 141.6 77 c 0,15,16
 141.6 39.2021 141.6 39.2021 122.312 17.1016 c 128,-1,17
 103.023 -5 103.023 -5 79.2705 -5 c 128,-1,18
 55.5176 -5 55.5176 -5 36.1582 16.5098 c 128,-1,19
 16.7998 38.0186 16.7998 38.0186 16.7998 75 c 0,10,11
 16.7998 111.171 16.7998 111.171 36.1523 132.001 c 128,-1,12
EndSplineSet
EndChar

StartChar: semicolon
Encoding: 59 59 30
Width: 138
GlyphClass: 2
Flags: HW
LayerCount: 2
Fore
SplineSet
32.4033 469.684 m 128,-1,2
 51.9072 490 51.9072 490 75.1484 490 c 128,-1,3
 98.3896 490 98.3896 490 118.045 470.891 c 128,-1,4
 137.7 451.781 137.7 451.781 137.7 416 c 0,5,6
 137.7 379.829 137.7 379.829 118.27 358.915 c 128,-1,7
 98.8398 338 98.8398 338 75.373 338 c 128,-1,8
 51.9072 338 51.9072 338 32.4033 358.316 c 128,-1,9
 12.9004 378.633 12.9004 378.633 12.9004 414 c 0,0,1
 12.9004 449.367 12.9004 449.367 32.4033 469.684 c 128,-1,2
36.8594 147.655 m 0,2,3
 55.6006 167.828 55.6006 167.828 78.5283 168.494 c 0,4,5
 79.2344 168.516 79.2344 168.516 79.9395 168.516 c 0,6,7
 102.736 168.516 102.736 168.516 120.896 147.761 c 0,8,9
 140.1 125.813 140.1 125.813 140.1 88 c 0,10,11
 140.1 64.7305 140.1 64.7305 131.905 41.833 c 0,12,13
 124.35 20.7197 124.35 20.7197 116.826 8.37891 c 0,14,15
 109.037 -4.40039 109.037 -4.40039 91.9766 -20.1143 c 2,16,-1
 73.8809 -36.7012 l 2,17,18
 70.127 -40.0537 70.127 -40.0537 55.5859 -49.6758 c 0,19,20
 43.4131 -57.7314 43.4131 -57.7314 35.2295 -43.8818 c 0,21,22
 27.0469 -30.0322 27.0469 -30.0322 36.7861 -17.8574 c 0,23,24
 39.1572 -14.8945 39.1572 -14.8945 42.8535 -6.42285 c 0,25,26
 47.3867 3.96582 47.3867 3.96582 51.5547 15.333 c 0,27,28
 54.3418 22.9326 54.3418 22.9326 56.3262 29.4902 c 1,29,30
 43.7773 31.7109 43.7773 31.7109 33.2529 43.3516 c 0,31,32
 20.0488 57.957 20.0488 57.957 17.4678 78.9307 c 0,33,34
 16.8486 83.9707 16.8486 83.9707 16.8486 89.3262 c 0,35,36
 16.8486 89.7686 16.8486 89.7686 16.8779 90.8975 c 0,37,38
 16.9082 92.0273 16.9082 92.0273 16.9092 92.4756 c 0,39,40
 16.959 126.234 16.959 126.234 36.8594 147.655 c 0,2,3
EndSplineSet
EndChar

StartChar: less
Encoding: 60 60 31
Width: 553
GlyphClass: 2
Flags: HW
LayerCount: 2
Fore
SplineSet
503.463 628.177 m 1,0,-1
 503.463 483.617 l 1,1,-1
 321.49 370.338 l 1,0,0
 499.557 250.903 l 1,1,-1
 498.408 103.021 l 1,2,-1
 178.994 313.45 l 1,5,-1
 91.1709 375.558 l 1,6,-1
 166.092 420.001 l 1,7,-1
 503.463 628.177 l 1,0,-1
EndSplineSet
EndChar

StartChar: equal
Encoding: 61 61 32
Width: 598
GlyphClass: 2
Flags: HW
LayerCount: 2
Fore
SplineSet
142.16 309.044 m 1,0,-1
 527.767 307.954 l 1,1,-1
 525.439 179.956 l 1,2,-1
 139.833 181.046 l 1,3,-1
 142.16 309.044 l 1,0,-1
138.231 547.046 m 1,4,-1
 523.842 545.956 l 1,5,-1
 526.169 417.954 l 1,6,-1
 140.559 419.044 l 1,7,-1
 138.231 547.046 l 1,4,-1
EndSplineSet
EndChar

StartChar: greater
Encoding: 62 62 33
Width: 558
GlyphClass: 2
Flags: HW
LayerCount: 2
Fore
SplineSet
451.908 420.001 m 1,1,-1
 526.83 375.558 l 1,2,-1
 439.006 313.45 l 1,3,-1
 119.592 103.021 l 1,4,-1
 118.443 250.903 l 1,5,-1
 296.51 370.338 l 1,0,0
 114.537 483.617 l 1,1,-1
 114.537 628.177 l 1,2,-1
 451.908 420.001 l 1,1,-1
EndSplineSet
EndChar

StartChar: question
Encoding: 63 63 34
Width: 492
GlyphClass: 2
Flags: HW
LayerCount: 2
Fore
SplineSet
216.857 644.243 m 128,-1,2
 202.486 636.485 202.486 636.485 194.371 624.577 c 128,-1,3
 186.256 612.669 186.256 612.669 173.995 596.321 c 2,4,-1
 159.6 577.127 l 1,5,-1
 108.904 681.233 l 1,6,-1
 116.764 692.287 l 2,5,6
 144.754 731.648 144.754 731.648 179.909 750.324 c 128,-1,7
 215.064 769 215.064 769 263.123 769 c 0,8,9
 340.676 769 340.676 769 387.499 713.815 c 128,-1,10
 434.322 658.631 434.322 658.631 434.322 568 c 0,11,12
 434.322 521.158 434.322 521.158 418.487 482.67 c 128,-1,13
 402.652 444.182 402.652 444.182 368.234 400.109 c 2,14,-1
 334.782 356.305 l 2,15,16
 307.695 319.7 307.695 319.7 303.409 302.803 c 128,-1,17
 299.123 285.905 299.123 285.905 299.123 237 c 2,18,-1
 299.123 235.827 l 1,19,-1
 295.836 200.896 l 1,20,-1
 187.404 193.909 l 1,21,-1
 188.727 248.303 l 2,21,22
 188.727 310.603 188.727 310.603 202.89 347.118 c 128,-1,23
 217.053 383.633 217.053 383.633 249.148 424.808 c 2,24,-1
 283.707 471.005 l 1,25,26
 293.846 483.21 l 130,-1,27
 303.984 495.415 303.984 495.415 309.866 505.065 c 128,-1,28
 315.749 514.716 315.749 514.716 320.201 522.849 c 128,-1,29
 324.652 530.982 324.652 530.982 326.768 538.914 c 128,-1,30
 328.883 546.846 328.883 546.846 328.883 553.2 c 0,0,0
 328.883 554.082 328.883 554.082 328.825 555.163 c 0,1,2
 328.769 556.244 328.769 556.244 328.753 556.906 c 0,31,32
 327.574 610.565 327.574 610.565 307.233 631.283 c 0,33,34
 286.894 652 286.894 652 252.723 652 c 0,0,1
 231.229 652 231.229 652 216.857 644.243 c 128,-1,2
200.074 117.001 m 128,-1,35
 219.428 137.832 219.428 137.832 231.468 138.174 c 128,-1,36
 243.508 138.517 243.508 138.517 244.255 138.517 c 0,0,0
 266.979 138.517 266.979 138.517 286.252 118.442 c 128,-1,37
 305.522 98.3672 305.522 98.3672 305.522 62 c 0,38,39
 305.522 24.2021 305.522 24.2021 286.234 2.10059 c 128,-1,40
 266.946 -20 266.946 -20 243.193 -20 c 128,-1,41
 219.439 -20 219.439 -20 200.081 1.50977 c 128,-1,42
 180.723 23.0186 180.723 23.0186 180.723 60 c 0,33,34
 180.723 96.1709 180.723 96.1709 200.074 117.001 c 128,-1,35
EndSplineSet
EndChar

StartChar: at
Encoding: 64 64 35
Width: 815
GlyphClass: 2
Flags: HW
LayerCount: 2
Fore
SplineSet
617.533 43.9229 m 0,0,1
 602.595 33.7852 602.595 33.7852 576.396 21.3105 c 0,2,3
 549.432 8.4707 549.432 8.4707 516.761 3.16699 c 0,4,5
 484.935 -2 484.935 -2 442.3 -2 c 0,6,7
 387.511 -2 387.511 -2 339.285 19.6797 c 0,8,9
 290.911 41.4277 290.911 41.4277 257.475 77.3281 c 0,10,11
 224.59 112.637 224.59 112.637 200.563 157.951 c 0,12,13
 176.383 203.555 176.383 203.555 165.303 252.561 c 0,14,15
 154.3 301.229 154.3 301.229 154.3 350 c 0,16,17
 154.3 496.301 154.3 496.301 225.203 602.796 c 0,18,19
 263.64 660.526 263.64 660.526 330.533 695.455 c 0,20,21
 396.692 730 396.692 730 463.1 730 c 0,22,23
 523.914 730 523.914 730 580.621 708.109 c 0,24,25
 639.383 685.426 639.383 685.426 674.421 647.066 c 0,26,27
 720.303 596.837 720.303 596.837 742.845 523.143 c 0,28,29
 764.7 451.693 764.7 451.693 764.7 371 c 0,30,31
 764.7 310.256 764.7 310.256 753.217 273.265 c 0,32,33
 740.953 233.765 740.953 233.765 705.651 194.968 c 0,34,35
 675.923 162.296 675.923 162.296 633.507 154.228 c 0,36,37
 627.358 153.059 627.358 153.059 621.354 152.435 c 1,38,-1
 673.175 86.3359 l 1,39,-1
 656.461 73.1035 l 2,40,41
 632.007 53.7441 632.007 53.7441 617.533 43.9229 c 0,0,1
504.7 544.686 m 1,42,-1
 504.7 555 l 1,43,-1
 596.319 555 l 1,44,-1
 591.056 465.519 l 2,45,46
 588.203 417.021 588.203 417.021 587.465 403.17 c 0,47,48
 586.78 390.333 586.78 390.333 586.78 373.18 c 0,49,50
 586.78 361.59 586.78 361.59 587.093 348.079 c 0,51,52
 587.845 315.668 587.845 315.668 591.52 281.832 c 1,53,54
 596.139 267.618 596.139 267.618 615.261 263.742 c 0,55,56
 619.909 262.8 619.909 262.8 624.124 262.8 c 0,57,58
 639.513 262.8 639.513 262.8 650.186 276.143 c 0,59,60
 667.896 298.279 667.896 298.279 671.877 310.527 c 0,61,62
 675.892 322.883 675.892 322.883 675.9 367.078 c 0,63,64
 675.9 367.594 675.9 367.594 675.904 368.593 c 0,65,66
 675.909 369.592 675.909 369.592 675.909 370.114 c 0,67,68
 675.909 486.653 675.909 486.653 616.856 556.528 c 0,69,70
 592.29 585.598 592.29 585.598 550.842 601.366 c 0,71,72
 507.119 618 507.119 618 463.9 618 c 0,73,74
 413.382 618 413.382 618 364.242 593.431 c 0,75,76
 316.09 569.354 316.09 569.354 291.781 529.804 c 0,77,78
 247.9 458.41 247.9 458.41 247.9 350 c 0,79,80
 247.9 313.892 247.9 313.892 261.133 273 c 0,81,82
 274.632 231.282 274.632 231.282 299.117 193.612 c 0,83,84
 323.043 156.804 323.043 156.804 361.329 131.713 c 0,85,86
 399.009 107.021 399.009 107.021 442.651 105.995 c 0,87,88
 454.594 105.714 454.594 105.714 458.757 105.714 c 0,89,90
 478.091 105.714 478.091 105.714 494.571 107.431 c 0,91,92
 517.037 109.771 517.037 109.771 531.156 114.749 c 0,93,94
 545.865 119.935 545.865 119.935 558.608 126.493 c 0,95,96
 570.303 132.514 570.303 132.514 579.084 139.69 c 2,97,-1
 594.68 152.437 l 1,98,99
 575.526 154.548 575.526 154.548 558.196 162.814 c 0,100,101
 531.761 175.423 531.761 175.423 516.591 198.812 c 1,102,103
 489.512 180.635 489.512 180.635 457.527 177.559 c 0,104,105
 450.382 176.872 450.382 176.872 443.375 176.872 c 0,106,107
 411.075 176.872 411.075 176.872 381.958 191.431 c 0,108,109
 345.413 209.703 345.413 209.703 320.663 255.265 c 0,110,111
 295.998 300.67 295.998 300.67 295.104 362.595 c 0,112,113
 295.051 366.285 295.051 366.285 295.051 368.467 c 0,114,115
 295.051 413.271 295.051 413.271 307.562 450.284 c 0,116,117
 321.1 490.334 321.1 490.334 344.154 513.965 c 0,118,119
 366.316 536.681 366.316 536.681 393.75 548.849 c 0,120,121
 418.17 559.68 418.17 559.68 444.297 559.68 c 0,122,123
 447.843 559.68 447.843 559.68 451.416 559.48 c 0,124,125
 480.705 557.841 480.705 557.841 504.7 544.686 c 1,42,-1
385.5 366 m 0,77,78
 385.5 338.906 385.5 338.906 395.992 318.637 c 128,-1,79
 406.484 298.367 406.484 298.367 421.709 291.136 c 128,-1,80
 436.933 283.904 436.933 283.904 452.746 283.904 c 1,0,0
 452.337 283.904 452.337 283.904 453.889 283.93 c 0,1,2
 455.441 283.954 455.441 283.954 463.668 284.35 c 128,-1,81
 471.896 284.745 471.896 284.745 485.519 297.517 c 128,-1,82
 499.142 310.288 499.142 310.288 503.517 331.448 c 0,83,84
 504.38 335.62 504.38 335.62 504.38 357.08 c 0,0,0
 504.38 362.24 504.38 362.24 504.166 378.501 c 128,-1,85
 503.953 394.763 503.953 394.763 503.312 405.128 c 1,0,0
 497.458 428.03 497.458 428.03 484.506 441.585 c 128,-1,88
 471.553 455.14 471.553 455.14 463.577 455.331 c 128,-1,89
 455.6 455.522 455.6 455.522 454.812 455.522 c 0,0,0
 438.215 455.522 438.215 455.522 422.502 447.274 c 128,-1,90
 406.79 439.025 406.79 439.025 396.146 417.654 c 128,-1,91
 385.5 396.282 385.5 396.282 385.5 366 c 0,77,78
EndSplineSet
EndChar

StartChar: A
Encoding: 65 65 36
Width: 606
GlyphClass: 2
Flags: HW
LayerCount: 2
Fore
SplineSet
378.073 647.125 m 1,0,-1
 614.454 -19 l 1,1,-1
 503.718 -19 l 1,2,-1
 434.918 163 l 1,3,-1
 235.445 163 l 1,4,-1
 170.646 -19 l 1,5,-1
 60.0811 -19 l 1,6,-1
 291.861 663.621 l 1,7,-1
 329.857 782.365 l 1,8,-1
 378.073 647.125 l 1,0,-1
390.595 286 m 1,9,-1
 331.971 460.744 l 1,10,-1
 277.292 286 l 1,11,-1
 390.595 286 l 1,9,-1
EndSplineSet
EndChar

StartChar: B
Encoding: 66 66 37
Width: 465
GlyphClass: 2
Flags: HW
LayerCount: 2
Fore
SplineSet
70.8184 708 m 1,0,-1
 251.663 708 l 1,1,-1
 254.001 706.051 l 1,2,3
 290.837 705.823 290.837 705.823 321.014 687.487 c 0,4,5
 353.383 667.818 353.383 667.818 372.129 635.814 c 0,6,7
 390.43 604.569 390.43 604.569 397.979 565.157 c 0,8,9
 402.547 541.308 402.547 541.308 402.547 518.314 c 0,10,11
 402.547 503.309 402.547 503.309 400.601 488.712 c 0,12,13
 395.566 450.959 395.566 450.959 376.071 418.089 c 0,14,15
 367.879 404.276 367.879 404.276 357.405 393.102 c 1,16,17
 376.343 383.956 376.343 383.956 392.192 366.51 c 0,18,19
 422.209 333.469 422.209 333.469 435.179 285.391 c 0,20,21
 445.363 247.643 445.363 247.643 445.363 205.504 c 0,22,23
 445.363 195.419 445.363 195.419 444.778 185.09 c 0,24,25
 441.748 131.519 441.748 131.519 423.061 85.8867 c 0,26,27
 403.736 38.7012 403.736 38.7012 362.917 8.75195 c 0,28,29
 324.904 -19.1377 324.904 -19.1377 275.199 -19.1377 c 0,30,31
 272.137 -19.1377 272.137 -19.1377 268.979 -19.0293 c 2,32,-1
 261.214 -19.9502 l 1,33,-1
 110.019 -20 l 1,34,-1
 110.019 -19.4121 l 1,35,-1
 70.8184 -20.4121 l 1,36,-1
 70.8184 708 l 1,0,-1
172.418 596 m 1,37,-1
 172.418 427 l 1,38,-1
 244.866 427 l 1,39,40
 267.738 431.321 267.738 431.321 282.029 448.797 c 0,41,42
 296.501 466.493 296.501 466.493 298.964 489.188 c 0,43,44
 299.885 497.684 299.885 497.684 299.885 506.111 c 0,45,46
 299.885 522.959 299.885 522.959 296.194 539.682 c 0,47,48
 291.218 562.229 291.218 562.229 274.663 578.146 c 0,49,50
 257.986 594.183 257.986 594.183 233.586 595.008 c 2,51,-1
 218.019 595.533 l 1,52,-1
 172.418 596 l 1,37,-1
218.019 596 m 1,53,-1
 218.019 616 l 1,54,-1
 234.019 596 l 1,55,-1
 218.019 596 l 1,53,-1
172.418 314 m 1,56,-1
 172.418 115 l 1,57,-1
 278.613 114.997 l 2,58,59
 303.407 115.791 303.407 115.791 318.938 134.428 c 0,60,61
 334.776 153.435 334.776 153.435 337.321 181.271 c 0,62,63
 338.242 191.339 338.242 191.339 338.242 201.349 c 0,64,65
 338.242 222.612 338.242 222.612 334.083 243.716 c 0,66,67
 328.451 272.29 328.451 272.29 310.467 292.688 c 0,68,69
 293.258 312.208 293.258 312.208 269.586 313.007 c 2,70,-1
 254.019 313.533 l 1,71,-1
 172.418 314 l 1,56,-1
254.019 314 m 1,72,-1
 254.019 334 l 1,73,-1
 270.019 314 l 1,74,-1
 254.019 314 l 1,72,-1
EndSplineSet
EndChar

StartChar: C
Encoding: 67 67 38
Width: 625
GlyphClass: 2
Flags: HW
LayerCount: 2
Fore
SplineSet
540.214 689.109 m 0,0,1
 558.628 678.415 558.628 678.415 567.702 670.654 c 128,-1,2
 576.777 662.893 576.777 662.893 594.237 644.186 c 2,3,-1
 608.167 629.261 l 1,4,-1
 524.875 536.878 l 1,5,-1
 514.396 553.721 l 2,6,7
 506.187 566.914 506.187 566.914 472.058 580.983 c 128,-1,8
 437.928 595.052 437.928 595.052 412.894 596.012 c 0,9,10
 408.536 596.178 408.536 596.178 405.739 596.178 c 0,11,12
 349.552 596.178 349.552 596.178 294.103 553.141 c 128,-1,13
 238.652 510.104 238.652 510.104 211.924 438.541 c 0,14,15
 191.867 384.843 191.867 384.843 191.867 332.611 c 0,16,17
 191.867 292.082 191.867 292.082 211.713 226.59 c 128,-1,18
 231.56 161.098 231.56 161.098 308.983 116.128 c 0,19,20
 347.237 93.9092 347.237 93.9092 367.403 93.459 c 129,-1,21
 387.569 93.0088 387.569 93.0088 389.633 92.9785 c 128,-1,22
 391.697 92.9473 391.697 92.9473 392.526 92.9473 c 0,23,24
 431.891 92.9473 431.891 92.9473 468.034 109.376 c 128,-1,25
 504.179 125.806 504.179 125.806 539.114 158.084 c 2,26,-1
 550.827 168.905 l 1,27,-1
 619.139 73.5547 l 1,28,-1
 607.388 60.2012 l 2,29,30
 569.884 17.583 569.884 17.583 518.515 -6.10156 c 128,-1,31
 467.146 -29.7861 467.146 -29.7861 435.145 -32.1992 c 128,-1,32
 403.144 -34.6133 403.144 -34.6133 388.424 -34.6133 c 0,33,34
 356.757 -34.6133 356.757 -34.6133 320.123 -27.9443 c 128,-1,35
 283.49 -21.2764 283.49 -21.2764 254.882 -2.76953 c 0,36,37
 138.104 72.7764 138.104 72.7764 110.607 168.791 c 128,-1,38
 83.1113 264.805 83.1113 264.805 83.1113 323.162 c 0,39,40
 83.1113 406.22 83.1113 406.22 115.729 493.469 c 0,41,42
 157.069 604.041 157.069 604.041 235.566 663.217 c 128,-1,43
 314.063 722.394 314.063 722.394 400.188 722.394 c 0,44,45
 405.514 722.394 405.514 722.394 414.854 721.984 c 0,46,47
 489.223 718.725 489.223 718.725 540.214 689.109 c 0,0,1
EndSplineSet
EndChar

StartChar: D
Encoding: 68 68 39
Width: 549
GlyphClass: 2
Flags: HW
LayerCount: 2
Fore
SplineSet
203.881 712.333 m 0,0,0
 212.452 712.333 212.452 712.333 225.724 711.891 c 128,-1,2
 238.997 711.448 238.997 711.448 265.174 710.998 c 0,3,4
 313.635 710.166 313.635 710.166 356.062 692.488 c 128,-1,5
 398.488 674.81 398.488 674.81 426.683 645.976 c 128,-1,6
 454.875 617.143 454.875 617.143 472.307 589.905 c 128,-1,7
 489.739 562.667 489.739 562.667 500.298 534.553 c 0,8,9
 527.914 461.029 527.914 461.029 531.019 410.259 c 128,-1,10
 534.122 359.489 534.122 359.489 534.122 341.363 c 0,0,0
 534.122 279.188 534.122 279.188 518.753 213.117 c 128,-1,11
 503.383 147.046 503.383 147.046 459.469 85.7578 c 128,-1,12
 415.555 24.4697 415.555 24.4697 351.786 -2.93555 c 0,13,14
 334.9 -10.1914 334.9 -10.1914 291.816 -19.6953 c 2,15,16
 290.437 -20 l 1,17,-1
 289.036 -20 l 2,15,16
 276.374 -20 276.374 -20 253.174 -20.5 c 128,-1,17
 229.975 -21 229.975 -21 216.253 -21 c 128,-1,18
 202.533 -21 202.533 -21 171.231 -19.9971 c 2,19,-1
 76.2354 -20 l 1,20,-1
 76.2354 711 l 1,21,-1
 176.221 711 l 2,0,0
 186.975 712.333 186.975 712.333 203.881 712.333 c 0,0,0
409.382 468.571 m 0,22,23
 390.607 526.816 390.607 526.816 351.697 560.908 c 128,-1,24
 312.786 595 312.786 595 257.836 595 c 0,25,26
 253.734 595 253.734 595 233.464 595.333 c 128,-1,27
 213.192 595.667 213.192 595.667 203.523 595.667 c 0,0,0
 192.487 595.667 192.487 595.667 181.924 595.452 c 1,0,0
 184.146 102.922 l 1,0,0
 204.566 102.72 204.566 102.72 215.924 102.283 c 128,-1,31
 227.282 101.846 227.282 101.846 231.187 101.846 c 0,0,0
 252.939 101.846 252.939 101.846 280.608 106.543 c 128,-1,32
 308.279 111.24 308.279 111.24 334.141 124.49 c 0,33,34
 369.631 142.675 369.631 142.675 391.625 187.744 c 128,-1,35
 413.619 232.813 413.619 232.813 418.284 276.742 c 128,-1,36
 422.949 320.67 422.949 320.67 422.949 354.281 c 0,0,0
 422.949 372.146 422.949 372.146 420.883 405.721 c 128,-1,37
 418.816 439.297 418.816 439.297 409.382 468.571 c 0,22,23
EndSplineSet
EndChar

StartChar: E
Encoding: 69 69 40
Width: 434
GlyphClass: 2
Flags: HW
LayerCount: 2
Fore
SplineSet
75.5 713 m 1,0,-1
 400.3 713 l 1,1,-1
 400.3 588 l 1,2,-1
 181.1 588 l 1,3,-1
 181.1 432 l 1,4,-1
 337.9 432 l 1,5,-1
 337.9 309 l 1,6,-1
 181.1 309 l 1,7,-1
 181.1 102 l 1,8,-1
 407.5 102 l 1,9,-1
 407.5 -20 l 1,10,-1
 75.5 -20 l 1,11,-1
 75.5 713 l 1,0,-1
EndSplineSet
EndChar

StartChar: F
Encoding: 70 70 41
Width: 422
GlyphClass: 2
Flags: HW
LayerCount: 2
Fore
SplineSet
77.2998 711 m 1,0,-1
 391.7 711 l 1,1,-1
 391.7 589 l 1,2,-1
 183.7 589 l 1,0,0
 183.7 432 l 1,0,0
 339.7 432 l 1,1,-1
 339.7 309 l 1,2,-1
 183.7 309 l 1,0,0
 183.7 -20 l 1,1,-1
 77.2998 -20 l 1,2,-1
 77.2998 711 l 1,0,-1
EndSplineSet
EndChar

StartChar: G
Encoding: 71 71 42
Width: 633
GlyphClass: 2
Flags: HW
LayerCount: 2
Fore
SplineSet
623.985 115.96 m 2,0,1
 623.985 89.0254 623.985 89.0254 602.896 74.5244 c 1,2,3
 565.879 32.1572 565.879 32.1572 515.083 8.2168 c 128,-1,4
 464.287 -15.7246 464.287 -15.7246 430.006 -18.9932 c 128,-1,5
 395.725 -22.2607 395.725 -22.2607 377.565 -22.2607 c 0,6,7
 349.181 -22.2607 349.181 -22.2607 313.78 -16.2461 c 128,-1,8
 278.379 -10.2314 278.379 -10.2314 250.189 8.26562 c 0,9,10
 174.142 58.1631 174.142 58.1631 130.507 135.479 c 128,-1,11
 86.8711 212.795 86.8711 212.795 82.9355 263.296 c 128,-1,12
 79.001 313.798 79.001 313.798 79.001 332.592 c 0,13,14
 79.001 395.127 79.001 395.127 97.5635 467.521 c 128,-1,15
 116.126 539.916 116.126 539.916 159.512 603.625 c 128,-1,16
 202.897 667.334 202.897 667.334 266.479 703.782 c 128,-1,17
 330.061 740.23 330.061 740.23 398.681 740.23 c 0,18,19
 404.438 740.23 404.438 740.23 410.128 739.988 c 0,20,21
 483.945 736.846 483.945 736.846 535.672 706.053 c 0,22,23
 555.012 694.539 555.012 694.539 563.574 687.216 c 128,-1,24
 572.137 679.893 572.137 679.893 589.598 661.186 c 2,25,-1
 603.418 646.378 l 1,26,-1
 519.51 551.834 l 1,27,-1
 509.181 570.706 l 2,28,29
 501.899 584.008 501.899 584.008 467.311 597.661 c 128,-1,30
 432.723 611.314 432.723 611.314 408.02 613.024 c 0,31,32
 405.818 613.177 405.818 613.177 401.174 613.177 c 0,33,34
 344.989 613.177 344.989 613.177 289.346 569.535 c 128,-1,35
 233.703 525.893 233.703 525.893 207.308 454.607 c 0,36,37
 187.228 400.374 187.228 400.374 187.228 346.839 c 0,38,39
 187.228 305.784 187.228 305.784 207.229 239.444 c 128,-1,40
 227.231 173.104 227.231 173.104 304.45 127.064 c 0,41,42
 339.897 105.931 339.897 105.931 359.619 105.47 c 129,-1,43
 379.339 105.009 379.339 105.009 381.415 104.977 c 128,-1,44
 383.493 104.944 383.493 104.944 384.327 104.944 c 0,45,46
 421.769 104.944 421.769 104.944 455.043 119.675 c 128,-1,47
 488.317 134.406 488.317 134.406 519.425 159.859 c 1,48,-1
 521.925 270 l 1,49,-1
 411.768 270 l 1,50,-1
 412.999 383.912 l 1,51,-1
 624.85 385.09 l 1,52,-1
 623.985 115.96 l 2,0,1
EndSplineSet
EndChar

StartChar: H
Encoding: 72 72 43
Width: 567
GlyphClass: 2
Flags: HW
LayerCount: 2
Fore
SplineSet
431.8 714 m 1,0,-1
 536.6 714 l 1,1,-1
 536.6 -20 l 1,2,-1
 431.8 -20 l 1,3,-1
 431.8 291.061 l 1,0,0
 199.8 291.939 l 1,0,0
 199.8 -20 l 1,1,-1
 93.4004 -20 l 1,2,-1
 93.4004 710 l 1,3,-1
 198.782 710 l 1,4,-1
 199.799 617.137 l 1,10,-1
 199.8 414 l 1,0,0
 431.8 414 l 1,0,0
 431.8 714 l 1,0,-1
EndSplineSet
EndChar

StartChar: I
Encoding: 73 73 44
Width: 186
GlyphClass: 2
Flags: HW
LayerCount: 2
Fore
SplineSet
51.0771 716 m 1,0,-1
 155.078 716 l 1,1,-1
 155.923 -19 l 1,2,-1
 51.9229 -19 l 1,3,-1
 51.0771 716 l 1,0,-1
EndSplineSet
EndChar

StartChar: J
Encoding: 74 74 45
Width: 355
GlyphClass: 2
Flags: HW
LayerCount: 2
Fore
SplineSet
136.753 64.8438 m 129,-1,1
 149.893 64.0127 149.893 64.0127 152.227 63.9131 c 128,-1,2
 154.56 63.8135 154.56 63.8135 155.504 63.8135 c 0,3,4
 179.073 63.8135 179.073 63.8135 199.1 79.3105 c 128,-1,5
 219.126 94.8076 219.126 94.8076 233.022 133.022 c 128,-1,6
 246.919 171.237 246.919 171.237 246.919 222.415 c 0,7,8
 246.919 225.022 246.919 225.022 246.883 227.683 c 2,9,-1
 241.042 720 l 1,10,-1
 345.782 720 l 1,11,-1
 353.276 222.474 l 2,12,13
 353.409 216.67 353.409 216.67 353.409 210.893 c 0,14,15
 353.409 143.58 353.409 143.58 334.34 86.0635 c 128,-1,16
 315.271 28.5469 315.271 28.5469 281.623 -4.77441 c 128,-1,17
 247.975 -38.0947 247.975 -38.0947 215.148 -50.1367 c 128,-1,18
 182.323 -62.1787 182.323 -62.1787 155.54 -62.1787 c 0,19,20
 140.708 -62.1787 140.708 -62.1787 112.193 -56.667 c 128,-1,21
 83.6787 -51.1553 83.6787 -51.1553 48.1514 -24.0762 c 2,22,-1
 35.3994 -14.3574 l 1,23,-1
 83.6191 101.781 l 1,24,-1
 98.6484 88.2139 l 2,25,0
 123.613 65.6758 123.613 65.6758 136.753 64.8438 c 129,-1,1
EndSplineSet
EndChar

StartChar: K
Encoding: 75 75 46
Width: 574
GlyphClass: 2
Flags: HW
LayerCount: 2
Fore
SplineSet
389.913 706 m 1,0,-1
 522.598 706 l 1,1,-1
 286.83 362.526 l 1,0,0
 572.478 -22 l 1,1,-1
 436.748 -22 l 1,2,-1
 195.786 306.584 l 1,0,0
 195.786 -22 l 1,1,-1
 89.3867 -22 l 1,2,-1
 89.3867 706 l 1,3,-1
 195.786 706 l 1,4,-1
 195.786 416.059 l 1,0,0
 389.913 706 l 1,0,-1
EndSplineSet
EndChar

StartChar: L
Encoding: 76 76 47
Width: 426
GlyphClass: 2
Flags: HW
LayerCount: 2
Fore
SplineSet
177 105 m 1,0,0
 403.4 105 l 1,1,-1
 403.4 -18 l 1,2,-1
 70.5996 -18 l 1,3,-1
 70.5996 711.216 l 1,4,-1
 177 709.786 l 1,5,-1
 177 105 l 1,0,0
EndSplineSet
EndChar

StartChar: M
Encoding: 77 77 48
Width: 660
GlyphClass: 2
Flags: HW
LayerCount: 2
Fore
SplineSet
368.576 363.8 m 1,0,0
 610.396 776.38 l 1,1,-1
 641.393 -24 l 1,2,-1
 540.84 -24 l 1,3,-1
 517.9 402.418 l 1,0,0
 368.653 157.042 l 1,1,-1
 216.117 405.742 l 1,0,0
 193.16 -21 l 1,1,-1
 92.6084 -21 l 1,2,-1
 123.595 780.227 l 1,3,-1
 368.576 363.8 l 1,0,0
EndSplineSet
EndChar

StartChar: N
Encoding: 78 78 49
Width: 581
GlyphClass: 2
Flags: HW
LayerCount: 2
Fore
SplineSet
196.6 414.662 m 1,0,0
 196.6 -17 l 1,1,-1
 95 -17 l 1,2,-1
 95 752.241 l 1,3,-1
 450.743 256.599 l 1,0,0
 448.502 716 l 1,1,-1
 551 716 l 1,2,-1
 551 -80.3379 l 1,3,-1
 196.6 414.662 l 1,0,0
EndSplineSet
EndChar

StartChar: O
Encoding: 79 79 50
Width: 676
GlyphClass: 2
Flags: HW
LayerCount: 2
Fore
SplineSet
358.568 607.001 m 2,0,1
 315.808 606.964 315.808 606.964 282.063 585.646 c 128,-1,2
 248.317 564.329 248.317 564.329 227.842 529.137 c 128,-1,3
 207.366 493.944 207.366 493.944 196.484 449.507 c 128,-1,4
 185.602 405.07 185.602 405.07 185.602 360.367 c 0,5,6
 185.602 357.383 185.602 357.383 186 331.956 c 128,-1,7
 186.399 306.529 186.399 306.529 199.148 260.124 c 128,-1,8
 211.898 213.719 211.898 213.719 233.916 178.857 c 128,-1,9
 255.934 143.996 255.934 143.996 291.428 122.498 c 128,-1,10
 326.923 101 326.923 101 371.251 101 c 0,11,12
 416.541 101 416.541 101 454.072 122.617 c 128,-1,13
 491.604 144.234 491.604 144.234 514.728 179.562 c 128,-1,14
 537.852 214.889 537.852 214.889 550.563 261.161 c 128,-1,15
 563.276 307.433 563.276 307.433 563.47 332.206 c 128,-1,16
 563.662 356.979 563.662 356.979 563.662 358.282 c 0,17,18
 563.662 404.768 563.662 404.768 550.434 449.78 c 128,-1,19
 537.205 494.793 537.205 494.793 513.342 530.128 c 128,-1,20
 489.479 565.464 489.479 565.464 450.433 586.253 c 128,-1,21
 411.386 607.042 411.386 607.042 362.966 607.042 c 2,22,-1
 359.586 607.005 l 1,23,-1
 358.568 607.001 l 2,0,1
498.935 694.285 m 128,-1,25
 559.299 661.57 559.299 661.57 596.669 608.488 c 128,-1,26
 634.039 555.405 634.039 555.405 653.649 488.647 c 128,-1,27
 673.26 421.89 673.26 421.89 673.26 353.231 c 2,28,-1
 673.045 316.788 l 2,29,30
 672.829 280.345 672.829 280.345 653.028 213.463 c 128,-1,31
 633.228 146.582 633.228 146.582 596.271 94.0146 c 128,-1,32
 559.313 41.4463 559.313 41.4463 500.149 9.22266 c 128,-1,33
 440.985 -23 440.985 -23 369.651 -23 c 0,34,35
 299.78 -23 299.78 -23 242.908 9.3623 c 128,-1,36
 186.037 41.7236 186.037 41.7236 151.152 94.9014 c 128,-1,37
 116.268 148.079 116.268 148.079 97.7598 214.856 c 128,-1,38
 79.251 281.634 79.251 281.634 79.251 351.964 c 128,-1,39
 79.251 422.294 79.251 422.294 97.333 489.05 c 128,-1,40
 115.415 555.806 115.415 555.806 149.881 608.993 c 128,-1,41
 184.346 662.18 184.346 662.18 240.027 694.59 c 128,-1,42
 295.709 727 295.709 727 364.051 727 c 0,43,24
 438.57 727 438.57 727 498.935 694.285 c 128,-1,25
EndSplineSet
EndChar

StartChar: P
Encoding: 80 80 51
Width: 455
GlyphClass: 2
Flags: HW
LayerCount: 2
Fore
SplineSet
257.661 711.998 m 2,1,2
 259.415 712.034 259.415 712.034 261.1 712.034 c 0,0,0
 313.153 712.034 313.153 712.034 353.264 680.971 c 128,-1,3
 393.372 649.908 393.372 649.908 411.366 602.729 c 128,-1,4
 429.36 555.547 429.36 555.547 429.36 501.424 c 0,0,0
 429.36 500.117 429.36 500.117 429.138 471.676 c 128,-1,5
 428.914 443.234 428.914 443.234 409.878 395.091 c 128,-1,6
 390.843 346.947 390.843 346.947 349.579 315.457 c 128,-1,7
 308.316 283.967 308.316 283.967 253.254 283.967 c 0,0,0
 251.55 283.967 251.55 283.967 249.706 284.002 c 2,8,-1
 181.751 283.189 l 1,0,0
 181.751 -16.5703 l 1,1,-1
 76.1514 -19.4395 l 1,2,-1
 76.1514 713.097 l 1,3,-1
 257.661 711.998 l 2,1,2
181.751 589.824 m 1,0,0
 181.751 405 l 1,0,0
 252.151 405 l 2,14,15
 272.781 405 272.781 405 288.146 418.204 c 128,-1,16
 303.511 431.408 303.511 431.408 311.123 451.679 c 128,-1,17
 318.734 471.949 318.734 471.949 319.32 486.124 c 128,-1,18
 319.907 500.299 319.907 500.299 319.907 503.497 c 0,0,0
 319.907 524.409 319.907 524.409 313.862 543.301 c 128,-1,19
 307.817 562.192 307.817 562.192 292.993 575.596 c 128,-1,20
 278.17 589 278.17 589 256.881 589 c 2,21,-1
 181.751 589.824 l 1,0,0
EndSplineSet
EndChar

StartChar: Q
Encoding: 81 81 52
Width: 686
GlyphClass: 2
Flags: HW
LayerCount: 2
Fore
SplineSet
364.419 607.001 m 2,0,1
 321.657 606.964 321.657 606.964 287.88 585.626 c 128,-1,2
 254.103 564.289 254.103 564.289 233.271 529.114 c 128,-1,3
 212.44 493.938 212.44 493.938 201.944 449.602 c 128,-1,4
 191.449 405.265 191.449 405.265 191.449 360.572 c 0,0,0
 191.449 357.486 191.449 357.486 191.848 332.008 c 128,-1,5
 192.248 306.529 192.248 306.529 204.998 260.124 c 128,-1,6
 217.747 213.719 217.747 213.719 239.765 178.857 c 128,-1,7
 261.782 143.996 261.782 143.996 297.276 122.498 c 128,-1,8
 332.772 101 332.772 101 376.3 101 c 0,9,10
 422.359 101 422.359 101 459.496 122.602 c 128,-1,11
 496.633 144.204 496.633 144.204 519.79 179.583 c 128,-1,12
 542.947 214.961 542.947 214.961 556.023 261.196 c 128,-1,13
 569.1 307.431 569.1 307.431 569.1 355.483 c 128,-1,14
 569.1 403.536 569.1 403.536 556.053 449.201 c 128,-1,15
 543.007 494.865 543.007 494.865 519.177 530.151 c 128,-1,16
 495.348 565.438 495.348 565.438 455.913 586.24 c 128,-1,17
 416.479 607.042 416.479 607.042 368.75 607.042 c 2,0,0
 365.438 607.005 l 1,1,-1
 364.419 607.001 l 2,0,1
504.806 694.273 m 128,-1,20
 565.191 661.547 565.191 661.547 602.148 608.448 c 128,-1,21
 639.104 555.35 639.104 555.35 658.901 487.953 c 128,-1,22
 678.7 420.556 678.7 420.556 678.7 350.451 c 128,-1,23
 678.7 280.347 678.7 280.347 658.478 213.465 c 128,-1,24
 638.255 146.584 638.255 146.584 601.731 94.0273 c 128,-1,25
 565.207 41.4707 565.207 41.4707 506.021 9.23535 c 128,-1,26
 446.834 -23 446.834 -23 374.7 -23 c 0,27,28
 304.83 -23 304.83 -23 247.935 9.375 c 128,-1,29
 191.04 41.75 191.04 41.75 156.588 94.916 c 128,-1,30
 122.137 148.082 122.137 148.082 103.219 214.822 c 128,-1,31
 84.2998 281.562 84.2998 281.562 84.2998 351.964 c 128,-1,32
 84.2998 422.366 84.2998 422.366 102.801 489.114 c 128,-1,33
 121.301 555.862 121.301 555.862 155.748 609.021 c 128,-1,34
 190.194 662.18 190.194 662.18 245.876 694.59 c 128,-1,35
 301.558 727 301.558 727 369.9 727 c 0,18,19
 444.419 727 444.419 727 504.806 694.273 c 128,-1,20
545.834 212.32 m 1,36,-1
 665.76 45.8799 l 1,37,-1
 580.873 -41.8369 l 1,38,-1
 473.865 111.821 l 1,39,-1
 409.254 203.433 l 1,40,-1
 492.541 287.574 l 1,41,-1
 545.834 212.32 l 1,36,-1
EndSplineSet
EndChar

StartChar: R
Encoding: 82 82 53
Width: 449
GlyphClass: 2
Flags: HW
LayerCount: 2
Fore
SplineSet
263.085 720.998 m 2,1,2
 265.146 721.048 265.146 721.048 267.219 721.048 c 0,0,0
 310.133 721.048 310.133 721.048 345.652 699.39 c 128,-1,3
 381.171 677.731 381.171 677.731 401.662 641.538 c 128,-1,4
 422.154 605.345 422.154 605.345 428.771 569.644 c 128,-1,5
 435.39 533.943 435.39 533.943 435.39 507.842 c 0,0,0
 435.39 489.912 435.39 489.912 431.364 459.336 c 128,-1,6
 427.339 428.761 427.339 428.761 409.08 392.541 c 128,-1,7
 390.82 356.32 390.82 356.32 366.896 334.116 c 1,0,0
 503.159 -19 l 1,1,-1
 386.83 -19 l 1,2,-1
 266.329 293.229 l 1,0,0
 261.186 293 261.186 293 255.354 293 c 2,13,-1
 187.482 292.192 l 1,0,0
 190.684 -19 l 1,1,-1
 84.1455 -19 l 1,2,-1
 81.6084 719.903 l 1,3,-1
 263.085 720.998 l 2,1,2
187.276 598 m 1,0,0
 187.276 414 l 1,0,0
 258.477 414 l 2,19,20
 278.307 414 278.307 414 293.73 427.254 c 128,-1,21
 309.154 440.509 309.154 440.509 317.079 460.734 c 128,-1,22
 325.004 480.96 325.004 480.96 325.377 494.471 c 128,-1,23
 325.75 507.981 325.75 507.981 325.75 510.239 c 0,0,0
 325.75 532.421 325.75 532.421 319.546 551.807 c 128,-1,24
 313.343 571.192 313.343 571.192 298.52 584.596 c 128,-1,25
 283.696 598 283.696 598 262.477 598 c 2,26,-1
 187.276 598 l 1,0,0
EndSplineSet
EndChar

StartChar: S
Encoding: 83 83 54
Width: 474
GlyphClass: 2
Flags: HW
LayerCount: 2
Fore
SplineSet
338.312 715.2 m 128,-1,2
 370.108 705.399 370.108 705.399 401.596 674.787 c 2,3,-1
 413.496 663.217 l 1,4,-1
 358.183 562.51 l 1,5,-1
 344.681 576.686 l 2,4,5
 315.544 607.28 315.544 607.28 270.838 607.28 c 0,0,0
 261.25 607.28 261.25 607.28 252.652 606.11 c 0,6,7
 229.579 602.973 229.579 602.973 214.247 583.809 c 128,-1,8
 198.916 564.646 198.916 564.646 197.52 551.554 c 128,-1,9
 196.123 538.462 196.123 538.462 196.123 535.529 c 0,0,0
 196.123 516.133 196.123 516.133 211.297 490.971 c 128,-1,10
 226.472 465.81 226.472 465.81 264.286 448.864 c 2,11,-1
 329.077 420.869 l 2,12,13
 353.275 410.065 353.275 410.065 376.212 391.673 c 128,-1,14
 399.148 373.281 399.148 373.281 419.105 344.538 c 128,-1,15
 439.062 315.795 439.062 315.795 450.646 282.549 c 128,-1,16
 462.228 249.304 462.228 249.304 462.228 208.041 c 0,0,0
 462.228 205.048 462.228 205.048 461.749 180.839 c 128,-1,17
 461.271 156.631 461.271 156.631 444.721 111.676 c 0,18,19
 394.504 -24.7246 394.504 -24.7246 253.675 -24.7246 c 0,0,0
 222.31 -24.7246 222.31 -24.7246 197.273 -19.748 c 0,20,21
 170.576 -14.4414 170.576 -14.4414 145.508 -4.57617 c 128,-1,22
 120.438 5.28906 120.438 5.28906 110.976 10.665 c 128,-1,23
 101.512 16.042 101.512 16.042 73.8867 34.3242 c 2,24,-1
 63.4961 41.2002 l 1,25,-1
 83.8008 177.978 l 1,26,-1
 102.5 167.146 l 2,25,26
 165.12 130.872 165.12 130.872 209.451 116.339 c 0,27,28
 234.886 108 234.886 108 258.266 108 c 128,-1,29
 281.646 108 281.646 108 305.197 122.5 c 128,-1,30
 328.748 137 328.748 137 342.365 162.908 c 0,31,32
 353.619 184.32 353.619 184.32 353.619 207.218 c 0,0,0
 353.619 222.997 353.619 222.997 343.907 249.205 c 128,-1,33
 334.197 275.412 334.197 275.412 296.56 293.296 c 0,34,35
 284.439 299.055 284.439 299.055 262.929 310.454 c 0,36,37
 241.418 321.853 241.418 321.853 233.334 324.942 c 0,36,37
 179.28 345.604 179.28 345.604 144.729 382.928 c 128,-1,38
 110.179 420.251 110.179 420.251 98.9707 458.417 c 128,-1,39
 87.7617 496.583 87.7617 496.583 87.7617 530.089 c 0,0,0
 87.7617 542.754 87.7617 542.754 90.8848 572.557 c 128,-1,40
 94.0068 602.36 94.0068 602.36 114.652 639.949 c 128,-1,41
 135.298 677.537 135.298 677.537 172.827 701.269 c 128,-1,42
 210.355 725 210.355 725 256.572 725 c 0,0,1
 306.516 725 306.516 725 338.312 715.2 c 128,-1,2
EndSplineSet
EndChar

StartChar: T
Encoding: 84 84 55
Width: 441
GlyphClass: 2
Flags: HW
LayerCount: 2
Fore
SplineSet
45.7998 706 m 1,0,-1
 444.2 706 l 1,1,-1
 444.2 586.109 l 1,2,-1
 298.495 585.109 l 1,0,0
 295.294 -20 l 1,1,-1
 189.8 -20 l 1,2,-1
 189.8 1.0498 l 1,6,-1
 192.121 585.109 l 1,0,0
 45.7998 586.109 l 1,1,-1
 45.7998 706 l 1,0,-1
EndSplineSet
EndChar

StartChar: U
Encoding: 85 85 56
Width: 532
GlyphClass: 2
Flags: HW
LayerCount: 2
Fore
SplineSet
192.695 266.048 m 2,0,1
 192.845 226.942 192.845 226.942 201.764 195.727 c 0,2,3
 210.62 164.728 210.62 164.728 224.675 146.302 c 128,-1,4
 238.839 127.734 238.839 127.734 257.064 117.847 c 128,-1,5
 275.217 108 275.217 108 293.896 108 c 128,-1,6
 312.441 108 312.441 108 330.495 118.219 c 0,7,8
 348.953 128.667 348.953 128.667 363.648 147.475 c 0,9,10
 378.051 165.906 378.051 165.906 387.271 197.377 c 0,11,12
 396.759 229.767 396.759 229.767 397.499 270.454 c 2,13,-1
 398.35 317.217 l 1,14,-1
 399.002 316.401 l 1,15,-1
 398.256 702 l 1,16,-1
 502.942 702 l 1,17,-1
 506.294 265.25 l 2,18,19
 506.332 260.344 506.332 260.344 506.332 259.119 c 0,20,21
 506.332 193.738 506.332 193.738 489.111 140.948 c 0,22,23
 470.948 85.2715 470.948 85.2715 440.684 50.7305 c 0,24,25
 410.781 16.6025 410.781 16.6025 372.258 -1.25195 c 0,26,27
 336.001 -18.0576 336.001 -18.0576 298.142 -18.0576 c 0,28,29
 295.849 -18.0576 295.849 -18.0576 293.551 -17.9951 c 0,30,31
 253.465 -16.918 253.465 -16.918 215.582 1.91602 c 128,-1,32
 177.61 20.7939 177.61 20.7939 148.221 54.8291 c 0,33,34
 118.283 89.499 118.283 89.499 101.351 144.857 c 0,35,36
 86.1465 194.562 86.1465 194.562 86.1465 252.737 c 0,37,38
 86.1465 258.438 86.1465 258.438 86.2998 264.28 c 2,39,-1
 84.6201 702.572 l 1,40,-1
 191.017 705.433 l 1,41,-1
 192.695 266.048 l 2,0,1
EndSplineSet
EndChar

StartChar: V
Encoding: 86 86 57
Width: 607
GlyphClass: 2
Flags: HW
LayerCount: 2
Fore
SplineSet
408.939 437.141 m 1,0,-1
 504.234 713 l 1,1,-1
 614.529 713 l 1,2,-1
 330.954 -88.1201 l 1,3,-1
 291.979 31.3232 l 1,4,-1
 61 713 l 1,5,-1
 170.908 713 l 1,6,-1
 265.506 436.738 l 1,7,-1
 333.168 231.103 l 1,0,0
 408.939 437.141 l 1,0,-1
EndSplineSet
EndChar

StartChar: W
Encoding: 87 87 58
Width: 778
GlyphClass: 2
Flags: HW
LayerCount: 2
Fore
SplineSet
435.764 318.132 m 1,0,0
 300.808 -76.8359 l 1,1,-1
 85.7305 712 l 1,2,-1
 189.927 712 l 1,3,-1
 307.434 282.435 l 1,0,0
 406.172 567.85 l 1,5,-1
 433.88 650.108 l 1,6,-1
 461.233 566.762 l 1,7,-1
 559.103 283.596 l 1,0,0
 675.871 713.165 l 1,1,-1
 779.148 711.682 l 1,2,-1
 564.657 -76.0449 l 1,3,-1
 435.764 318.132 l 1,0,0
EndSplineSet
EndChar

StartChar: X
Encoding: 88 88 59
Width: 625
GlyphClass: 2
Flags: HW
LayerCount: 2
Fore
SplineSet
132.129 104.315 m 1,0,-1
 283.559 389.697 l 1,1,-1
 189.045 558.471 l 1,2,-1
 98.3135 718 l 1,3,-1
 234.429 718 l 1,4,-1
 311.309 581.319 l 1,5,-1
 348.421 512.107 l 1,6,-1
 391.214 593.107 l 1,7,-1
 457.564 715.9 l 1,8,-1
 580.866 717.354 l 1,9,-1
 516.679 596 l 1,10,-1
 517.387 596 l 1,11,-1
 411.718 395.095 l 1,12,-1
 571.72 96.0723 l 1,13,-1
 571.72 94.8857 l 1,14,-1
 631.648 -21.3555 l 1,15,-1
 510.386 -19.8984 l 1,16,-1
 460.143 72.6553 l 1,17,-1
 347.311 274.396 l 1,18,-1
 246.053 82.3389 l 1,19,-1
 196.762 -20 l 1,20,-1
 61.5449 -20 l 1,21,-1
 132.129 104.315 l 1,0,-1
EndSplineSet
EndChar

StartChar: Y
Encoding: 89 89 60
Width: 543
GlyphClass: 2
Flags: HW
LayerCount: 2
Fore
SplineSet
43.3662 712 m 1,0,-1
 166.552 712 l 1,1,-1
 303.422 454.427 l 1,2,-1
 437.285 712 l 1,3,-1
 560.344 712 l 1,4,-1
 359.571 328.043 l 1,5,-1
 359.571 -16.4424 l 1,6,-1
 242.418 -20.5869 l 1,7,-1
 248.293 325.627 l 1,8,-1
 43.3662 712 l 1,0,-1
EndSplineSet
EndChar

StartChar: Z
Encoding: 90 90 61
Width: 715
GlyphClass: 2
Flags: HW
LayerCount: 2
Fore
SplineSet
199.088 702 m 1,0,-1
 654.561 702 l 1,1,-1
 593.326 581.145 l 1,2,-1
 346.402 113 l 1,0,0
 635.889 113 l 1,1,-1
 635.889 -17.9277 l 1,2,-1
 144.322 -20.1426 l 1,3,-1
 162.964 11.7891 l 1,6,7
 181.659 43.6143 l 130,-1,8
 200.355 75.4385 200.355 75.4385 215.305 103.958 c 2,9,-1
 463.088 577 l 1,0,0
 199.088 577 l 1,1,-1
 199.088 702 l 1,0,-1
EndSplineSet
EndChar

StartChar: bracketleft
Encoding: 91 91 62
Width: 313
GlyphClass: 2
Flags: HW
LayerCount: 2
Fore
SplineSet
68.4219 -20 m 1,0,-1
 68.4219 724.43 l 1,1,-1
 159.792 721.998 l 1,2,-1
 278.194 722 l 1,3,-1
 277.051 589 l 1,4,-1
 175.622 589 l 1,0,0
 175.622 112 l 1,0,0
 279.797 112 l 1,1,-1
 278.649 -20 l 1,2,-1
 68.4219 -20 l 1,0,-1
EndSplineSet
EndChar

StartChar: backslash
Encoding: 92 92 63
Width: 442
GlyphClass: 2
Flags: HW
LayerCount: 2
Fore
SplineSet
298.964 -20 m 1,0,-1
 73.0488 724.588 l 1,1,-1
 187.424 721.729 l 1,2,-1
 419.027 -20 l 1,3,-1
 298.964 -20 l 1,0,-1
EndSplineSet
EndChar

StartChar: bracketright
Encoding: 93 93 64
Width: 309
GlyphClass: 2
Flags: HW
LayerCount: 2
Fore
SplineSet
277.578 -20 m 1,0,-1
 67.3506 -20 l 1,1,-1
 66.2031 112 l 1,2,-1
 170.378 112 l 1,0,0
 170.378 589 l 1,0,0
 68.9492 589 l 1,1,-1
 67.8057 722 l 1,2,-1
 186.208 721.998 l 1,8,-1
 277.578 724.43 l 1,9,-1
 277.578 -20 l 1,0,-1
EndSplineSet
EndChar

StartChar: asciicircum
Encoding: 94 94 65
Width: 544
GlyphClass: 2
Flags: HW
LayerCount: 2
Fore
SplineSet
448.941 510 m 1,0,-1
 340.605 510 l 1,1,-1
 305.981 573.695 l 1,2,-1
 267.502 510.107 l 1,3,-1
 153.837 508.562 l 1,4,-1
 308.028 768.508 l 1,5,-1
 448.941 510 l 1,0,-1
EndSplineSet
EndChar

StartChar: underscore
Encoding: 95 95 66
Width: 503
GlyphClass: 2
Flags: HW
LayerCount: 2
Fore
SplineSet
480.7 20 m 1,0,-1
 480.7 -102 l 1,1,-1
 78.2998 -102 l 1,2,-1
 78.2998 20 l 1,3,-1
 480.7 20 l 1,0,-1
EndSplineSet
EndChar

StartChar: grave
Encoding: 96 96 67
Width: 899
GlyphClass: 2
Flags: HW
LayerCount: 2
Fore
SplineSet
468.095 1014.89 m 1,0,-1
 603.469 837.216 l 1,1,-1
 541.645 764.572 l 1,2,-1
 396.289 909.211 l 1,3,-1
 468.095 1014.89 l 1,0,-1
EndSplineSet
EndChar

StartChar: a
Encoding: 97 97 68
Width: 456
GlyphClass: 2
Flags: HW
LayerCount: 2
Fore
SplineSet
76.4639 315.779 m 0,0,1
 93.1553 365.195 93.1553 365.195 121.686 395.286 c 0,2,3
 149.537 424.66 149.537 424.66 184.318 439.877 c 0,4,5
 214.035 452.879 214.035 452.879 245.347 452.879 c 0,6,7
 250.922 452.879 250.922 452.879 256.544 452.466 c 0,8,9
 292.839 449.797 292.839 449.797 325.733 431.258 c 2,10,-1
 329.604 428.977 l 1,11,-1
 329.604 447 l 1,12,-1
 436.041 447 l 1,13,-1
 435.166 -20 l 1,14,-1
 330.403 -20 l 1,15,-1
 330.403 -3.38184 l 1,16,17
 308.33 -16.4824 308.33 -16.4824 283.509 -22.6201 c 0,18,19
 264.729 -27.2627 264.729 -27.2627 246.188 -27.2627 c 0,20,21
 225.535 -27.2627 225.535 -27.2627 205.257 -21.5029 c 0,22,23
 167.208 -10.6934 167.208 -10.6934 135.17 15.8242 c 0,24,25
 102.098 43.1982 102.098 43.1982 81.3877 93.3223 c 0,26,27
 60.4424 144.014 60.4424 144.014 60.0039 206.83 c 0,28,29
 59.5938 265.835 59.5938 265.835 76.4639 315.779 c 0,0,1
160.804 210 m 0,30,31
 160.804 170.866 160.804 170.866 175.277 142.677 c 128,-1,32
 189.751 114.487 189.751 114.487 211.758 104.484 c 128,-1,33
 233.766 94.4805 233.766 94.4805 257.397 94.4805 c 1,34,35
 257.154 94.4805 257.154 94.4805 258.075 94.4854 c 128,-1,36
 258.994 94.4912 258.994 94.4912 270.309 94.6963 c 128,-1,37
 281.622 94.9014 281.622 94.9014 300.604 113.31 c 128,-1,38
 319.584 131.718 319.584 131.718 326.15 162.186 c 0,39,40
 328.164 171.525 328.164 171.525 328.164 197.32 c 0,41,42
 328.164 204.153 328.164 204.153 327.665 229.397 c 128,-1,43
 327.166 254.641 327.166 254.641 325.907 261.948 c 0,44,45
 321.438 287.874 321.438 287.874 306.266 306.408 c 128,-1,46
 291.093 324.942 291.093 324.942 276.986 329.431 c 128,-1,47
 262.88 333.92 262.88 333.92 252.062 333.92 c 0,48,49
 243.466 333.92 243.466 333.92 228.983 330.545 c 128,-1,50
 214.5 327.17 214.5 327.17 198.337 312.438 c 128,-1,51
 182.175 297.705 182.175 297.705 171.489 270.992 c 128,-1,52
 160.804 244.278 160.804 244.278 160.804 210 c 0,30,31
EndSplineSet
EndChar

StartChar: b
Encoding: 98 98 69
Width: 460
GlyphClass: 2
Flags: HW
LayerCount: 2
Fore
SplineSet
425.614 93.3223 m 0,0,1
 404.904 43.1982 404.904 43.1982 371.832 15.8242 c 0,2,3
 339.795 -10.6934 339.795 -10.6934 301.745 -21.5029 c 0,4,5
 281.468 -27.2627 281.468 -27.2627 260.813 -27.2627 c 0,6,7
 242.273 -27.2627 242.273 -27.2627 223.494 -22.6201 c 0,8,9
 198.673 -16.4824 198.673 -16.4824 176.599 -3.38184 c 1,10,-1
 176.599 -20 l 1,11,-1
 71.8193 -20 l 1,12,-1
 70.9775 768 l 1,13,-1
 177.398 768 l 1,14,-1
 177.398 424.712 l 1,15,16
 190.587 434.334 190.587 434.334 202.115 439.045 c 0,17,18
 228.836 449.961 228.836 449.961 257.156 450.498 c 0,19,20
 258.829 450.529 258.829 450.529 260.5 450.529 c 0,21,22
 287.282 450.529 287.282 450.529 312.938 442.385 c 0,23,24
 340.761 433.552 340.761 433.552 365.419 413.188 c 0,25,26
 389.969 392.912 389.969 392.912 407.963 364.383 c 0,27,28
 426.154 335.542 426.154 335.542 436.638 294.596 c 0,29,30
 447.354 252.732 447.354 252.732 446.998 206.83 c 0,31,32
 446.508 143.889 446.508 143.889 425.614 93.3223 c 0,0,1
338.999 211 m 0,21,22
 338.999 250.321 338.999 250.321 324.753 279.152 c 128,-1,23
 310.508 307.982 310.508 307.982 289.634 318.75 c 128,-1,24
 268.761 329.519 268.761 329.519 246.182 329.519 c 0,0,0
 245.312 329.519 245.312 329.519 234.224 329.312 c 128,-1,25
 223.135 329.104 223.135 329.104 204.566 310.454 c 128,-1,26
 185.999 291.804 185.999 291.804 180.255 260.996 c 0,27,28
 179.057 254.569 179.057 254.569 178.548 229.757 c 128,-1,29
 178.039 204.944 178.039 204.944 178.039 198.4 c 0,0,0
 178.039 174.405 178.039 174.405 180.014 165.356 c 0,30,31
 186.712 134.671 186.712 134.671 204.825 117.285 c 128,-1,32
 222.938 99.8984 222.938 99.8984 233.572 99.7002 c 129,-1,33
 244.206 99.502 244.206 99.502 245.094 99.4912 c 0,34,35
 245.982 99.4805 245.982 99.4805 246.34 99.4805 c 0,0,0
 269.062 99.4805 269.062 99.4805 289.963 109.433 c 128,-1,34
 310.863 119.385 310.863 119.385 324.932 146.181 c 128,-1,35
 338.999 172.977 338.999 172.977 338.999 211 c 0,21,22
EndSplineSet
EndChar

StartChar: c
Encoding: 99 99 70
Width: 379
GlyphClass: 2
Flags: HW
LayerCount: 2
Fore
SplineSet
348.458 421.546 m 2,0,-1
 363.64 411.328 l 1,1,-1
 364.492 408.882 l 1,2,-1
 366.603 406.787 l 1,3,-1
 378.132 395.578 l 1,4,-1
 317.364 277.08 l 1,5,-1
 303.672 301.531 l 2,6,7
 302.965 302.572 302.965 302.572 302.326 303.265 c 0,8,9
 297.829 308.135 297.829 308.135 287.237 313.431 c 0,10,11
 270.735 321.682 270.735 321.682 260.611 323.124 c 0,12,13
 256.138 323.762 256.138 323.762 249.986 323.762 c 0,14,15
 227.323 323.762 227.323 323.762 206.187 311.784 c 0,16,17
 181.684 297.899 181.684 297.899 168.436 267.446 c 0,18,19
 154.502 235.418 154.502 235.418 154.502 208.124 c 0,20,21
 154.502 196.854 154.502 196.854 156.702 185.851 c 0,22,23
 164.307 147.825 164.307 147.825 196.78 124.32 c 0,24,25
 215.184 111 215.184 111 237.539 109.975 c 0,26,27
 245.525 109.608 245.525 109.608 246.438 109.608 c 0,28,29
 272.851 109.608 272.851 109.608 295.942 124.821 c 0,30,31
 306.806 131.978 306.806 131.978 308.137 133.364 c 2,32,-1
 322.74 148.576 l 1,33,-1
 374.745 35.8984 l 1,34,-1
 365.026 25.0693 l 2,35,36
 324.552 -20.0234 324.552 -20.0234 245.177 -20.0234 c 0,37,38
 244.578 -20.0234 244.578 -20.0234 243.338 -20.0117 c 128,-1,39
 242.097 -20 242.097 -20 241.496 -19.999 c 0,40,41
 178.576 -19.9814 178.576 -19.9814 142.884 6.89941 c 0,42,43
 71.7715 60.4561 71.7715 60.4561 52.1709 148.116 c 0,44,45
 45.667 177.199 45.667 177.199 45.667 206.653 c 0,46,47
 45.667 266.615 45.667 266.615 72.3945 326.716 c 0,48,49
 101.997 393.282 101.997 393.282 156.75 425.587 c 0,50,51
 200.404 451.343 200.404 451.343 247.799 451.343 c 0,52,53
 259.812 451.343 259.812 451.343 270.471 449.888 c 0,54,55
 316.739 443.573 316.739 443.573 348.458 421.546 c 2,0,-1
EndSplineSet
EndChar

StartChar: d
Encoding: 100 100 71
Width: 463
GlyphClass: 2
Flags: HW
LayerCount: 2
Fore
SplineSet
69.8496 212.971 m 0,0,1
 69.8496 264.14 69.8496 264.14 82.9229 307.547 c 0,2,3
 96.9961 354.273 96.9961 354.273 121.198 383.406 c 0,4,5
 144.59 411.562 144.59 411.562 175.223 430.438 c 0,6,7
 206.666 449.814 206.666 449.814 240.057 451.484 c 0,8,9
 245.67 451.765 245.67 451.765 251.272 451.765 c 0,10,11
 278.234 451.765 278.234 451.765 303.52 445.588 c 0,12,13
 320.25 441.5 320.25 441.5 338.696 433.456 c 1,14,-1
 338.696 768 l 1,15,-1
 445.117 768 l 1,16,-1
 444.276 -20 l 1,17,-1
 340.713 -20 l 1,18,-1
 340.357 -3.15527 l 1,19,20
 337.77 -5.10449 337.77 -5.10449 335.423 -6.37012 c 0,21,22
 303.179 -23.7617 303.179 -23.7617 266.847 -26.4648 c 0,23,24
 260.953 -26.9033 260.953 -26.9033 255.12 -26.9033 c 0,25,26
 224.668 -26.9033 224.668 -26.9033 196.037 -14.9736 c 0,27,28
 162.279 -0.908203 162.279 -0.908203 134.142 26.1475 c 0,29,30
 104.975 54.1924 104.975 54.1924 87.7246 101.74 c 0,31,32
 70.7627 148.493 70.7627 148.493 69.8994 206.619 c 0,33,34
 69.8496 209.981 69.8496 209.981 69.8496 212.971 c 0,0,1
177.097 211 m 0,22,23
 177.097 173.095 177.097 173.095 191.52 146.261 c 128,-1,24
 205.943 119.428 205.943 119.428 226.888 109.454 c 128,-1,25
 247.834 99.4805 247.834 99.4805 270.555 99.4805 c 1,0,0
 270.32 99.4805 270.32 99.4805 271.208 99.4854 c 0,1,2
 272.095 99.4912 272.095 99.4912 283.025 99.6943 c 128,-1,26
 293.957 99.8984 293.957 99.8984 312.276 117.482 c 128,-1,27
 330.596 135.065 330.596 135.065 336.751 164.704 c 0,28,29
 338.354 172.42 338.354 172.42 338.354 202.367 c 0,0,0
 338.354 207.299 338.354 207.299 338.144 227.805 c 128,-1,30
 337.934 248.312 337.934 248.312 336.613 260.804 c 1,0,0
 329.13 292.774 329.13 292.774 311.045 310.94 c 128,-1,33
 292.959 329.106 292.959 329.106 282.079 329.312 c 128,-1,34
 271.199 329.519 271.199 329.519 270.343 329.519 c 0,0,0
 248.075 329.519 248.075 329.519 226.818 318.725 c 128,-1,35
 205.562 307.931 205.562 307.931 191.329 279.126 c 128,-1,36
 177.097 250.321 177.097 250.321 177.097 211 c 0,22,23
EndSplineSet
EndChar

StartChar: e
Encoding: 101 101 72
Width: 449
GlyphClass: 2
Flags: HW
LayerCount: 2
Fore
SplineSet
352.588 1.91992 m 0,0,1
 325.604 -13.8789 325.604 -13.8789 289.868 -18.8838 c 0,2,3
 274.757 -21 274.757 -21 256.148 -21 c 0,4,5
 230.939 -21 230.939 -21 212.492 -16.6768 c 0,6,7
 164.247 -5.37012 164.247 -5.37012 128.794 30.6367 c 128,-1,8
 93.3408 66.6445 93.3408 66.6445 77.7393 113.232 c 128,-1,9
 62.1377 159.82 62.1377 159.82 62.1377 211.355 c 0,10,11
 62.1377 212.777 62.1377 212.777 62.3604 239.976 c 128,-1,12
 62.582 267.174 62.582 267.174 78.7656 314.741 c 128,-1,13
 94.9492 362.308 94.9492 362.308 130.648 399.219 c 128,-1,14
 166.347 436.13 166.347 436.13 213.095 447.632 c 0,15,16
 234.914 453 234.914 453 260.948 453 c 0,17,18
 285.792 453 285.792 453 303.889 448.658 c 0,19,20
 356.759 435.973 356.759 435.973 389.468 391.166 c 128,-1,21
 422.177 346.359 422.177 346.359 428.763 304.785 c 128,-1,22
 435.349 263.211 435.349 263.211 435.349 234.625 c 128,-1,23
 435.349 206.229 435.349 206.229 431.099 176.484 c 2,24,-1
 428.752 160.052 l 1,25,-1
 178.755 159.09 l 1,26,27
 186.102 141.854 186.102 141.854 200.555 127.909 c 128,-1,28
 215.007 113.963 215.007 113.963 261.317 107.83 c 0,29,30
 268.667 106.857 268.667 106.857 271.234 106.857 c 0,31,32
 275.263 106.857 275.263 106.857 282.718 107.759 c 128,-1,33
 290.175 108.661 290.175 108.661 308.466 117.015 c 128,-1,34
 326.755 125.368 326.755 125.368 339.391 140.331 c 2,35,-1
 340.034 141.143 l 1,36,-1
 348.868 152.184 l 1,37,-1
 427.349 93.3242 l 1,38,-1
 427.349 74.1377 l 1,39,-1
 423.979 68.7207 l 2,40,41
 399.505 29.3887 399.505 29.3887 352.588 1.91992 c 0,0,1
329.641 271.903 m 1,42,43
 318.293 336 318.293 336 260.148 336 c 0,44,45
 221.694 336 221.694 336 202.814 313.788 c 128,-1,46
 183.934 291.576 183.934 291.576 177.413 271.107 c 1,47,-1
 329.641 271.903 l 1,42,43
EndSplineSet
EndChar

StartChar: f
Encoding: 102 102 73
Width: 323
GlyphClass: 2
Flags: HW
LayerCount: 2
Fore
SplineSet
84.8848 326 m 1,0,0
 44.8848 326 l 1,1,-1
 44.8848 442 l 1,2,-1
 88.4053 442 l 1,0,0
 90.1074 493.882 90.1074 493.882 102.121 539.435 c 128,-1,6
 114.136 584.988 114.136 584.988 136.265 611.521 c 128,-1,7
 158.395 638.053 158.395 638.053 181.656 650.026 c 128,-1,8
 204.919 662 204.919 662 228.885 662 c 0,9,10
 244.602 662 244.602 662 256.554 657.979 c 128,-1,11
 268.506 653.955 268.506 653.955 278.839 648.49 c 128,-1,12
 289.172 643.025 289.172 643.025 294.365 641.403 c 2,13,-1
 315.961 634.654 l 1,14,-1
 257.619 520.708 l 1,15,-1
 234.701 535.874 l 1,0,0
 214.953 534.511 214.953 534.511 206.007 515.435 c 128,-1,17
 197.062 496.359 197.062 496.359 195.55 442 c 1,0,0
 277.685 442 l 1,1,-1
 277.685 324 l 1,2,-1
 192.932 324 l 1,0,0
 193.731 -20 l 1,1,-1
 84.8848 -20 l 1,2,-1
 84.8848 326 l 1,0,0
EndSplineSet
EndChar

StartChar: g
Encoding: 103 103 74
Width: 428
GlyphClass: 2
Flags: HW
LayerCount: 2
Fore
SplineSet
158.008 224 m 0,0,1
 158.008 191.097 158.008 191.097 171.74 165.559 c 128,-1,2
 185.473 140.021 185.473 140.021 205.8 129.01 c 128,-1,3
 226.126 118 226.126 118 246.788 118 c 128,-1,4
 267.45 118 267.45 118 283.693 134.791 c 128,-1,5
 299.938 151.582 299.938 151.582 306.017 181.46 c 1,6,7
 306.092 192.035 306.092 192.035 306.649 209.839 c 128,-1,8
 307.208 227.643 307.208 227.643 307.208 236.625 c 0,9,10
 307.208 242.559 307.208 242.559 306.909 249.195 c 0,11,12
 306.838 250.788 306.838 250.788 306.836 251.17 c 0,13,14
 306.711 278.737 306.711 278.737 296.509 296.513 c 128,-1,15
 286.308 314.289 286.308 314.289 272.136 320.667 c 128,-1,16
 257.964 327.044 257.964 327.044 242.898 327.044 c 0,17,18
 238.615 327.044 238.615 327.044 226.247 325.733 c 128,-1,19
 213.88 324.423 213.88 324.423 197.256 313.202 c 128,-1,20
 180.632 301.98 180.632 301.98 169.32 278.692 c 128,-1,21
 158.008 255.404 158.008 255.404 158.008 224 c 0,0,1
341.655 -180.319 m 0,22,23
 300.768 -216.813 300.768 -216.813 241.571 -218.495 c 0,24,25
 238.705 -218.576 238.705 -218.576 235.867 -218.576 c 0,26,27
 182.599 -218.576 182.599 -218.576 139.246 -189.625 c 2,28,-1
 110.046 -170.125 l 2,29,30
 103.132 -165.472 103.132 -165.472 93.7051 -154.866 c 2,31,-1
 84.5957 -144.618 l 1,32,-1
 126.232 -41.9727 l 1,33,-1
 186.861 -81.1738 l 2,34,35
 203.1 -91.3223 203.1 -91.3223 223.109 -93.0479 c 0,36,37
 227.198 -93.4004 227.198 -93.4004 231.208 -93.4004 c 0,38,39
 247.086 -93.4004 247.086 -93.4004 261.784 -87.8535 c 0,40,41
 279.521 -81.1602 279.521 -81.1602 294.446 -64.2012 c 0,42,43
 307.77 -49.0605 307.77 -49.0605 313.132 -27.4658 c 1,44,-1
 312.414 -0.164062 l 1,45,-1
 312.651 18.0879 l 1,46,47
 302.459 11.0146 302.459 11.0146 290.738 6.05566 c 0,48,49
 264.409 -5.08301 264.409 -5.08301 236.261 -5.08301 c 0,50,51
 233.713 -5.08301 233.713 -5.08301 231.151 -4.99219 c 0,52,53
 200.308 -3.89062 200.308 -3.89062 169.666 11.4307 c 0,54,55
 139.286 26.6201 139.286 26.6201 114.922 52.1807 c 0,56,57
 89.7432 78.5957 89.7432 78.5957 74.2422 121.224 c 0,58,59
 58.4209 164.732 58.4209 164.732 58.0098 213.782 c 0,60,61
 57.5684 266.479 57.5684 266.479 72.7529 313.928 c 0,62,63
 87.7383 360.76 87.7383 360.76 114.116 390.379 c 0,64,65
 139.771 419.188 139.771 419.188 171.525 435.499 c 0,66,67
 201.824 451.062 201.824 451.062 235.171 451.062 c 0,68,69
 237.38 451.062 237.38 451.062 239.603 450.994 c 0,70,71
 274.639 449.912 274.639 449.912 307.738 431.258 c 2,72,-1
 310.754 429.499 l 1,73,-1
 310.403 447 l 1,74,-1
 418.085 447 l 1,75,-1
 416.408 5.95215 l 2,76,77
 415.952 -114.006 415.952 -114.006 341.655 -180.319 c 0,22,23
EndSplineSet
EndChar

StartChar: h
Encoding: 104 104 75
Width: 438
GlyphClass: 2
Flags: HW
LayerCount: 2
Fore
SplineSet
414.197 229 m 2,0,-1
 414.197 71.5 l 2,1,2
 414.197 61.7217 414.197 61.7217 413.791 43.4443 c 0,3,4
 413.397 25.7236 413.397 25.7236 413.397 -1 c 2,5,-1
 413.397 -21 l 1,6,-1
 306.197 -21 l 1,7,-1
 306.197 -1 l 2,8,9
 306.197 31.1562 306.197 31.1562 306.599 63.3125 c 0,10,11
 306.997 95.1562 306.997 95.1562 306.997 131.5 c 2,12,-1
 306.997 235 l 2,13,14
 306.997 268.732 306.997 268.732 297.073 290.648 c 0,15,16
 287.595 311.581 287.595 311.581 274.231 319.376 c 0,17,18
 262.328 326.32 262.328 326.32 248.5 326.32 c 0,19,20
 245.792 326.32 245.792 326.32 243.002 326.057 c 0,21,22
 225.581 324.413 225.581 324.413 210.829 313.351 c 0,23,24
 196.259 302.423 196.259 302.423 186.316 281.71 c 0,25,26
 176.598 261.46 176.598 261.46 176.598 235 c 2,27,-1
 176.598 -21 l 1,28,-1
 72.6191 -21 l 1,29,-1
 71.7773 760.75 l 1,30,-1
 178.197 769.332 l 1,31,-1
 178.197 425.615 l 1,32,33
 190.243 435.07 190.243 435.07 202.045 440.015 c 0,34,35
 230.652 452 230.652 452 259.798 452 c 0,36,37
 338.054 452 338.054 452 376.858 389.229 c 0,38,39
 414.197 328.827 414.197 328.827 414.197 229 c 2,0,-1
EndSplineSet
EndChar

StartChar: i
Encoding: 105 105 76
Width: 186
GlyphClass: 2
Flags: HW
LayerCount: 2
Fore
SplineSet
63.7549 596.146 m 128,-1,2
 82.0098 614.817 82.0098 614.817 92.9414 615.168 c 128,-1,3
 103.873 615.519 103.873 615.519 104.652 615.519 c 0,0,0
 125.135 615.519 125.135 615.519 143.316 597.611 c 128,-1,4
 161.5 579.704 161.5 579.704 161.5 546 c 0,5,6
 161.5 511.95 161.5 511.95 143.316 491.975 c 128,-1,7
 125.131 472 125.131 472 103.579 472 c 128,-1,8
 82.0264 472 82.0264 472 63.7637 491.37 c 128,-1,9
 45.5 510.74 45.5 510.74 45.5 545 c 0,0,1
 45.5 577.479 45.5 577.479 63.7549 596.146 c 128,-1,2
51.8262 453 m 1,2,-1
 157.5 453 l 1,3,-1
 157.5 -22 l 1,4,-1
 53.5732 -22 l 1,5,-1
 51.8262 453 l 1,2,-1
EndSplineSet
EndChar

StartChar: j
Encoding: 106 106 77
Width: 186
GlyphClass: 2
Flags: HW
LayerCount: 2
Fore
SplineSet
63.7549 596.146 m 128,-1,2
 82.0098 614.817 82.0098 614.817 92.9414 615.168 c 128,-1,3
 103.873 615.519 103.873 615.519 104.652 615.519 c 0,0,0
 125.135 615.519 125.135 615.519 143.316 597.611 c 128,-1,4
 161.5 579.704 161.5 579.704 161.5 546 c 0,5,6
 161.5 511.95 161.5 511.95 143.316 491.975 c 128,-1,7
 125.131 472 125.131 472 103.579 472 c 128,-1,8
 82.0264 472 82.0264 472 63.7637 491.37 c 128,-1,9
 45.5 510.74 45.5 510.74 45.5 545 c 0,0,1
 45.5 577.479 45.5 577.479 63.7549 596.146 c 128,-1,2
51.9004 450 m 1,2,-1
 157.53 450 l 1,3,-1
 156.67 -122 l 1,4,-1
 51.9004 -122 l 1,5,-1
 51.9004 450 l 1,2,-1
EndSplineSet
EndChar

StartChar: k
Encoding: 107 107 78
Width: 447
GlyphClass: 2
Flags: HW
LayerCount: 2
Fore
SplineSet
185.047 286.379 m 1,0,0
 311.999 445.07 l 1,1,-1
 451.138 443.597 l 1,2,-1
 278.744 227.005 l 1,0,0
 475.156 -19.5967 l 1,1,-1
 335.999 -21.0703 l 1,2,-1
 184.971 167.716 l 1,0,0
 184.971 -20 l 1,1,-1
 78.5498 -20 l 1,2,-1
 79.3916 768 l 1,3,-1
 185.802 768 l 1,4,-1
 185.047 286.379 l 1,0,0
EndSplineSet
EndChar

StartChar: l
Encoding: 108 108 79
Width: 189
GlyphClass: 2
Flags: HW
LayerCount: 2
Fore
SplineSet
157.804 237.981 m 1,0,-1
 157.804 -20 l 1,1,-1
 51.4033 -20 l 1,2,-1
 51.4033 802 l 1,3,-1
 158.633 802 l 1,4,-1
 157.804 237.981 l 1,0,-1
EndSplineSet
EndChar

StartChar: m
Encoding: 109 109 80
Width: 669
GlyphClass: 2
Flags: HW
LayerCount: 2
Fore
SplineSet
329.484 442.096 m 0,0,1
 350.24 431.826 350.24 431.826 370.636 408.424 c 0,2,3
 372.001 406.857 372.001 406.857 374.551 405.264 c 0,4,5
 375.945 404.392 375.945 404.392 376.944 404.157 c 0,6,7
 377.556 404.014 377.556 404.014 378.484 403.725 c 0,8,9
 379.412 403.436 379.412 403.436 379.715 403.403 c 1,10,11
 379.848 403.444 379.848 403.444 384.904 408.102 c 0,12,13
 388.712 411.607 388.712 411.607 394.118 415.904 c 0,14,15
 396.012 417.41 396.012 417.41 396.78 418.058 c 0,16,17
 414.903 433.341 414.903 433.341 439.213 442.947 c 0,18,19
 457.26 450.079 457.26 450.079 463.596 450.475 c 0,20,21
 466.662 450.667 466.662 450.667 469.995 450.667 c 0,22,23
 472.188 450.667 472.188 450.667 476.551 450.329 c 0,24,25
 480.913 449.992 480.913 449.992 483.409 449.971 c 0,26,27
 560.732 449.312 560.732 449.312 599.914 385.134 c 0,28,29
 637.995 322.76 637.995 322.76 637.995 223 c 2,30,-1
 637.995 69.5 l 2,31,32
 637.995 60.6895 637.995 60.6895 637.587 44.375 c 0,33,34
 637.195 28.6865 637.195 28.6865 637.195 1 c 2,35,-1
 637.195 -18.791 l 1,36,-1
 529.195 -20.2119 l 1,37,-1
 529.195 60.5 l 2,38,39
 529.195 89.1475 529.195 89.1475 529.597 123.294 c 0,40,41
 529.995 157.15 529.995 157.15 529.995 225 c 0,42,43
 529.995 258.355 529.995 258.355 520.833 281.688 c 0,44,45
 512.045 304.064 512.045 304.064 499.915 313.54 c 0,46,47
 487.807 323 487.807 323 473.596 323 c 0,48,49
 459.067 323 459.067 323 446.771 314.162 c 0,50,51
 434.713 305.495 434.713 305.495 426.073 285.497 c 0,52,53
 417.195 264.945 417.195 264.945 417.195 236 c 0,54,55
 417.195 229.961 417.195 229.961 416.396 -0.0869141 c 2,56,-1
 416.326 -20 l 1,57,-1
 314.795 -20 l 1,58,-1
 314.795 64 l 2,59,60
 314.795 95.1426 314.795 95.1426 315.197 130.781 c 0,61,62
 315.596 166.141 315.596 166.141 315.596 233 c 0,63,64
 315.596 267.202 315.596 267.202 306.137 290.427 c 0,65,66
 297.138 312.523 297.138 312.523 284.968 321.057 c 0,67,68
 272.897 329.521 272.897 329.521 258.79 329.521 c 0,69,70
 258.163 329.521 258.163 329.521 257.529 329.504 c 0,71,72
 242.331 329.108 242.331 329.108 229.423 320.057 c 0,73,74
 216.888 311.268 216.888 311.268 207.888 291.577 c 0,75,76
 198.795 271.688 198.795 271.688 198.795 245 c 2,77,-1
 198.795 -20 l 1,78,-1
 94.833 -20 l 1,79,-1
 93.958 449 l 1,80,-1
 200.396 449 l 1,81,-1
 200.396 430.995 l 1,82,83
 210.206 437.459 210.206 437.459 229.397 444.656 c 0,84,85
 251.646 453 251.646 453 276.396 453 c 0,86,87
 307.446 453 307.446 453 329.484 442.096 c 0,0,1
EndSplineSet
EndChar

StartChar: n
Encoding: 110 110 81
Width: 384
GlyphClass: 2
Flags: HW
LayerCount: 2
Fore
SplineSet
383.096 229.956 m 2,0,-1
 382.226 -20 l 1,1,-1
 275.096 -20 l 1,2,-1
 275.096 65.5 l 2,3,4
 275.096 98.1533 275.096 98.1533 275.497 135.271 c 0,5,6
 275.896 172.134 275.896 172.134 275.896 239 c 0,7,8
 275.896 273.123 275.896 273.123 266.491 295.794 c 0,9,10
 257.569 317.302 257.569 317.302 245.53 325.377 c 0,11,12
 234.643 332.68 234.643 332.68 222.063 332.68 c 0,13,14
 219.645 332.629 219.645 332.629 218.493 332.539 c 0,15,16
 203.154 331.341 203.154 331.341 189.679 321.314 c 0,17,18
 176.676 311.639 176.676 311.639 167.974 291.497 c 0,19,20
 159.096 270.944 159.096 270.944 159.096 244.082 c 2,21,-1
 160.827 -20 l 1,22,-1
 56.7324 -20 l 1,23,-1
 55.8574 449 l 1,24,-1
 162.295 449 l 1,25,-1
 162.295 429.304 l 1,26,-1
 176.023 437.938 l 2,27,28
 193.91 449 193.91 449 242.295 449 c 0,29,30
 319.567 449 319.567 449 352.328 388.742 c 0,31,32
 383.096 332.153 383.096 332.153 383.096 229.956 c 2,0,-1
EndSplineSet
EndChar

StartChar: o
Encoding: 111 111 82
Width: 448
GlyphClass: 2
Flags: HW
LayerCount: 2
Fore
SplineSet
247.646 342 m 0,0,1
 218.028 342 218.028 342 196.301 324.176 c 128,-1,2
 174.572 306.353 174.572 306.353 164.685 280.354 c 128,-1,3
 154.797 254.356 154.797 254.356 154.615 237.987 c 128,-1,4
 154.433 221.618 154.433 221.618 154.433 220.523 c 0,5,6
 154.433 190.237 154.433 190.237 163.767 164.403 c 128,-1,7
 173.101 138.568 173.101 138.568 194.348 121.284 c 128,-1,8
 215.595 104 215.595 104 245.247 104 c 0,9,10
 291.076 104 291.076 104 317.364 140.394 c 0,11,12
 335.034 164.855 335.034 164.855 338.399 189.198 c 128,-1,13
 341.766 213.54 341.766 213.54 341.766 226.576 c 0,14,15
 341.766 247.734 341.766 247.734 335.446 272.808 c 128,-1,16
 329.126 297.882 329.126 297.882 305.709 319.941 c 128,-1,17
 282.293 342 282.293 342 247.646 342 c 0,0,1
356.108 418.975 m 128,-1,19
 401.642 383.949 401.642 383.949 421.648 331.757 c 128,-1,20
 441.655 279.565 441.655 279.565 441.655 219.9 c 0,21,22
 441.655 218.611 441.655 218.611 441.435 187.425 c 128,-1,23
 441.214 156.238 441.214 156.238 420.164 103.067 c 128,-1,24
 399.115 49.8965 399.115 49.8965 352.81 14.9482 c 128,-1,25
 306.502 -20 306.502 -20 245.247 -20 c 0,26,27
 183.191 -20 183.191 -20 136.823 14.9951 c 128,-1,28
 90.4541 49.9902 90.4541 49.9902 70.6338 102.234 c 128,-1,29
 50.8135 154.478 50.8135 154.478 50.8135 212.806 c 0,30,31
 50.8135 215.323 50.8135 215.323 51.2637 247.149 c 128,-1,32
 51.7148 278.976 51.7148 278.976 73.1924 331.574 c 128,-1,33
 94.6699 384.173 94.6699 384.173 140.931 419.086 c 128,-1,34
 187.191 454 187.191 454 248.447 454 c 0,35,18
 310.576 454 310.576 454 356.108 418.975 c 128,-1,19
EndSplineSet
EndChar

StartChar: p
Encoding: 112 112 83
Width: 456
GlyphClass: 2
Flags: HW
LayerCount: 2
Fore
SplineSet
420.181 93.4775 m 0,0,1
 399.845 43.1904 399.845 43.1904 366.252 15.7568 c 0,2,3
 333.849 -10.707 333.849 -10.707 295.848 -21.5029 c 0,4,5
 275.57 -27.2627 275.57 -27.2627 254.916 -27.2627 c 0,6,7
 236.376 -27.2627 236.376 -27.2627 217.597 -22.6201 c 0,8,9
 192.988 -16.5352 192.988 -16.5352 171.382 -3.59961 c 1,10,-1
 170.632 -221 l 1,11,-1
 66.7266 -221 l 1,12,-1
 65.875 447 l 1,13,-1
 172.301 447 l 1,14,-1
 172.301 429.638 l 1,15,16
 193.988 442.553 193.988 442.553 218.829 448.628 c 0,17,18
 236.911 453.05 236.911 453.05 254.778 453.05 c 0,19,20
 276.669 453.05 276.669 453.05 298.141 446.416 c 0,21,22
 336.599 434.532 336.599 434.532 369.018 406.436 c 0,23,24
 402.559 377.366 402.559 377.366 422.389 324.488 c 0,25,26
 441.136 274.498 441.136 274.498 441.136 212.168 c 0,27,28
 441.122 208.367 441.122 208.367 441.099 206.667 c 0,29,30
 440.238 143.075 440.238 143.075 420.181 93.4775 c 0,0,1
333.901 211 m 0,17,18
 333.901 250.321 333.901 250.321 319.668 279.126 c 128,-1,19
 305.436 307.931 305.436 307.931 284.18 318.725 c 128,-1,20
 262.923 329.519 262.923 329.519 240.655 329.519 c 0,0,0
 239.799 329.519 239.799 329.519 228.919 329.312 c 128,-1,21
 218.039 329.106 218.039 329.106 199.953 310.94 c 128,-1,22
 181.868 292.773 181.868 292.773 174.384 260.801 c 1,0,0
 173.064 248.308 173.064 248.308 172.854 227.804 c 128,-1,25
 172.645 207.301 172.645 207.301 172.645 202.367 c 0,0,0
 172.645 172.42 172.645 172.42 174.247 164.704 c 0,26,27
 180.402 135.065 180.402 135.065 198.721 117.482 c 128,-1,28
 217.041 99.8984 217.041 99.8984 227.675 99.7002 c 129,-1,29
 238.309 99.502 238.309 99.502 239.196 99.4912 c 0,30,31
 240.085 99.4805 240.085 99.4805 240.442 99.4805 c 0,0,0
 263.164 99.4805 263.164 99.4805 284.109 109.454 c 128,-1,30
 305.055 119.428 305.055 119.428 319.478 146.261 c 128,-1,31
 333.901 173.095 333.901 173.095 333.901 211 c 0,17,18
EndSplineSet
EndChar

StartChar: q
Encoding: 113 113 84
Width: 447
GlyphClass: 2
Flags: HW
LayerCount: 2
Fore
SplineSet
60.8359 213.628 m 0,0,1
 60.8359 258.02 60.8359 258.02 70.8975 296.25 c 0,2,3
 81.8174 337.744 81.8174 337.744 100.871 367.101 c 0,4,5
 119.704 396.118 119.704 396.118 145.091 416.361 c 0,6,7
 170.613 436.714 170.613 436.714 199.298 444.988 c 0,8,9
 224.015 452.117 224.015 452.117 249.401 452.117 c 0,10,11
 252.78 452.117 252.78 452.117 256.174 451.991 c 0,12,13
 283.393 450.976 283.393 450.976 312.713 437.812 c 0,14,15
 322.07 433.612 322.07 433.612 329.695 428.692 c 1,16,-1
 329.695 447 l 1,17,-1
 436.121 447 l 1,18,-1
 435.271 -221 l 1,19,-1
 331.364 -221 l 1,20,-1
 330.615 -3.59961 l 1,21,22
 309.01 -16.5352 309.01 -16.5352 284.4 -22.6201 c 0,23,24
 265.62 -27.2627 265.62 -27.2627 247.081 -27.2627 c 0,25,26
 226.427 -27.2627 226.427 -27.2627 206.149 -21.5029 c 0,27,28
 168.148 -10.707 168.148 -10.707 135.744 15.7568 c 0,29,30
 102.152 43.1904 102.152 43.1904 81.8164 93.4775 c 0,31,32
 61.7744 143.038 61.7744 143.038 60.8984 206.608 c 0,33,34
 60.8359 211.138 60.8359 211.138 60.8359 213.628 c 0,0,1
168.096 211 m 0,20,21
 168.096 173.095 168.096 173.095 182.519 146.261 c 128,-1,22
 196.942 119.428 196.942 119.428 217.887 109.454 c 128,-1,23
 238.833 99.4805 238.833 99.4805 261.554 99.4805 c 1,0,0
 261.319 99.4805 261.319 99.4805 262.207 99.4854 c 0,1,2
 263.094 99.4912 263.094 99.4912 274.024 99.6943 c 128,-1,24
 284.956 99.8984 284.956 99.8984 303.275 117.482 c 128,-1,25
 321.595 135.065 321.595 135.065 327.75 164.704 c 0,26,27
 329.353 172.42 329.353 172.42 329.353 202.367 c 0,0,0
 329.353 207.299 329.353 207.299 329.143 227.805 c 128,-1,28
 328.933 248.312 328.933 248.312 327.612 260.804 c 1,0,0
 320.129 292.774 320.129 292.774 302.044 310.94 c 128,-1,31
 283.958 329.106 283.958 329.106 273.078 329.312 c 128,-1,32
 262.198 329.519 262.198 329.519 261.342 329.519 c 0,0,0
 239.074 329.519 239.074 329.519 217.817 318.725 c 128,-1,33
 196.562 307.931 196.562 307.931 182.328 279.126 c 128,-1,34
 168.096 250.321 168.096 250.321 168.096 211 c 0,20,21
EndSplineSet
EndChar

StartChar: r
Encoding: 114 114 85
Width: 309
GlyphClass: 2
Flags: HW
LayerCount: 2
Fore
SplineSet
296.651 445.141 m 2,0,-1
 310.862 436.893 l 1,1,-1
 270.479 321.911 l 1,2,-1
 257.643 325.477 l 2,3,4
 249.758 327.667 249.758 327.667 241.045 327.667 c 0,5,6
 229.78 327.667 229.78 327.667 217.111 324.012 c 0,7,8
 195.297 317.72 195.297 317.72 182.446 300.405 c 0,9,10
 170.265 283.989 170.265 283.989 159.734 254.377 c 0,11,12
 150.004 227.01 150.004 227.01 149.914 203.951 c 2,13,-1
 149.035 -20 l 1,14,-1
 45.1514 -20 l 1,15,-1
 44.2764 449 l 1,16,-1
 150.901 449 l 1,17,-1
 150.615 418.291 l 1,18,19
 171.533 441.469 171.533 441.469 195.189 450.608 c 0,20,21
 219.497 460 219.497 460 244.313 460 c 0,22,23
 271.047 460 271.047 460 296.651 445.141 c 2,0,-1
EndSplineSet
EndChar

StartChar: s
Encoding: 115 115 86
Width: 374
GlyphClass: 2
Flags: HW
LayerCount: 2
Fore
SplineSet
57.6533 78.6973 m 1,0,-1
 134.055 162.963 l 1,1,-1
 144.528 146.404 l 2,2,3
 167.584 109.957 167.584 109.957 208.378 103.843 c 0,4,5
 214.689 102.896 214.689 102.896 219.071 102.896 c 0,6,7
 231.619 102.896 231.619 102.896 240.022 108.389 c 0,8,9
 249.027 114.274 249.027 114.274 252.315 120.438 c 0,10,11
 253.402 122.477 253.402 122.477 253.796 124.022 c 0,12,13
 254.388 126.344 254.388 126.344 254.482 127.615 c 2,14,-1
 254.523 128.702 l 2,15,16
 254.489 131.574 254.489 131.574 253.432 134.669 c 0,17,18
 252.759 136.642 252.759 136.642 251.679 138.763 c 0,19,20
 246.461 149.014 246.461 149.014 230.681 154.807 c 0,21,22
 161.122 180.342 161.122 180.342 155.011 183.354 c 0,23,24
 119.567 200.821 119.567 200.821 103.054 239.604 c 0,25,26
 87.9775 275.009 87.9775 275.009 87.9775 314 c 0,27,28
 87.9775 335.481 87.9775 335.481 94.5186 358.257 c 0,29,30
 101.054 381.013 101.054 381.013 115.608 403.188 c 0,31,32
 131.116 426.812 131.116 426.812 161.51 441.203 c 0,33,34
 190.648 455 190.648 455 228.777 455 c 0,35,36
 302.722 455 302.722 455 339.43 407.967 c 2,37,-1
 349.097 395.581 l 1,38,-1
 289.479 298.245 l 1,39,-1
 276.629 316.984 l 2,40,41
 261.43 339.15 261.43 339.15 237.69 343.206 c 0,42,43
 233.695 343.889 233.695 343.889 230.338 343.889 c 0,44,45
 225.349 343.889 225.349 343.889 219.726 342.755 c 0,46,47
 211.267 341.05 211.267 341.05 202.848 333.066 c 0,48,49
 197.577 328.068 197.577 328.068 197.577 318 c 0,50,51
 197.577 296.916 197.577 296.916 223.161 286.41 c 2,52,-1
 260.69 277.427 l 1,53,-1
 261.566 277.083 l 2,54,55
 306.542 259.445 306.542 259.445 331.07 225.379 c 0,56,57
 356.497 190.064 356.497 190.064 357.961 150.422 c 0,58,59
 358.121 146.062 358.121 146.062 358.121 141.75 c 0,60,61
 358.121 109.854 358.121 109.854 349.338 80.9072 c 0,62,63
 339.293 47.8066 339.293 47.8066 319.835 24.5449 c 0,64,65
 296.758 -3.04395 296.758 -3.04395 267.285 -12.8301 c 0,66,67
 239.88 -21.9287 239.88 -21.9287 203.599 -22.9932 c 0,68,69
 201.843 -23.0449 201.843 -23.0449 200.73 -23.0449 c 0,70,71
 170.962 -23.0449 170.962 -23.0449 127.914 -1.00781 c 0,72,73
 80.4492 23.2891 80.4492 23.2891 63.3486 64.8535 c 2,74,-1
 57.6533 78.6973 l 1,0,-1
EndSplineSet
EndChar

StartChar: t
Encoding: 116 116 87
Width: 218
GlyphClass: 2
Flags: HW
LayerCount: 2
Fore
SplineSet
173.9 442 m 1,0,0
 212.3 442 l 1,1,-1
 212.3 318 l 1,2,-1
 173.1 318 l 1,0,0
 173.1 -22 l 1,1,-1
 65.0996 -22 l 1,2,-1
 65.0996 320 l 1,0,0
 30.7002 320 l 1,1,-1
 30.7002 442 l 1,2,-1
 67.5 442 l 1,0,0
 67.5 534 l 1,1,-1
 173.9 534 l 1,2,-1
 173.9 442 l 1,0,0
EndSplineSet
EndChar

StartChar: u
Encoding: 117 117 88
Width: 422
GlyphClass: 2
Flags: HW
LayerCount: 2
Fore
SplineSet
62.4062 308.257 m 0,0,1
 62.8047 347.128 62.8047 347.128 62.8047 356.5 c 2,2,-1
 62.8047 449 l 1,3,-1
 170.005 449 l 1,4,-1
 170.005 190 l 2,5,6
 170.005 156.146 170.005 156.146 178.818 136.152 c 0,7,8
 186.728 118.21 186.728 118.21 197.502 113.282 c 0,9,10
 204.301 110.173 204.301 110.173 211.727 110.173 c 0,11,12
 217.403 110.173 217.403 110.173 223.559 111.974 c 0,13,14
 238.934 116.472 238.934 116.472 252.56 129.767 c 128,-1,15
 266.208 143.081 266.208 143.081 275.801 166.206 c 0,16,17
 285.205 188.877 285.205 188.877 285.205 215.953 c 2,18,-1
 284.329 449 l 1,19,-1
 389.167 449 l 1,20,-1
 390.042 -20 l 1,21,-1
 284.097 -20 l 1,22,-1
 283.156 17.5938 l 1,23,24
 272.011 3.39258 272.011 3.39258 263.56 -1.88867 c 0,25,26
 234.582 -20 234.582 -20 203.604 -20 c 0,27,28
 125.533 -20 125.533 -20 92.7715 40.2578 c 0,29,30
 62.0049 96.8467 62.0049 96.8467 62.0049 199 c 0,31,32
 62.0049 269.128 62.0049 269.128 62.4062 308.257 c 0,0,1
EndSplineSet
EndChar

StartChar: v
Encoding: 118 118 89
Width: 420
GlyphClass: 2
Flags: HW
LayerCount: 2
Fore
SplineSet
421.785 448.664 m 1,0,-1
 230.586 -86.7852 l 1,1,-1
 46.6309 446.686 l 1,2,-1
 158.179 448.139 l 1,3,-1
 232.311 230.155 l 1,0,0
 314.297 450.141 l 1,1,-1
 421.785 448.664 l 1,0,-1
EndSplineSet
EndChar

StartChar: w
Encoding: 119 119 90
Width: 529
GlyphClass: 2
Flags: HW
LayerCount: 2
Fore
SplineSet
375.534 227.101 m 1,0,0
 440.421 450.152 l 1,1,-1
 547.97 448.691 l 1,2,-1
 393.251 -80.8545 l 1,3,-1
 309.445 123.474 l 1,0,0
 219.911 -78.8008 l 1,1,-1
 63.8662 446.703 l 1,2,-1
 174.68 448.146 l 1,3,-1
 241.458 222.593 l 1,0,0
 311.146 385.196 l 1,1,-1
 375.534 227.101 l 1,0,0
EndSplineSet
EndChar

StartChar: x
Encoding: 120 120 91
Width: 442
GlyphClass: 2
Flags: HW
LayerCount: 2
Fore
SplineSet
115.135 104.415 m 1,0,-1
 185.75 234.062 l 1,1,-1
 137.535 323.586 l 1,2,-1
 66.8867 446.678 l 1,3,-1
 202.868 448.095 l 1,4,-1
 249.325 351.645 l 1,5,-1
 300.487 448 l 1,6,-1
 423.768 448 l 1,7,-1
 343.213 296.959 l 1,8,-1
 310.635 235.027 l 1,9,-1
 446.219 -21.3545 l 1,10,-1
 322.917 -19.9004 l 1,11,-1
 248.465 117.895 l 1,12,-1
 229.815 82.3584 l 1,13,-1
 180.514 -20 l 1,14,-1
 44.4971 -20 l 1,15,-1
 115.135 104.415 l 1,0,-1
EndSplineSet
EndChar

StartChar: y
Encoding: 121 121 92
Width: 416
GlyphClass: 2
Flags: HW
LayerCount: 2
Fore
SplineSet
175.712 75.5176 m 1,0,0
 37.3721 446.676 l 1,1,-1
 149.195 448.132 l 1,2,-1
 234.082 226.022 l 1,0,0
 326.247 450.135 l 1,1,-1
 434.198 448.651 l 1,2,-1
 173.967 -220 l 1,3,-1
 51.918 -220 l 1,4,-1
 175.712 75.5176 l 1,0,0
EndSplineSet
EndChar

StartChar: z
Encoding: 122 122 93
Width: 400
GlyphClass: 2
Flags: HW
LayerCount: 2
Fore
SplineSet
74.3584 325.903 m 1,0,-1
 74.3584 444 l 1,1,-1
 402.654 444 l 1,2,-1
 342.91 331.981 l 1,3,-1
 224.732 106 l 1,0,0
 393.559 106 l 1,1,-1
 393.559 -20 l 1,2,-1
 36.9268 -20 l 1,3,-1
 225.627 326.816 l 1,0,0
 74.3584 325.903 l 1,0,-1
EndSplineSet
EndChar

StartChar: braceleft
Encoding: 123 123 94
Width: 236
GlyphClass: 2
Flags: HW
LayerCount: 2
Fore
SplineSet
214.113 -8.20312 m 2,0,-1
 220.3 -14.208 l 1,1,-1
 220.3 -167.991 l 1,2,-1
 197.292 -153.979 l 2,3,4
 131.175 -113.716 131.175 -113.716 88.4004 -37.4844 c 0,5,6
 45.4482 39.0645 45.4482 39.0645 37.9316 146.112 c 0,7,8
 37.8428 147.375 37.8428 147.375 38.3271 157.675 c 0,9,10
 38.7207 166.022 38.7207 166.022 39.1152 177.369 c 0,11,12
 39.2334 180.768 39.2334 180.768 39.2334 184.667 c 0,13,14
 39.2334 192.709 39.2334 192.709 38.7314 202.752 c 0,15,16
 37.9824 217.727 37.9824 217.727 36.1182 231.712 c 0,17,18
 34.3105 245.261 34.3105 245.261 30.6729 259.36 c 0,19,20
 27.3809 272.115 27.3809 272.115 22.6807 280.733 c 0,21,22
 18.5723 288.265 18.5723 288.265 11.8203 293.54 c 0,23,24
 6.11133 298 6.11133 298 -2.09961 298 c 1,25,-1
 -2.09961 338 l 1,26,27
 12.7568 338 12.7568 338 21.3154 356.154 c 0,28,29
 32.6855 380.271 32.6855 380.271 34.7637 409.284 c 0,30,31
 37.0664 441.425 37.0664 441.425 37.0996 471.5 c 0,32,33
 37.1309 499.792 37.1309 499.792 37.9883 505.238 c 0,34,35
 44.2734 608.868 44.2734 608.868 87.4004 682.332 c 0,36,37
 130.746 756.168 130.746 756.168 198.687 793.323 c 2,38,-1
 221.1 805.58 l 1,39,-1
 221.1 661.679 l 1,40,-1
 214.37 655.699 l 2,41,42
 153.609 601.709 153.609 601.709 145.088 503.741 c 0,43,44
 144.94 502.04 144.94 502.04 144.889 498.004 c 0,45,46
 144.838 493.968 144.838 493.968 144.804 486.501 c 0,47,48
 144.77 479.034 144.77 479.034 144.697 473.667 c 0,49,50
 144.288 442.94 144.288 442.94 141.836 408.716 c 0,51,52
 139.12 370.809 139.12 370.809 124.147 338.479 c 0,53,54
 119.507 328.462 119.507 328.462 113.675 320.988 c 1,55,56
 120.485 313.512 120.485 313.512 125.167 303.899 c 0,57,58
 131.668 290.55 131.668 290.55 136.631 272.502 c 0,59,60
 141.56 254.577 141.56 254.577 143.369 237.06 c 0,61,62
 145.037 220.887 145.037 220.887 145.87 203.71 c 0,63,64
 146.7 186.605 146.7 186.605 146.7 174.5 c 2,65,-1
 146.7 152.893 l 1,66,-1
 146.603 151.791 l 2,67,68
 146.146 146.664 146.146 146.664 145.892 145.226 c 0,69,70
 145.875 144.785 145.875 144.785 145.876 144.782 c 0,71,72
 151.598 52.4736 151.598 52.4736 214.113 -8.20312 c 2,0,-1
129.9 144 m 0,41,-1
EndSplineSet
EndChar

StartChar: bar
Encoding: 124 124 95
Width: 186
GlyphClass: 2
Flags: HW
LayerCount: 2
Fore
SplineSet
157.5 237.938 m 1,0,-1
 155.767 -20 l 1,1,-1
 49.5 -20 l 1,2,-1
 49.5 717 l 1,3,-1
 156.665 717 l 1,4,-1
 157.5 237.938 l 1,0,-1
EndSplineSet
EndChar

StartChar: braceright
Encoding: 125 125 96
Width: 232
GlyphClass: 2
Flags: HW
LayerCount: 2
Fore
SplineSet
53.0996 152.932 m 2,0,1
 52.2998 162.587 52.2998 162.587 52.2998 174.5 c 0,2,3
 52.2998 186.605 52.2998 186.605 53.1299 203.71 c 0,4,5
 53.9629 220.887 53.9629 220.887 55.6309 237.06 c 0,6,7
 57.4111 254.295 57.4111 254.295 61.8281 271.966 c 0,8,9
 66.4893 290.607 66.4893 290.607 73.6982 304.426 c 0,10,11
 78.5244 313.676 78.5244 313.676 85.2373 320.952 c 1,12,13
 79.2422 328.439 79.2422 328.439 74.5586 338.255 c 0,14,15
 59.0254 370.807 59.0254 370.807 56.7441 409.012 c 0,16,17
 54.71 443.089 54.71 443.089 54.3027 473.667 c 0,18,19
 54.2295 479.124 54.2295 479.124 54.1943 486.604 c 0,20,21
 54.1592 494.084 54.1592 494.084 54.1084 498.076 c 0,22,23
 54.0566 502.069 54.0566 502.069 53.9102 503.761 c 0,24,25
 45.3848 601.715 45.3848 601.715 -15.3701 655.699 c 2,26,-1
 -22.0996 661.679 l 1,27,-1
 -22.0996 805.58 l 1,28,-1
 0.313477 793.323 l 2,29,30
 68.2549 756.168 68.2549 756.168 111.6 682.332 c 0,31,32
 155.38 607.756 155.38 607.756 161.08 502.705 c 0,33,34
 161.581 493.479 161.581 493.479 161.896 472.345 c 0,35,36
 162.466 433.995 162.466 433.995 164.236 409.284 c 0,37,38
 166.315 380.271 166.315 380.271 177.684 356.154 c 0,39,40
 186.243 338 186.243 338 201.1 338 c 1,41,-1
 201.1 298 l 1,42,43
 192.889 298 192.889 298 187.18 293.54 c 0,44,45
 180.428 288.265 180.428 288.265 176.319 280.733 c 0,46,47
 171.485 271.872 171.485 271.872 167.779 258.812 c 0,48,49
 163.938 245.283 163.938 245.283 162.56 232.356 c 0,50,51
 161.033 218.052 161.033 218.052 160.269 202.752 c 0,52,53
 159.767 192.709 159.767 192.709 159.767 184.667 c 0,54,55
 159.767 180.769 159.767 180.769 159.885 177.369 c 0,56,57
 160.28 166.022 160.28 166.022 160.673 157.675 c 0,58,59
 161.156 147.386 161.156 147.386 161.068 146.112 c 0,60,61
 153.679 39.29 153.679 39.29 110.6 -37.4844 c 0,62,63
 67.8252 -113.716 67.8252 -113.716 1.70801 -153.979 c 2,64,-1
 -21.2998 -167.991 l 1,65,-1
 -21.2998 -14.208 l 1,66,-1
 -15.1123 -8.20312 l 2,67,68
 47.3281 52.4014 47.3281 52.4014 53.124 144.782 c 2,69,-1
 53.0996 152.932 l 2,0,1
69.0996 144 m 0,42,-1
EndSplineSet
EndChar

StartChar: asciitilde
Encoding: 126 126 97
Width: 449
GlyphClass: 2
Flags: HW
LayerCount: 2
Fore
SplineSet
363.6 600.816 m 1,0,1
 368.934 583.142 368.934 583.142 368.934 566.333 c 0,2,3
 368.934 556.652 368.934 556.652 367.165 547.367 c 0,4,5
 361.666 518.5 361.666 518.5 341.814 502.646 c 0,6,7
 324.85 489.099 324.85 489.099 305.464 484.37 c 0,8,9
 298.9 482.77 298.9 482.77 292.346 482.77 c 0,10,11
 277.644 482.77 277.644 482.77 263.435 490.762 c 0,12,13
 242.079 502.773 242.079 502.773 231.554 530.401 c 2,14,-1
 224.807 548.114 l 1,15,-1
 285.155 585.833 l 1,16,-1
 292.312 567.944 l 2,17,18
 293.996 563.73 293.996 563.73 296.48 563.39 c 1,19,20
 296.446 563.39 296.446 563.39 296.48 563.39 c 129,-1,21
 296.492 563.389 296.492 563.389 296.489 563.389 c 1,22,-1
 296.489 563.389 l 1,23,24
 297.343 563.311 297.343 563.311 297.537 563.312 c 0,25,26
 299.792 563.312 299.792 563.312 301.051 565.516 c 1,27,-1
 301.25 565.42 l 1,28,29
 301.188 565.991 301.188 565.991 300.943 566.785 c 1,30,31
 301.281 565.971 301.281 565.971 301.436 565.613 c 128,-1,32
 301.592 565.255 301.592 565.255 300.85 567.154 c 1,33,-1
 286.329 585.304 l 1,34,-1
 363.6 628.999 l 1,35,-1
 363.6 600.816 l 1,0,1
160.4 497.184 m 1,36,37
 155.066 514.858 155.066 514.858 155.066 531.667 c 0,38,39
 155.066 541.348 155.066 541.348 156.835 550.633 c 0,40,41
 162.334 579.5 162.334 579.5 182.186 595.354 c 0,42,43
 199.149 608.901 199.149 608.901 218.536 613.63 c 0,44,45
 225.1 615.23 225.1 615.23 231.654 615.23 c 0,46,47
 246.356 615.23 246.356 615.23 260.565 607.238 c 0,48,49
 281.921 595.227 281.921 595.227 292.446 567.599 c 2,50,-1
 299.193 549.886 l 1,51,-1
 238.845 512.167 l 1,52,-1
 231.688 530.056 l 2,53,54
 230.002 534.275 230.002 534.275 227.509 534.609 c 0,55,56
 226.649 534.689 226.649 534.689 226.463 534.688 c 0,57,58
 224.459 534.688 224.459 534.688 222.949 532.484 c 1,59,60
 222.684 531.802 222.684 531.802 222.856 531.551 c 128,-1,61
 223.028 531.301 223.028 531.301 223.056 531.226 c 129,-1,62
 223.04 531.271 223.04 531.271 223.047 531.273 c 1,63,-1
 223.211 530.771 l 1,64,-1
 237.671 512.696 l 1,65,-1
 160.4 469.001 l 1,66,-1
 160.4 497.184 l 1,36,37
227.509 534.609 m 129,-1,67
 227.527 534.609 227.527 534.609 227.509 534.609 c 129,-1,67
EndSplineSet
EndChar

StartChar: exclamdown
Encoding: 161 161 98
Width: 212
GlyphClass: 2
Flags: HW
LayerCount: 2
Fore
SplineSet
65.8164 -19 m 1,0,-1
 60.5801 462 l 1,1,-1
 165.419 462 l 1,2,-1
 169.783 -19 l 1,3,-1
 65.8164 -19 l 1,0,-1
68.958 692.491 m 128,-1,13
 88.3164 714 88.3164 714 112.069 714 c 128,-1,12
 135.823 714 135.823 714 155.112 691.899 c 128,-1,11
 174.4 669.798 174.4 669.798 174.4 632 c 0,9,10
 174.4 595.633 174.4 595.633 155.129 575.559 c 128,-1,8
 135.856 555.484 135.856 555.484 113.132 555.484 c 0,0,0
 112.385 555.484 112.385 555.484 100.345 555.826 c 128,-1,7
 88.3047 556.168 88.3047 556.168 68.9521 576.999 c 128,-1,6
 49.5996 597.829 49.5996 597.829 49.5996 634 c 0,4,5
 49.5996 670.981 49.5996 670.981 68.958 692.491 c 128,-1,13
EndSplineSet
EndChar

StartChar: yen
Encoding: 165 165 99
Width: 543
GlyphClass: 2
Flags: HW
LayerCount: 2
Fore
SplineSet
83.1299 220 m 1,0,-1
 515.939 220 l 1,1,-1
 513.611 92 l 1,2,-1
 80.8027 92 l 1,3,-1
 83.1299 220 l 1,0,-1
80.0029 400 m 1,4,-1
 512.812 400 l 1,5,-1
 515.139 272 l 1,6,-1
 82.3301 272 l 1,7,-1
 80.0029 400 l 1,4,-1
43.3662 712 m 1,8,-1
 166.552 712 l 1,9,-1
 303.422 454.427 l 1,10,-1
 437.285 712 l 1,11,-1
 560.344 712 l 1,12,-1
 359.571 328.043 l 1,13,-1
 359.571 -16.4424 l 1,14,-1
 242.418 -20.5869 l 1,15,-1
 248.293 325.627 l 1,16,-1
 43.3662 712 l 1,8,-1
EndSplineSet
EndChar

StartChar: dieresis
Encoding: 168 168 100
Width: 638
GlyphClass: 2
Flags: HW
LayerCount: 2
Fore
SplineSet
199.759 862.491 m 128,-1,1
 219.117 884 219.117 884 242.654 884 c 128,-1,2
 266.192 884 266.192 884 285.697 863.684 c 128,-1,3
 305.2 843.367 305.2 843.367 305.2 807 c 0,4,5
 305.2 769.202 305.2 769.202 285.912 747.101 c 128,-1,6
 266.623 725 266.623 725 242.87 725 c 128,-1,7
 219.117 725 219.117 725 199.759 746.509 c 128,-1,8
 180.4 768.019 180.4 768.019 180.4 805 c 0,9,0
 180.4 840.981 180.4 840.981 199.759 862.491 c 128,-1,1
398.158 857.491 m 128,-1,11
 417.517 879 417.517 879 441.055 879 c 128,-1,12
 464.593 879 464.593 879 484.097 858.684 c 128,-1,13
 503.6 838.367 503.6 838.367 503.6 802 c 0,14,15
 503.6 764.202 503.6 764.202 484.312 742.101 c 128,-1,16
 465.023 720 465.023 720 441.27 720 c 128,-1,17
 417.517 720 417.517 720 398.158 741.509 c 128,-1,18
 378.8 763.019 378.8 763.019 378.8 800 c 0,19,10
 378.8 835.981 378.8 835.981 398.158 857.491 c 128,-1,11
EndSplineSet
EndChar

StartChar: guillemotleft
Encoding: 171 171 101
Width: 530
GlyphClass: 2
Flags: HW
LayerCount: 2
Fore
SplineSet
417.585 465.934 m 1,0,-1
 417.585 330.409 l 1,1,-1
 366.629 287.129 l 1,0,0
 417.498 239.031 l 1,1,-1
 418.737 97.9873 l 1,2,-1
 211.605 289.635 l 1,3,-1
 417.585 465.934 l 1,0,-1
251.985 467.676 m 1,4,-1
 251.985 333.521 l 1,5,-1
 201.023 289.42 l 1,0,0
 251.897 242.133 l 1,1,-1
 253.135 99.9492 l 1,2,-1
 45.1143 292.748 l 1,3,-1
 251.985 467.676 l 1,4,-1
EndSplineSet
EndChar

StartChar: degree
Encoding: 176 176 102
Width: 504
GlyphClass: 2
Flags: HW
LayerCount: 2
Fore
SplineSet
280.473 807.628 m 0,0,1
 280.325 807.628 280.325 807.628 280.2 807.605 c 0,2,3
 279.706 807.517 279.706 807.517 278.462 806.725 c 0,4,5
 276.8 805.666 276.8 805.666 276.8 802 c 0,6,7
 276.8 797.896 276.8 797.896 277.986 797.11 c 0,8,9
 278.014 797.095 278.014 797.095 278.146 797.013 c 0,10,11
 278.678 796.683 278.678 796.683 278.802 796.621 c 0,12,13
 279.532 796.252 279.532 796.252 280.089 796.252 c 0,14,15
 280.397 796.271 280.397 796.271 280.463 796.281 c 0,16,17
 281.292 796.418 281.292 796.418 282.617 797.244 c 128,-1,18
 284 798.105 284 798.105 284 803 c 0,19,20
 284 805.857 284 805.857 282.618 806.756 c 0,21,22
 282.438 806.916 282.438 806.916 281.76 807.248 c 0,23,24
 281.245 807.501 281.245 807.501 280.473 807.628 c 0,0,1
280.473 807.628 m 1,25,-1
 280.473 807.628 l 1,25,-1
280.089 796.252 m 1,26,-1
 280.089 796.252 l 1,26,-1
277.986 797.11 m 1,27,28
 278 797.102 278 797.102 278.007 797.096 c 1,29,-1
 277.986 797.11 l 1,27,28
278.007 797.096 m 1,30,-1
 278.007 797.096 l 1,30,-1
229.903 864.426 m 128,-1,32
 251.808 886.205 251.808 886.205 275.768 886.205 c 0,33,34
 278.481 886.205 278.481 886.205 292.761 884.832 c 128,-1,35
 307.041 883.459 307.041 883.459 329.52 860.468 c 128,-1,36
 352 837.479 352 837.479 352 799 c 0,37,38
 352 758.688 352 758.688 329.449 734.982 c 128,-1,39
 306.897 711.278 306.897 711.278 293.082 710.614 c 128,-1,40
 279.268 709.95 279.268 709.95 277.928 709.95 c 0,41,42
 252.367 709.95 252.367 709.95 230.184 733.898 c 128,-1,43
 208 757.847 208 757.847 208 801 c 0,44,31
 208 842.646 208 842.646 229.903 864.426 c 128,-1,32
EndSplineSet
EndChar

StartChar: plusminus
Encoding: 177 177 103
Width: 445
GlyphClass: 2
Flags: HW
LayerCount: 2
Fore
SplineSet
419.2 107 m 1,0,-1
 76.7998 107 l 1,1,-1
 76.7998 236.948 l 1,2,-1
 419.2 238.052 l 1,3,-1
 419.2 107 l 1,0,-1
300.104 453.147 m 1,0,0
 300.904 298 l 1,1,-1
 196 298 l 1,2,-1
 196 452.857 l 1,0,0
 83.2002 451.857 l 1,1,-1
 83.2002 582.141 l 1,2,-1
 197.266 581.144 l 1,0,0
 194.868 727 l 1,1,-1
 299.2 727 l 1,2,-1
 299.2 583.146 l 1,0,0
 408.8 584.146 l 1,1,-1
 408.8 454.146 l 1,2,-1
 300.104 453.147 l 1,0,0
EndSplineSet
EndChar

StartChar: uni00B2
Encoding: 178 178 104
Width: 372
GlyphClass: 2
Flags: HW
LayerCount: 2
Fore
SplineSet
280.391 734.539 m 2,1,2
 294.889 762.421 294.889 762.421 294.889 783.766 c 0,0,0
 294.889 787.396 294.889 787.396 293.521 797.998 c 128,-1,3
 292.153 808.598 292.153 808.598 275.379 813.531 c 0,4,5
 273.001 814.23 273.001 814.23 270.333 814.23 c 0,0,0
 263.364 814.23 263.364 814.23 253.645 809.145 c 128,-1,6
 243.925 804.059 243.925 804.059 240.622 791.676 c 2,7,-1
 234.12 767.291 l 1,8,-1
 173.767 815.651 l 1,9,-1
 179.778 831.548 l 2,8,9
 204.18 896.07 204.18 896.07 267.157 896.07 c 0,0,0
 268.438 896.07 268.438 896.07 271.432 895.994 c 0,10,11
 318.092 894.806 318.092 894.806 340.764 864.765 c 128,-1,12
 363.437 834.724 363.437 834.724 363.437 793.3 c 0,0,0
 363.437 784.689 363.437 784.689 360.527 755.595 c 128,-1,13
 357.617 726.5 357.617 726.5 327.16 673.199 c 2,14,-1
 277.563 590.294 l 1,0,0
 371.043 591.146 l 1,1,-1
 371.043 505 l 1,2,-1
 139.39 505 l 1,3,-1
 280.391 734.539 l 2,1,2
EndSplineSet
EndChar

StartChar: uni00B3
Encoding: 179 179 105
Width: 355
GlyphClass: 2
Flags: HW
LayerCount: 2
Fore
SplineSet
277.464 767.09 m 128,-1,2
 280.67 776.38 280.67 776.38 280.67 784.125 c 0,0,0
 280.67 791.278 280.67 791.278 277.958 798.056 c 0,3,4
 273.337 809.609 273.337 809.609 259.286 813.453 c 0,5,6
 254.44 814.777 254.44 814.777 248.843 814.777 c 0,0,0
 241.882 814.777 241.882 814.777 233.156 812.181 c 128,-1,7
 224.433 809.585 224.433 809.585 219.855 799.287 c 2,8,-1
 211.636 780.792 l 1,9,-1
 152.541 827.446 l 1,10,-1
 162.49 844.696 l 2,9,10
 190.978 894.089 190.978 894.089 252.084 894.089 c 0,0,0
 252.921 894.089 252.921 894.089 254.696 894.044 c 0,1,2
 256.472 893.998 256.472 893.998 257.294 893.996 c 0,11,12
 287.496 893.912 287.496 893.912 310.693 875.185 c 128,-1,13
 333.891 856.457 333.891 856.457 341.771 833.132 c 128,-1,14
 349.649 809.808 349.649 809.808 349.649 788.656 c 0,0,0
 349.649 777.884 349.649 777.884 347.04 759.62 c 128,-1,15
 344.431 741.355 344.431 741.355 331.771 719.457 c 1,0,0
 352.253 688.137 352.253 688.137 356.307 663.469 c 128,-1,18
 360.362 638.801 360.362 638.801 360.362 625.069 c 0,0,0
 360.362 598.511 360.362 598.511 349.291 570.832 c 128,-1,19
 338.22 543.153 338.22 543.153 310.88 521.143 c 128,-1,20
 283.54 499.132 283.54 499.132 249.365 499.007 c 0,21,22
 248.434 499.004 248.434 499.004 246.365 498.936 c 0,23,24
 244.298 498.867 244.298 498.867 243.313 498.867 c 0,0,0
 199.077 498.867 199.077 498.867 155.995 527.316 c 2,23,-1
 138.333 538.98 l 1,24,-1
 182.25 603.342 l 1,25,-1
 193.168 597.276 l 2,24,25
 206.413 589.918 206.413 589.918 216.789 586.459 c 128,-1,26
 227.166 583 227.166 583 230.118 583 c 130,-1,27
 250.67 583 l 2,28,29
 271.037 583 271.037 583 279.723 598.847 c 128,-1,30
 288.41 614.694 288.41 614.694 288.41 628.878 c 0,0,0
 288.41 635.549 288.41 635.549 285.457 649.01 c 128,-1,31
 282.505 662.471 282.505 662.471 266.186 670.073 c 1,0,0
 216.677 671.419 l 1,1,-1
 215.053 748.518 l 1,2,-1
 263.127 749.948 l 1,0,0
 265.251 750.579 265.251 750.579 266.303 751.133 c 0,1,2
 268.039 752.047 268.039 752.047 269.56 753.454 c 0,3,4
 274.258 757.8 274.258 757.8 277.464 767.09 c 128,-1,2
EndSplineSet
EndChar

StartChar: acute
Encoding: 180 180 106
Width: 877
GlyphClass: 2
Flags: HW
LayerCount: 2
Fore
SplineSet
416.905 1014.89 m 1,0,-1
 488.711 909.211 l 1,1,-1
 343.355 764.572 l 1,2,-1
 281.531 837.216 l 1,3,-1
 416.905 1014.89 l 1,0,-1
EndSplineSet
EndChar

StartChar: uni00B9
Encoding: 185 185 107
Width: 261
GlyphClass: 2
Flags: HW
LayerCount: 2
Fore
SplineSet
228.849 589 m 1,0,-1
 229.648 589 l 1,1,-1
 229.648 510 l 1,2,-1
 158.449 510 l 1,3,-1
 158.449 568.954 l 1,4,-1
 157.777 751.229 l 1,5,-1
 114.84 799.704 l 1,6,-1
 180.698 877.079 l 1,7,-1
 227.36 940.107 l 1,8,-1
 228.848 832.172 l 1,9,-1
 228.849 589 l 1,0,-1
EndSplineSet
EndChar

StartChar: guillemotright
Encoding: 187 187 108
Width: 533
GlyphClass: 2
Flags: HW
LayerCount: 2
Fore
SplineSet
60.415 465.934 m 1,0,-1
 266.395 289.635 l 1,1,-1
 59.2627 97.9873 l 1,2,-1
 60.502 239.031 l 1,3,-1
 111.371 287.129 l 1,0,0
 60.415 330.409 l 1,1,-1
 60.415 465.934 l 1,0,-1
226.015 467.676 m 1,2,-1
 432.886 292.748 l 1,3,-1
 224.865 99.9492 l 1,4,-1
 226.102 242.133 l 1,5,-1
 276.977 289.42 l 1,0,0
 226.015 333.521 l 1,1,-1
 226.015 467.676 l 1,2,-1
EndSplineSet
EndChar

StartChar: questiondown
Encoding: 191 191 109
Width: 493
GlyphClass: 2
Flags: HW
LayerCount: 2
Fore
SplineSet
331.072 104.72 m 128,-1,2
 345.375 112.439 345.375 112.439 353.511 124.82 c 128,-1,3
 361.646 137.2 361.646 137.2 374.005 153.679 c 2,4,-1
 388.4 172.873 l 1,5,-1
 439.096 68.7666 l 1,6,-1
 431.235 57.7129 l 2,5,6
 403.305 18.4346 403.305 18.4346 368.164 -0.783203 c 128,-1,7
 333.024 -20 333.024 -20 284.877 -20 c 0,8,9
 207.277 -20 207.277 -20 160.478 35.7148 c 128,-1,10
 113.678 91.4287 113.678 91.4287 113.678 182 c 0,11,12
 113.678 227.78 113.678 227.78 129.496 266.778 c 128,-1,13
 145.314 305.776 145.314 305.776 179.766 349.891 c 2,14,-1
 213.218 393.695 l 2,15,16
 240.305 430.3 240.305 430.3 244.591 447.197 c 128,-1,17
 248.877 464.095 248.877 464.095 248.877 513 c 2,18,-1
 248.877 514.173 l 1,19,-1
 252.164 549.104 l 1,20,-1
 360.596 556.091 l 1,21,-1
 359.273 501.697 l 2,21,22
 359.273 439.397 359.273 439.397 345.11 402.882 c 128,-1,23
 330.947 366.367 330.947 366.367 298.852 325.192 c 2,24,-1
 264.7 279.527 l 2,25,26
 257.794 269.815 257.794 269.815 250.829 262.077 c 128,-1,27
 243.864 254.339 243.864 254.339 238.115 244.906 c 128,-1,28
 232.366 235.474 232.366 235.474 227.859 226.805 c 128,-1,29
 223.351 218.136 223.351 218.136 221.234 210.528 c 128,-1,30
 219.117 202.921 219.117 202.921 219.117 196.78 c 2,0,0
 219.247 193.091 l 2,31,32
 220.275 145.346 220.275 145.346 238.223 121.173 c 0,33,34
 256.169 97 256.169 97 295.277 97 c 0,0,1
 316.771 97 316.771 97 331.072 104.72 c 128,-1,2
347.926 632.999 m 128,-1,35
 328.572 612.168 328.572 612.168 316.532 611.826 c 128,-1,36
 304.492 611.484 304.492 611.484 303.745 611.484 c 0,0,0
 281.021 611.484 281.021 611.484 261.748 631.559 c 128,-1,37
 242.478 651.633 242.478 651.633 242.478 688 c 0,38,39
 242.478 725.798 242.478 725.798 261.766 747.899 c 128,-1,40
 281.054 770 281.054 770 304.808 770 c 128,-1,41
 328.561 770 328.561 770 347.919 748.491 c 128,-1,42
 367.277 726.981 367.277 726.981 367.277 690 c 0,33,34
 367.277 653.829 367.277 653.829 347.926 632.999 c 128,-1,35
EndSplineSet
EndChar

StartChar: Odieresis
Encoding: 214 214 127
Width: 724
GlyphClass: 2
Flags: HW
LayerCount: 2
Fore
SplineSet
393.651 -3 m 0
EndSplineSet
Refer: 50 79 N 1 0 0 1 0 0 2
Refer: 100 168 S 1 0 0 1 20.8 0 2
EndChar

StartChar: multiply
Encoding: 215 215 128
Width: 445
GlyphClass: 2
Flags: HW
LayerCount: 2
Fore
SplineSet
319.592 360.138 m 1,0,0
 407.65 251.064 l 1,1,-1
 333.822 158.78 l 1,2,-1
 245.938 267.638 l 1,0,0
 167.486 167.572 l 1,1,-1
 93.5439 260 l 1,2,-1
 174.064 360.65 l 1,0,0
 90.0645 460.65 l 1,1,-1
 164.172 553.284 l 1,2,-1
 245.654 451.431 l 1,0,0
 322.455 549.431 l 1,1,-1
 396.34 457.073 l 1,2,-1
 319.592 360.138 l 1,0,0
EndSplineSet
EndChar

StartChar: germandbls
Encoding: 223 223 130
Width: 465
GlyphClass: 2
Flags: HW
LayerCount: 2
Fore
SplineSet
261.214 -19.9502 m 1,0,-1
 110.019 -20 l 1,1,-1
 110.019 -19.4121 l 1,2,-1
 70.8184 -20.4121 l 1,3,-1
 70.8184 708 l 1,4,-1
 251.663 708 l 1,5,-1
 254.001 706.051 l 1,6,7
 290.837 705.823 290.837 705.823 321.014 687.487 c 0,8,9
 353.383 667.818 353.383 667.818 372.129 635.814 c 0,10,11
 390.43 604.569 390.43 604.569 397.979 565.157 c 0,12,13
 402.547 541.308 402.547 541.308 402.547 518.314 c 0,14,15
 402.547 503.309 402.547 503.309 400.601 488.712 c 0,16,17
 395.566 450.959 395.566 450.959 376.071 418.089 c 0,18,19
 367.879 404.276 367.879 404.276 357.405 393.102 c 1,20,21
 376.343 383.956 376.343 383.956 392.192 366.51 c 0,22,23
 422.209 333.469 422.209 333.469 435.179 285.391 c 0,24,25
 445.363 247.643 445.363 247.643 445.363 205.504 c 0,26,27
 445.363 195.419 445.363 195.419 444.778 185.09 c 0,28,29
 441.748 131.519 441.748 131.519 423.061 85.8867 c 0,30,31
 403.736 38.7012 403.736 38.7012 362.917 8.75195 c 0,32,33
 324.904 -19.1377 324.904 -19.1377 275.199 -19.1377 c 0,34,35
 272.137 -19.1377 272.137 -19.1377 268.979 -19.0293 c 2,36,-1
 261.214 -19.9502 l 1,0,-1
218.019 596 m 1,37,-1
 172.393 596 l 1,38,-1
 172.169 424 l 1,39,-1
 186.818 424 l 2,40,41
 197.598 424 197.598 424 219.978 425.473 c 0,42,43
 222.434 425.634 222.434 425.634 232.321 426.098 c 0,44,45
 242.21 426.562 242.21 426.562 244.689 426.967 c 0,46,47
 267.179 430.637 267.179 430.637 282.029 448.797 c 0,48,49
 296.501 466.493 296.501 466.493 298.964 489.188 c 0,50,51
 299.885 497.683 299.885 497.683 299.885 506.111 c 0,52,53
 299.885 522.959 299.885 522.959 296.194 539.682 c 0,54,55
 291.218 562.229 291.218 562.229 274.663 578.146 c 0,56,57
 257.986 594.183 257.986 594.183 233.586 595.008 c 2,58,-1
 218.019 596 l 1,37,-1
172.026 314 m 1,59,-1
 171.768 115 l 1,60,-1
 278.818 115 l 2,61,62
 303.581 115 303.581 115 318.938 133.428 c 0,63,64
 334.776 152.435 334.776 152.435 337.321 180.271 c 0,65,66
 338.242 190.339 338.242 190.339 338.242 200.349 c 0,67,68
 338.242 221.612 338.242 221.612 334.083 242.716 c 0,69,70
 328.43 271.396 328.43 271.396 310.348 292.325 c 0,71,72
 293.167 312.211 293.167 312.211 269.586 313.007 c 2,73,-1
 254.019 313.533 l 1,74,-1
 186.818 314 l 1,75,-1
 172.026 314 l 1,59,-1
EndSplineSet
EndChar

StartChar: dotlessi
Encoding: 305 305 165
Width: 186
GlyphClass: 2
Flags: HW
LayerCount: 2
Fore
SplineSet
52.1172 453 m 1,0,-1
 157.791 453 l 1,1,-1
 157.791 -22 l 1,2,-1
 53.8643 -22 l 1,3,-1
 52.1172 453 l 1,0,-1
EndSplineSet
EndChar

StartChar: jcircumflex
Encoding: 309 309 167
Width: 186
GlyphClass: 2
Flags: HW
LayerCount: 2
Fore
SplineSet
52.4775 450 m 1,0,-1
 158.108 450 l 1,1,-1
 157.248 -122 l 1,2,-1
 52.4775 -122 l 1,3,-1
 52.4775 450 l 1,0,-1
EndSplineSet
Refer: 65 94 S 1 0 0 1 -156 -35 2
EndChar

StartChar: uni030A
Encoding: 778 778 174
Width: 138
GlyphClass: 2
Flags: HW
LayerCount: 2
Fore
SplineSet
76.1113 796.748 m 0,0,1
 75.8262 796.731 75.8262 796.731 75.7715 796.723 c 0,2,3
 75.3818 796.657 75.3818 796.657 74.0205 795.914 c 0,4,5
 72.7998 795.248 72.7998 795.248 72.7998 791 c 0,6,7
 72.7998 786.9 72.7998 786.9 73.999 786.102 c 0,8,9
 74.0137 786.093 74.0137 786.093 74.0205 786.086 c 1,10,11
 74.0068 786.102 74.0068 786.102 73.999 786.102 c 1,12,13
 74.6973 785.681 74.6973 785.681 74.7129 785.673 c 0,14,15
 75.1035 785.477 75.1035 785.477 75.7266 785.372 c 0,16,17
 76.8232 785.539 76.8232 785.539 78.1816 786.45 c 0,18,19
 80 787.668 80 787.668 80 792 c 0,20,21
 80 794.857 80 794.857 78.6191 795.756 c 0,22,23
 78.373 795.956 78.373 795.956 77.667 796.301 c 0,24,25
 77.083 796.588 77.083 796.588 76.1113 796.748 c 0,0,1
76.1113 796.748 m 1,26,-1
 76.1113 796.748 l 1,26,-1
75.7266 785.372 m 1,27,-1
 75.7266 785.372 l 1,27,-1
25.9434 854.016 m 128,-1,10
 47.8857 875.211 47.8857 875.211 71.6562 875.211 c 0,0,0
 74.4238 875.211 74.4238 875.211 88.7324 873.835 c 128,-1,11
 103.041 872.459 103.041 872.459 125.52 849.468 c 128,-1,12
 148 826.479 148 826.479 148 788 c 0,13,14
 148 747.688 148 747.688 125.383 723.913 c 128,-1,15
 102.767 700.14 102.767 700.14 89.1846 699.812 c 128,-1,16
 75.6025 699.486 75.6025 699.486 74.9082 699.486 c 0,0,0
 48.9043 699.486 48.9043 699.486 26.4521 723.086 c 128,-1,17
 4 746.688 4 746.688 4 790 c 0,8,9
 4 832.82 4 832.82 25.9434 854.016 c 128,-1,10
EndSplineSet
EndChar

StartChar: Delta
Encoding: 916 916 175
Width: 606
GlyphClass: 2
Flags: HW
LayerCount: 2
Fore
SplineSet
378.073 647.125 m 1,1,-1
 614.454 -19 l 1,2,-1
 513.946 -18.999 l 1,3,-1
 445.146 -19.999 l 1,4,-1
 224.955 -19.999 l 1,5,-1
 160.155 -18.999 l 1,6,-1
 60.0811 -19 l 1,7,-1
 291.861 663.621 l 1,8,-1
 329.857 782.365 l 1,9,-1
 378.073 647.125 l 1,1,-1
462.677 102 m 1,0,0
 332.291 463.068 l 1,0,0
 215.947 102 l 1,0,0
 462.677 102 l 1,0,0
EndSplineSet
EndChar

StartChar: beta
Encoding: 946 946 176
Width: 465
GlyphClass: 2
Flags: HW
LayerCount: 2
Fore
SplineSet
171.597 -140 m 1,0,-1
 110.019 -140 l 1,1,-1
 110.019 -139.412 l 1,2,-1
 70.8184 -140.412 l 1,3,-1
 70.8184 708 l 1,4,-1
 251.663 708 l 1,5,-1
 254.001 706.051 l 1,6,7
 290.837 705.823 290.837 705.823 321.014 687.487 c 0,8,9
 353.383 667.818 353.383 667.818 372.129 635.814 c 0,10,11
 390.43 604.569 390.43 604.569 397.979 565.157 c 0,12,13
 402.547 541.308 402.547 541.308 402.547 518.314 c 0,14,15
 402.547 503.309 402.547 503.309 400.601 488.712 c 0,16,17
 395.566 450.959 395.566 450.959 376.071 418.089 c 0,18,19
 367.879 404.276 367.879 404.276 357.405 393.102 c 1,20,21
 376.343 383.956 376.343 383.956 392.192 366.51 c 0,22,23
 422.209 333.469 422.209 333.469 435.179 285.391 c 0,24,25
 445.363 247.643 445.363 247.643 445.363 205.504 c 0,26,27
 445.363 195.419 445.363 195.419 444.778 185.09 c 0,28,29
 441.748 131.519 441.748 131.519 423.061 85.8867 c 0,30,31
 403.736 38.7012 403.736 38.7012 362.917 8.75195 c 0,32,33
 324.904 -19.1377 324.904 -19.1377 275.199 -19.1377 c 0,34,35
 272.137 -19.1377 272.137 -19.1377 268.979 -19.0293 c 2,36,-1
 261.214 -19.9502 l 1,37,-1
 171.727 -20 l 1,38,-1
 171.597 -140 l 1,0,-1
218.019 596 m 1,39,-1
 172.396 596 l 1,40,-1
 172.209 424 l 1,41,-1
 186.818 424 l 2,42,43
 197.598 424 197.598 424 219.978 425.473 c 0,44,45
 222.434 425.634 222.434 425.634 232.321 426.098 c 0,46,47
 242.21 426.562 242.21 426.562 244.689 426.967 c 0,48,49
 267.179 430.637 267.179 430.637 282.029 448.797 c 0,50,51
 296.501 466.493 296.501 466.493 298.964 489.188 c 0,52,53
 299.885 497.683 299.885 497.683 299.885 506.111 c 0,54,55
 299.885 522.959 299.885 522.959 296.194 539.682 c 0,56,57
 291.218 562.229 291.218 562.229 274.663 578.146 c 0,58,59
 257.986 594.183 257.986 594.183 233.586 595.008 c 2,60,-1
 218.019 596 l 1,39,-1
172.09 314 m 1,61,-1
 171.873 115 l 1,62,-1
 278.818 115 l 2,63,64
 303.581 115 303.581 115 318.938 133.428 c 0,65,66
 334.776 152.435 334.776 152.435 337.321 180.271 c 0,67,68
 338.242 190.339 338.242 190.339 338.242 200.349 c 0,69,70
 338.242 221.612 338.242 221.612 334.083 242.716 c 0,71,72
 328.43 271.396 328.43 271.396 310.348 292.325 c 0,73,74
 293.167 312.211 293.167 312.211 269.586 313.007 c 2,75,-1
 254.019 313.533 l 1,76,-1
 186.818 314 l 1,77,-1
 172.09 314 l 1,61,-1
EndSplineSet
EndChar

StartChar: quoteleft
Encoding: 8216 8216 177
Width: 167
GlyphClass: 2
Flags: HW
LayerCount: 2
Fore
SplineSet
136.361 612.812 m 0,0,1
 135.704 594.893 135.704 594.893 129.493 582.134 c 0,2,3
 127.294 577.616 127.294 577.616 124.415 573.441 c 0,4,5
 111.269 554.378 111.269 554.378 93.8281 548.247 c 0,6,7
 88.2129 546.271 88.2129 546.271 82.5732 546.271 c 0,8,9
 66.9668 546.271 66.9668 546.271 54.7012 559.383 c 0,10,11
 49.8906 564.523 49.8906 564.523 46.9795 569.261 c 0,12,13
 36.5352 586.258 36.5352 586.258 34.3564 614.306 c 0,14,15
 34.0342 618.45 34.0342 618.45 34.0342 625.734 c 0,16,17
 34.0342 671.034 34.0342 671.034 54.0488 709.838 c 0,18,19
 76.6982 753.749 76.6982 753.749 103.637 764.974 c 2,20,-1
 148.928 783.845 l 1,21,-1
 121.88 734.67 l 2,22,23
 115.808 723.626 115.808 723.626 115.09 693.444 c 2,24,-1
 115.034 688.598 l 2,25,26
 115.319 670.476 115.319 670.476 117.837 662.581 c 0,27,28
 118.428 660.729 118.428 660.729 119.092 659.479 c 0,29,30
 134.718 644.043 134.718 644.043 135.87 621.686 c 0,31,32
 135.886 621.367 135.886 621.367 136.155 617.969 c 0,33,34
 136.425 614.57 136.425 614.57 136.361 612.812 c 0,0,1
EndSplineSet
EndChar

StartChar: quoteright
Encoding: 8217 8217 178
Width: 169
GlyphClass: 2
Flags: HW
LayerCount: 2
Fore
SplineSet
47.5947 691.885 m 0,0,0
 47.5947 711.509 47.5947 711.509 58.1621 730.121 c 128,-1,2
 68.7285 748.733 68.7285 748.733 80.9463 754.153 c 128,-1,3
 93.165 759.572 93.165 759.572 99.5596 759.333 c 0,0,0
 109.888 758.948 109.888 758.948 118.673 753.523 c 0,1,2
 123.14 750.765 123.14 750.765 127.129 746.925 c 128,-1,4
 131.119 743.085 131.119 743.085 133.768 739.414 c 0,5,6
 134.989 737.722 134.989 737.722 136.125 735.895 c 0,7,8
 145.87 720.223 145.87 720.223 149.051 696.109 c 0,5,6
 150.296 686.667 150.296 686.667 150.296 673.99 c 0,0,0
 150.296 635.238 150.296 635.238 132.715 594.354 c 128,-1,7
 115.133 553.467 115.133 553.467 90.0918 539.693 c 2,8,9
 46.1865 515.546 l 1,10,-1
 69.7031 567.806 l 2,8,9
 73.5391 576.33 73.5391 576.33 73.5391 598.239 c 0,0,0
 73.5391 604.807 73.5391 604.807 72.8867 617.27 c 128,-1,10
 72.2354 629.733 72.2354 629.733 69.249 638.41 c 0,11,12
 68.165 641.558 68.165 641.558 67.9326 641.753 c 0,11,12
 51.0166 655.98 51.0166 655.98 48.5869 679.141 c 0,0,0
 47.5947 688.601 47.5947 688.601 47.5947 691.885 c 0,0,0
EndSplineSet
EndChar

StartChar: quotedblleft
Encoding: 8220 8220 179
Width: 264
GlyphClass: 2
Flags: HW
LayerCount: 2
Fore
SplineSet
247.024 616.918 m 0,0,0
 247.024 594.842 247.024 594.842 234.65 575.507 c 128,-1,2
 222.276 556.173 222.276 556.173 210.064 552.472 c 128,-1,3
 197.854 548.771 197.854 548.771 193.471 549 c 0,0,0
 181.496 549.625 181.496 549.625 172.182 556.138 c 0,1,2
 167.436 559.457 167.436 559.457 163.524 563.8 c 128,-1,4
 159.613 568.143 159.613 568.143 157.148 572.096 c 0,5,6
 156.542 573.069 156.542 573.069 155.017 575.788 c 0,7,8
 146.392 591.923 146.392 591.923 144.449 616.49 c 0,5,6
 144.272 618.723 144.272 618.723 144.272 624.882 c 0,0,0
 144.272 671.71 144.272 671.71 165.495 713.713 c 128,-1,7
 186.718 755.716 186.718 755.716 213.736 766.974 c 2,8,9
 261.426 786.845 l 1,10,-1
 231.698 736.173 l 2,8,9
 225.924 726.33 225.924 726.33 225.746 710.119 c 128,-1,10
 225.569 693.908 225.569 693.908 225.579 693.372 c 0,0,0
 225.938 673.146 225.938 673.146 228.325 665.086 c 0,1,2
 228.803 663.47 228.803 663.47 229.344 662.33 c 1,0,0
 245.446 646.358 245.446 646.358 246.729 623.77 c 0,0,1
 247.024 618.57 247.024 618.57 247.024 616.918 c 0,0,0
148.86 612.812 m 0,0,1
 148.204 594.893 148.204 594.893 141.993 582.134 c 0,2,3
 139.794 577.616 139.794 577.616 136.914 573.441 c 0,4,5
 123.768 554.378 123.768 554.378 106.328 548.247 c 0,6,7
 100.712 546.271 100.712 546.271 95.0732 546.271 c 0,8,9
 79.4668 546.271 79.4668 546.271 67.2012 559.383 c 0,10,11
 62.3906 564.523 62.3906 564.523 59.4795 569.261 c 0,12,13
 49.0352 586.258 49.0352 586.258 46.8564 614.306 c 0,14,15
 46.5342 618.45 46.5342 618.45 46.5342 625.734 c 0,16,17
 46.5342 671.034 46.5342 671.034 66.5479 709.838 c 0,18,19
 89.1973 753.749 89.1973 753.749 116.137 764.974 c 2,20,-1
 161.427 783.845 l 1,21,-1
 134.38 734.67 l 2,22,23
 128.308 723.626 128.308 723.626 127.59 693.444 c 2,24,-1
 127.534 688.598 l 2,25,26
 127.819 670.476 127.819 670.476 130.337 662.581 c 0,27,28
 130.927 660.729 130.927 660.729 131.591 659.479 c 0,29,30
 147.218 644.043 147.218 644.043 148.369 621.686 c 0,31,32
 148.386 621.367 148.386 621.367 148.655 617.969 c 0,33,34
 148.925 614.57 148.925 614.57 148.86 612.812 c 0,0,1
EndSplineSet
EndChar

StartChar: quotedblright
Encoding: 8221 8221 180
Width: 319
GlyphClass: 2
Flags: HW
LayerCount: 2
Fore
SplineSet
169.096 694.458 m 0,0,0
 169.485 703.664 169.485 703.664 170.458 708.651 c 0,1,2
 170.909 710.964 170.909 710.964 171.508 713.243 c 0,3,4
 173.837 722.102 173.837 722.102 182.044 737.021 c 128,-1,2
 190.251 751.943 190.251 751.943 202.513 756.888 c 128,-1,3
 214.775 761.832 214.775 761.832 220.79 761.613 c 0,0,0
 231.071 761.238 231.071 761.238 239.833 756.073 c 0,1,2
 244.371 753.396 244.371 753.396 248.403 749.67 c 128,-1,4
 252.436 745.943 252.436 745.943 255.127 742.311 c 0,5,6
 266.963 726.333 266.963 726.333 270.554 699.08 c 0,5,6
 271.795 689.654 271.795 689.654 271.795 676.625 c 0,0,0
 271.795 637.291 271.795 637.291 254.264 597.028 c 128,-1,7
 236.731 556.765 236.731 556.765 212.071 541.97 c 2,8,9
 166.326 514.521 l 1,10,-1
 191.202 569.805 l 2,8,9
 195.039 578.33 195.039 578.33 195.039 600.239 c 0,0,0
 195.039 606.755 195.039 606.755 194.37 619.661 c 128,-1,10
 193.702 632.567 193.702 632.567 190.448 641.662 c 0,11,12
 189.586 644.072 189.586 644.072 188.698 645.363 c 0,0,0
 172.548 659.507 172.548 659.507 170.097 682.028 c 0,0,0
 168.997 692.135 168.997 692.135 169.096 694.458 c 0,0,0
61.0947 691.885 m 0,0,0
 61.0947 711.509 61.0947 711.509 71.6621 730.121 c 128,-1,15
 82.2285 748.733 82.2285 748.733 94.4463 754.153 c 128,-1,16
 106.665 759.572 106.665 759.572 113.06 759.333 c 0,0,0
 123.388 758.948 123.388 758.948 132.173 753.523 c 0,1,2
 136.64 750.765 136.64 750.765 140.629 746.925 c 128,-1,17
 144.618 743.085 144.618 743.085 147.268 739.414 c 0,18,19
 148.489 737.722 148.489 737.722 149.625 735.895 c 0,20,21
 159.37 720.223 159.37 720.223 162.551 696.109 c 0,18,19
 163.796 686.667 163.796 686.667 163.796 673.99 c 0,0,0
 163.796 635.238 163.796 635.238 146.215 594.354 c 128,-1,20
 128.633 553.467 128.633 553.467 103.592 539.693 c 2,21,22
 59.6865 515.546 l 1,23,-1
 83.2031 567.806 l 2,21,22
 87.0391 576.33 87.0391 576.33 87.0391 598.239 c 0,0,0
 87.0391 604.807 87.0391 604.807 86.3867 617.27 c 128,-1,23
 85.7354 629.733 85.7354 629.733 82.749 638.41 c 0,24,25
 81.665 641.558 81.665 641.558 81.4326 641.753 c 0,24,25
 64.5166 655.98 64.5166 655.98 62.0869 679.141 c 0,0,0
 61.0947 688.601 61.0947 688.601 61.0947 691.885 c 0,0,0
EndSplineSet
EndChar

StartChar: Euro
Encoding: 8364 8364 182
Width: 641
Flags: HW
LayerCount: 2
Fore
SplineSet
547.995 313 m 1,0,-1
 512.287 191 l 1,1,-1
 67.0137 191 l 1,2,-1
 102.721 313 l 1,3,-1
 547.995 313 l 1,0,-1
590.337 475 m 1,4,-1
 551.938 355 l 1,5,-1
 72.6807 355 l 1,6,-1
 103.881 475 l 1,7,-1
 590.337 475 l 1,4,-1
632.03 648.726 m 1,8,-1
 594.05 506.3 l 1,9,-1
 576.56 547.652 l 2,14,15
 570.382 562.259 570.382 562.259 538.311 578.456 c 0,16,17
 511.847 591.822 511.847 591.822 464.513 594.014 c 0,18,19
 460.958 594.178 460.958 594.178 457.419 594.178 c 0,0,0
 401.231 594.178 401.231 594.178 345.782 551.141 c 128,-1,20
 290.332 508.104 290.332 508.104 263.603 436.541 c 0,21,22
 243.547 382.843 243.547 382.843 243.547 330.611 c 0,0,0
 243.547 290.082 243.547 290.082 263.393 224.59 c 128,-1,23
 283.238 159.098 283.238 159.098 360.663 114.128 c 0,24,25
 398.917 91.9092 398.917 91.9092 419.083 91.459 c 129,-1,26
 439.249 91.0088 439.249 91.0088 441.312 90.9785 c 0,27,28
 443.376 90.9473 443.376 90.9473 444.206 90.9473 c 0,0,0
 483.57 90.9473 483.57 90.9473 519.714 107.376 c 128,-1,27
 555.858 123.806 555.858 123.806 590.794 156.084 c 2,28,-1
 616.305 179.652 l 1,29,-1
 616.305 32.1523 l 1,30,-1
 611.066 26.2012 l 2,29,30
 572.647 -17.458 572.647 -17.458 545.144 -24.666 c 128,-1,31
 517.64 -31.875 517.64 -31.875 486.231 -34.2441 c 128,-1,32
 454.823 -36.6133 454.823 -36.6133 440.104 -36.6133 c 0,0,0
 408.437 -36.6133 408.437 -36.6133 371.803 -29.9443 c 128,-1,33
 335.169 -23.2764 335.169 -23.2764 306.562 -4.76953 c 0,34,35
 189.783 70.7764 189.783 70.7764 162.287 166.791 c 128,-1,36
 134.79 262.805 134.79 262.805 134.79 321.162 c 0,0,0
 134.79 404.22 134.79 404.22 167.409 491.469 c 0,37,38
 208.749 602.041 208.749 602.041 287.235 661.209 c 128,-1,40
 365.722 720.378 365.722 720.378 452.101 720.378 c 0,0,0
 458.499 720.378 458.499 720.378 466.562 719.983 c 0,8,9
 515.273 717.595 515.273 717.595 573.881 688.052 c 0,0,0
 605.955 671.884 605.955 671.884 622.371 657.304 c 2,10,11
 632.03 648.726 l 1,8,-1
EndSplineSet
EndChar

StartChar: brokenbar
Encoding: 166 166 187
Width: 186
Flags: HW
LayerCount: 2
Fore
SplineSet
55.7129 335 m 1,0,-1
 154.762 335 l 1,1,-1
 157.466 -20 l 1,2,-1
 55.7129 -20 l 1,3,-1
 55.7129 335 l 1,0,-1
56.5645 716 m 1,4,-1
 155.764 716 l 1,5,-1
 154.861 367 l 1,6,-1
 55.6611 367 l 1,7,-1
 56.5645 716 l 1,4,-1
EndSplineSet
EndChar

